<svg width="33" height="35" viewBox="0 0 33 35" fill="none" xmlns="http://www.w3.org/2000/svg">
<g id="Abstract Design">
<path id="Vector" fill-rule="evenodd" clip-rule="evenodd" d="M11.0413 32.6618C7.89032 31.8058 4.59131 31.374 1.39105 30.9784C0.701762 30.8954 0.0618066 31.3582 0.0125719 32.0102C-0.0858976 32.6627 0.406738 33.2595 1.04679 33.3424C4.14858 33.7232 7.34855 34.1307 10.3519 34.9548C10.9919 35.1335 11.6815 34.7656 11.8784 34.1326C12.0754 33.5002 11.6814 32.841 11.0413 32.6618Z" fill="#8D8C8C"/>
<path id="Vector_2" fill-rule="evenodd" clip-rule="evenodd" d="M20.5918 20.5257C15.5206 15.5159 9.80937 11.151 4.83666 6.0068C4.39355 5.52636 3.60579 5.50062 3.11345 5.94912C2.6211 6.3981 2.57206 7.15307 3.0644 7.6335C8.03711 12.7925 13.7483 17.1717 18.8195 22.1962C19.3119 22.6652 20.0994 22.6719 20.5918 22.2105C21.0349 21.7496 21.0841 20.9947 20.5918 20.5257Z" fill="#05D1CB"/>
<path id="Vector_3" fill-rule="evenodd" clip-rule="evenodd" d="M30.0969 1.25626C30.2446 4.12362 30.392 6.99098 30.5397 9.85881C30.5397 10.5156 31.1308 11.0227 31.8201 10.9908C32.5094 10.9584 33.0014 10.3993 33.0014 9.74204C32.8537 6.86992 32.7063 3.99827 32.5586 1.12662C32.5094 0.469834 31.9185 -0.0339561 31.2292 0.00179059C30.5891 0.0375372 30.0476 0.599953 30.0969 1.25626Z" fill="#8D8C8C"/>
</g>
</svg>
