<?xml version="1.0" encoding="UTF-8"?><svg id="uuid-59f3f1cb-b2eb-4aae-ac35-1908037f7cea" xmlns="http://www.w3.org/2000/svg" viewBox="0 0 414.95 118"><defs><style>.uuid-11eaaaaf-09bd-4f0d-a674-12e49f9de3f4{fill:#fff;}</style></defs><path class="uuid-11eaaaaf-09bd-4f0d-a674-12e49f9de3f4" d="M126.64,0h-18.77v117.92h18.77V0ZM367.78,0h-19.25v117.92h19.25v-49.82c0-2.16,3.17-7.99,4.79-9.65,5.13-5.26,18.06-7.2,21.77.42.25.52,1.36,3.66,1.36,3.94v54.15h19.25v-48.85c-.81-6.64-1.58-13.14-5.09-18.98-8.63-14.34-29.48-16.51-42.08-6.3V0ZM93.21,101.84c.68-.73,2.82-2.85,2.41-3.65l-11.65-11.52c-6.98,6.35-13.65,10.77-23.19,12.33-30.09,4.92-48.14-22.39-41.34-50,7.55-30.67,45.51-36.26,65.08-13.39,2.97-3.89,9.21-7.97,11.82-11.77.29-.43.68-.65.24-1.22-10-9.91-22.78-17.22-37.1-18.29C-12.3-.99-19.86,101.71,40.87,116.34c18.05,4.35,39.56-.81,52.35-14.5ZM249.86,9.15h-19.25v28.88h-13.96v18.29h13.96v61.61h19.25v-61.61h13.96v-18.29h-13.96V9.15ZM339.38,104.92l-13.24-13.46c-14.16,14.97-39.3,8.7-40.69-13.22-1.51-23.83,25.59-32.34,40.69-16.15l13.01-12.51c-14.12-12.63-32.9-17.18-50.48-8.59-40.16,19.62-20.65,86.96,28.96,75.65,8.91-2.03,14.53-6.58,21.75-11.71ZM159.85,38.02h-18.77v49.82c0,3,2.37,10.71,3.77,13.56,8.8,18.03,33.43,21.5,48.7,9.78v6.74h18.77V38.02h-18.77v43.56c0,1.85-1.33,7.1-2.17,8.9-5.64,12.16-28.62,15.1-30.93-1.31l-.59-4.22v-46.93ZM305.08,64.13c-18.75,2.97-11.67,32.37,6.98,25.27,14.15-5.39,8.06-27.65-6.98-25.27Z"/><path class="uuid-11eaaaaf-09bd-4f0d-a674-12e49f9de3f4" d="M367.78,0v42.84c12.6-10.22,33.44-8.04,42.08,6.3,3.51,5.84,4.29,12.34,5.09,18.98v48.85s-19.25,0-19.25,0v-54.15c0-.28-1.11-3.42-1.36-3.94-3.71-7.62-16.64-5.67-21.77-.42-1.62,1.66-4.79,7.49-4.79,9.65v49.82h-19.25V0h19.25Z"/><path class="uuid-11eaaaaf-09bd-4f0d-a674-12e49f9de3f4" d="M93.21,101.84c-12.79,13.69-34.3,18.85-52.35,14.5C-19.86,101.71-12.3-.99,59.49,4.34c14.32,1.06,27.1,8.38,37.1,18.29.44.56.05.79-.24,1.22-2.61,3.8-8.85,7.88-11.82,11.77-19.57-22.87-57.53-17.29-65.08,13.39-6.8,27.61,11.25,54.92,41.34,50,9.53-1.56,16.21-5.98,23.19-12.33l11.65,11.52c.41.8-1.72,2.91-2.41,3.65Z"/><path class="uuid-11eaaaaf-09bd-4f0d-a674-12e49f9de3f4" d="M159.85,38.02v46.93l.59,4.22c2.31,16.41,25.3,13.48,30.93,1.31.83-1.8,2.17-7.05,2.17-8.9v-43.56h18.77v79.9h-18.77v-6.74c-15.27,11.71-39.9,8.25-48.7-9.78-1.39-2.85-3.77-10.56-3.77-13.56v-49.82h18.77Z"/><path class="uuid-11eaaaaf-09bd-4f0d-a674-12e49f9de3f4" d="M339.38,104.92c-7.21,5.13-12.84,9.68-21.75,11.71-49.61,11.31-69.12-56.03-28.96-75.65,17.58-8.59,36.36-4.04,50.48,8.59l-13.01,12.51c-15.1-16.18-42.21-7.67-40.69,16.15,1.39,21.93,26.54,28.19,40.69,13.22l13.24,13.46Z"/><polygon class="uuid-11eaaaaf-09bd-4f0d-a674-12e49f9de3f4" points="249.86 9.15 249.86 38.02 263.82 38.02 263.82 56.31 249.86 56.31 249.86 117.92 230.61 117.92 230.61 56.31 216.65 56.31 216.65 38.02 230.61 38.02 230.61 9.15 249.86 9.15"/><rect class="uuid-11eaaaaf-09bd-4f0d-a674-12e49f9de3f4" x="107.87" width="18.77" height="117.92"/><path class="uuid-11eaaaaf-09bd-4f0d-a674-12e49f9de3f4" d="M305.08,64.13c15.04-2.38,21.13,19.88,6.98,25.27-18.65,7.1-25.73-22.3-6.98-25.27Z"/></svg>