<?xml version="1.0" encoding="utf-8"?>
<!-- Generator: Adobe Illustrator 24.0.1, SVG Export Plug-In . SVG Version: 6.00 Build 0)  -->
<svg version="1.1" id="Capa_1" xmlns="http://www.w3.org/2000/svg" xmlns:xlink="http://www.w3.org/1999/xlink" x="0px" y="0px"
	 viewBox="0 0 755 547" style="enable-background:new 0 0 755 547;" xml:space="preserve">
<style type="text/css">
	.st0{opacity:0.1;fill:none;stroke:#4D4D4D;stroke-miterlimit:10;}
</style>
<path class="st0" d="M141.2,453.6c-13.8,14.9-32.7,18.9-65.1,4.4C47.6,445.2,22.8,426.5,0,405.1v19.4c17.4,14.8,36,28.2,56.4,39.4
	c43.7,23.9,64.7,18.8,84.7-10.4L141.2,453.6z"/>
<path class="st0" d="M589.8,413.5c5,7.4,10.2,14.4,15.9,20.9c-2.5-4.3-5-8.6-7.5-12.9C595.4,418.7,592.6,416.1,589.8,413.5z"/>
<path class="st0" d="M180.8,371.8c-3.9,8.8-7.6,17.7-11.2,26.5c-1.9,4.7-3.7,9.3-5.5,13.8c3.1-5.9,6.3-11.8,9.5-17.6
	C176.1,387,178.4,379.4,180.8,371.8L180.8,371.8z"/>
<path class="st0" d="M173.6,394.4c1.9-3.5,3.9-7,5.9-10.5c3.1-8.8,5.8-18,8.3-27.2c-2.4,5-4.7,10.1-6.9,15.1
	c-2.4,7.5-4.7,15.2-7.2,22.6H173.6z"/>
<path class="st0" d="M141.2,453.6c2.7-3.9,5.4-8.3,8.1-13.1c-11.5,11-27.4,15.8-51.3,9.1c-36.8-10.3-68.9-35.4-98-65.5V405
	c22.9,21.4,47.7,40,76.1,52.9c32.4,14.6,51.3,10.5,65.1-4.4V453.6z"/>
<path class="st0" d="M149.2,440.5c-2.7,4.8-5.4,9.1-8.1,13.1c4.3-4.6,8.1-10.3,11.6-16.8c-1.1,1.3-2.3,2.6-3.6,3.8L149.2,440.5z"/>
<path class="st0" d="M589.9,401.9c-1.4-1.8-2.8-3.5-4.2-5.2c2.8,3.8,5.7,7.5,8.6,11.1c-1.5-2-2.9-3.9-4.4-5.8L589.9,401.9z"/>
<path class="st0" d="M164.1,412.1c-0.8,1.6-1.6,3.1-2.4,4.7c0.3-0.4,0.6-0.7,1-1.1c0.5-1.2,1-2.4,1.5-3.6H164.1z"/>
<path class="st0" d="M161.7,416.8c-1.8,3.4-3.5,6.8-5.2,10.2c-2.5,4.8-4.9,9.4-7.2,13.6c1.2-1.2,2.4-2.5,3.6-3.8
	c3.4-6.3,6.7-13.4,9.9-21.1c-0.3,0.4-0.6,0.7-1,1.1L161.7,416.8z"/>
<path class="st0" d="M98,449.7c23.9,6.7,39.8,1.9,51.3-9.1c2.4-4.2,4.8-8.7,7.2-13.6c1.7-3.4,3.5-6.8,5.2-10.2
	c-11.5,13.1-27.8,20.1-52.6,15.2c-41.4-8.1-77-37-109.1-72.1v24.3C29.1,414.3,61.1,439.3,98,449.7L98,449.7z"/>
<path class="st0" d="M187.8,356.7c0.7-2.6,1.4-5.3,2.1-7.9c-2.3,6.8-4.9,13.4-8,19.6c-0.4,1.1-0.7,2.2-1.1,3.4
	c2.2-5,4.5-10.1,6.9-15.1H187.8z"/>
<path class="st0" d="M579.2,389.3c-2.7-4.3-5.4-8.5-8.1-12.5c-2.8-4.1-5.6-7.9-8.5-11.5c2.9,5.3,5.9,10.7,8.8,16.3
	C574,384,576.6,386.6,579.2,389.3z"/>
<path class="st0" d="M152.8,436.8c7.1-8.3,12.4-19.3,16.9-31.2c-2.1,3.6-4.5,7-7,10.1C159.5,423.4,156.3,430.5,152.8,436.8z"/>
<path class="st0" d="M169.7,405.5c3.8-6.5,7-13.9,9.8-21.6c-2,3.5-3.9,7-5.9,10.5C172.3,398.2,171.1,401.9,169.7,405.5L169.7,405.5z
	"/>
<path class="st0" d="M109.1,432c24.8,4.8,41.1-2.1,52.6-15.2c0.8-1.6,1.6-3.1,2.4-4.7c1.8-4.4,3.6-9,5.5-13.8
	c3.5-8.8,7.2-17.7,11.2-26.5c0.4-1.1,0.7-2.2,1.1-3.4c-12.3,25.2-31.4,43.3-66.4,39.6C72,403.4,33.8,371.4,0,332.8v27.1
	C32,395,67.6,423.9,109.1,432z"/>
<path class="st0" d="M628,458.6c-1.5-2.4-3-4.7-4.5-7.1c-6.4-5-12.3-10.8-17.8-17c1.8,3,3.6,6,5.4,9
	C616.8,448.1,622.5,453.2,628,458.6L628,458.6z"/>
<path class="st0" d="M672,513c-6.8-8.3-13.4-16.8-19.9-25.3c-3-1.7-5.8-3.6-8.6-5.5c2.4,3.5,4.9,7,7.4,10.4
	C658,499,664.9,505.9,672,513L672,513z"/>
<path class="st0" d="M675.5,516.7c-1.2-1.2-2.4-2.5-3.6-3.7c0.8,1,1.6,2,2.5,3C674.8,516.2,675.1,516.4,675.5,516.7z"/>
<path class="st0" d="M164.1,412.1c-0.5,1.2-1,2.4-1.5,3.6c2.6-3.1,4.9-6.5,7-10.1c1.4-3.6,2.7-7.3,3.9-11.1
	c-3.2,5.9-6.4,11.8-9.5,17.6H164.1z"/>
<path class="st0" d="M394,15.3C263.6,35,181.5,165.4,48.2,168c-17.6,0.3-33.5-3.1-48.2-9.2v27.4c17.9,9.7,37.5,15.3,59.7,14.5
	c63.5-2.3,107.6-37.2,152.4-78.2c52.7-48.3,110.8-95.1,184.1-105.9c131.5-19.5,242.8,37,357.2,90.6c0.5,0.3,1.1,0.5,1.6,0.8V75.7
	c-1.4-0.5-2.7-1.1-4.1-1.6C636.1,29.9,518.8-3.5,394,15.3z"/>
<path class="st0" d="M402,12.3c-2.7,0.4-5.4,0.8-8.1,1.2c-1.1,0.2-2.2,0.3-3.3,0.5C263.4,33.8,164.8,137.5,32.2,132.9
	c-11.5-0.4-22.2-2.3-32.4-5.5v31.4c14.6,6.1,30.5,9.5,48.2,9.2c133.3-2.6,215.5-133,345.8-152.7c124.8-18.8,242.1,14.6,357,58.8
	c1.4,0.5,2.7,1.1,4.1,1.6V43.4c-4-1.4-8-2.7-12.2-3.9C634.4,7.1,514.8-3.4,402,12.3z"/>
<path class="st0" d="M402,12.3C514.8-3.4,634.4,7,742.7,39.4c4.2,1.3,8.3,2.6,12.2,3.9V10.9c-5.7-1.7-11.7-3.2-17.9-4.5
	c-12-2.6-24.2-4.7-36.5-6.4H494.7c-16.2,1.7-32.2,3.6-48.1,5.7c-14.9,2.3-29.8,4.5-44.8,6.7L402,12.3z"/>
<path class="st0" d="M755,10.9V0h-54.3c12.3,1.7,24.5,3.8,36.5,6.4c6.2,1.3,12.1,2.8,17.9,4.5H755z"/>
<path class="st0" d="M24.1,95.3c125,7.3,230.9-57,350.1-78.9c-121.7,18.8-235.9,50.7-361,38.5C8.7,54.5,4.3,53.8,0,53v38.8
	C7.7,93.6,15.7,94.9,24.1,95.3L24.1,95.3z"/>
<path class="st0" d="M24.1,95.3C15.7,94.8,7.7,93.6,0,91.7v35.7c10.1,3.1,20.9,5.1,32.4,5.5C164.9,137.5,263.6,33.8,390.8,14
	c1.1-0.2,2.2-0.3,3.3-0.5c-3.1,0.5-6.1,0.9-9.2,1.4c-3.5,0.5-7,1-10.5,1.6C255,38.3,149,102.6,24.1,95.3z"/>
<path class="st0" d="M402,12.3c-2.7,0.4-5.4,0.8-8.1,1.2C396.6,13.1,399.3,12.7,402,12.3z"/>
<path class="st0" d="M0,547h28.6c-9.9-5.4-19.5-12.3-28.6-19.9V547z"/>
<path class="st0" d="M394,13.5c2.7-0.4,5.4-0.8,8.1-1.2c15-2.2,29.9-4.4,44.8-6.7c-20.2,2.7-40.1,5.6-59.6,8.6
	c-4.4,0.7-8.7,1.4-13,2.2c3.5-0.5,7-1.1,10.5-1.6C387.9,14.3,391,13.9,394,13.5L394,13.5z"/>
<path class="st0" d="M194.8,332.9c-0.6,1.5-1.2,3-1.8,4.5c-1.1,3.7-2.1,7.5-3.2,11.4c1.8-5.2,3.4-10.5,4.9-15.9H194.8z"/>
<path class="st0" d="M382.5,14.2c27.8-3.9,54.8-8.5,81.6-14.2h-15.2c-22.3,5.3-45.1,9.3-68.7,12.2c-69.1,8.4-132.8,0-196.3-12.2H0
	v10.4c3.7,0.7,7.4,1.3,11.2,1.8C138.1,28.2,255.7,31.8,382.5,14.2z"/>
<path class="st0" d="M13.2,54.9c125.1,12.2,239.3-19.7,361-38.4c4.3-0.8,8.6-1.5,13-2.2c19.5-3,39.4-5.9,59.6-8.6
	C458.9,3.9,471,2,483.1,0H464c-26.7,5.7-53.8,10.3-81.6,14.2c-126.8,17.6-244.4,14-371.3-2c-3.8-0.5-7.5-1.1-11.2-1.8V53
	C4.2,53.8,8.6,54.5,13.2,54.9L13.2,54.9z"/>
<path class="st0" d="M198.3,320.2c-1.6,5.1-3.2,10.2-4.7,15.3c-0.2,0.6-0.4,1.3-0.6,1.9c0.6-1.5,1.2-3,1.8-4.5
	C196,328.7,197.1,324.4,198.3,320.2L198.3,320.2z"/>
<path class="st0" d="M193,337.4c-3.6,9.2-6.9,18.3-9.9,27.4c-0.4,1.2-0.8,2.4-1.2,3.7c3-6.2,5.6-12.8,8-19.6c1-3.9,2.1-7.7,3.2-11.4
	L193,337.4z"/>
<path class="st0" d="M385.1,3.1c8.5-0.7,16.8-1.7,25-3.1h-83.7C345.2,3.5,364.7,4.8,385.1,3.1L385.1,3.1z"/>
<path class="st0" d="M380.1,12.2c23.6-2.9,46.4-6.9,68.7-12.2h-15.3c-16.6,3.9-33.7,6.9-51.3,8.8c-39.8,4.3-77,0-113-8.8h-85.4
	C247.4,12.3,311.1,20.6,380.1,12.2L380.1,12.2z"/>
<path class="st0" d="M494.9,0h-11.8c-12.1,1.9-24.2,3.8-36.3,5.7C462.7,3.6,478.7,1.7,494.9,0L494.9,0z"/>
<path class="st0" d="M382.1,8.8C399.7,6.9,416.8,4,433.4,0H410c-8.2,1.4-16.5,2.4-25,3.1c-20.4,1.7-39.9,0.4-58.7-3.1h-57.2
	C305.1,8.7,342.2,13.1,382.1,8.8L382.1,8.8z"/>
<path class="st0" d="M553.2,349.3c2.4,4.4,4.9,9,7.3,13.6c0.7,0.8,1.4,1.6,2.1,2.5C559.5,359.8,556.4,354.5,553.2,349.3L553.2,349.3
	z"/>
<path class="st0" d="M673,450.5c-34.7-1.7-59-19.2-78.7-42.7c9,12.1,17.4,25.2,25.7,38.4c1.9,2.3,3.8,4.7,5.7,7.1
	c15.3,11.3,33.3,18.5,55.5,18.8c25.8,0.4,50.1-6.2,73.7-15.6v-19.9C727.9,445.5,700.6,451.8,673,450.5L673,450.5z"/>
<path class="st0" d="M697.4,500.6c-14.8-0.6-27.8-4.1-39.4-9.8c8.7,10,17.4,20.4,26.3,30.7c9.5,4.7,19.8,8.2,31.2,10
	c13.9,2.2,27,1.7,39.6-0.6v-40.2c-18.2,6.7-37.2,10.8-57.6,10L697.4,500.6z"/>
<path class="st0" d="M511.4,533.4c-7.9,4.1-15.6,8.7-23.2,13.6h178.5C620.4,517.3,571.1,502.1,511.4,533.4L511.4,533.4z"/>
<path class="st0" d="M681.3,472c-22.2-0.3-40.2-7.4-55.5-18.8c3.6,4.6,7.3,9.3,10.9,14.1c7.1,7.4,14.2,15.3,21.2,23.4
	c11.6,5.7,24.6,9.2,39.4,9.8c20.4,0.8,39.4-3.3,57.6-10v-34.2c-23.6,9.4-47.9,15.9-73.7,15.6L681.3,472z"/>
<path class="st0" d="M668.1,395.1c-71.8-8-105.3-82.1-149.1-129.5c-59.7-64.8-124-39.4-183.3,14.4c-48.4,43.9-93.5,91.5-137.5,139.7
	c-26,28.5-51.6,63.6-82.9,86.8C72.8,538,34.7,507.6,0,478.9v22.9c31.6,27.2,66.8,49.5,107.8,26.6c30.3-16.9,55.6-47.1,79.8-71.5
	c51.5-52,101.6-105.3,154.5-155.8c54.9-52.3,117.7-90.1,176.1-24c43.6,49.4,73.8,128.1,148.7,135.3c28.6,2.7,58.4-0.6,88.2-6v-12.5
	c-29.3,3.2-58.6,4.4-86.9,1.3L668.1,395.1z"/>
<path class="st0" d="M665.5,378.6c-70.6-16.7-103.5-87.7-152.4-134c-57.9-54.8-121.8-37.2-179.9,9.8
	C254,318.6,199.3,403.3,131.8,477.7c-39.8,43.8-71.2,26-114.7-5.4c-5.8-4.2-11.4-8.4-17-12.7v19.3C34.8,507.6,73,538,115.4,506.5
	c31.3-23.3,56.9-58.3,82.9-86.8c44-48.2,89.1-95.8,137.5-139.7c59.3-53.8,123.6-79.2,183.3-14.4c43.7,47.4,77.2,121.5,149.1,129.5
	c28.3,3.2,57.5,1.9,86.9-1.3v-9.4C724,386.1,693.3,385.1,665.5,378.6L665.5,378.6z"/>
<path class="st0" d="M666.8,412.4c-74.9-7.1-105.1-85.9-148.7-135.3c-58.4-66.1-121.2-28.4-176.1,24
	c-52.9,50.5-103,103.8-154.5,155.8c-24.2,24.4-49.4,54.6-79.8,71.5c-41,22.9-76.2,0.6-107.8-26.6v25.3c9.2,7.6,18.7,14.5,28.6,19.9
	h82.9c29.3-16.2,54.1-42.5,77.8-65.1c54.9-52.3,106.8-107.7,160.4-161.3c55.5-55.4,118.3-98.4,175.8-24.7
	c39.6,50.7,68.1,130.6,143.2,133.9c28.8,1.3,57.5-3.7,86.1-10.8v-12.7c-29.8,5.4-59.6,8.7-88.2,6L666.8,412.4z"/>
<path class="st0" d="M691.2,534.9c-10.3-7.8-19.5-16.9-28-26.9c-10.3-8.2-19.5-18.1-28-28.9c-42.4-33.4-89.6-47-154.9-1.6
	c-30.4,21.1-58.7,45.3-86.9,69.4h46.3c18.5-14.2,37.4-28,57.2-40.5c83.1-52.3,140.8-11.2,197.9,40.5h8.6
	C699.2,543,695.2,539,691.2,534.9L691.2,534.9z"/>
<path class="st0" d="M496.9,506.5c-19.8,12.5-38.7,26.3-57.2,40.5h48.5c7.6-4.9,15.3-9.5,23.2-13.6c59.7-31.3,109-16.1,155.3,13.6
	h28.1C637.7,495.3,580.1,454.2,496.9,506.5z"/>
<path class="st0" d="M696.5,538.7c-1.8-1.2-3.5-2.5-5.3-3.8c4,4.2,8.1,8.2,12.2,12.1h0.9C701.7,544.2,699.1,541.5,696.5,538.7
	L696.5,538.7z"/>
<path class="st0" d="M707.1,547h3.2c-2.3-1.2-4.5-2.4-6.6-3.7c1.2,1.2,2.3,2.5,3.5,3.7H707.1z"/>
<path class="st0" d="M715.4,531.5c-11.4-1.8-21.7-5.3-31.2-10c6.4,7.4,12.8,14.7,19.4,21.8c2.2,1.3,4.4,2.5,6.6,3.7H755v-16.1
	C742.4,533.2,729.2,533.7,715.4,531.5z"/>
<path class="st0" d="M696.5,538.7c2.6,2.8,5.2,5.5,7.8,8.3h2.8c-1.2-1.2-2.3-2.5-3.5-3.7C701.2,541.8,698.8,540.3,696.5,538.7z"/>
<path class="st0" d="M668.9,429.8c-75.1-3.3-103.6-83.2-143.2-133.9c-57.5-73.7-120.4-30.7-175.8,24.7
	c-53.6,53.6-105.5,109-160.4,161.3c-23.7,22.6-48.5,48.9-77.8,65.1h36c16.3-13,31.5-27.5,45.5-40.5
	c57.6-53.5,111.2-111.4,165.6-168.1c51.8-54.1,114.7-106.7,170.4-31.3c19.6,26.6,35.8,61.1,56.6,89.6c1.4,1.7,2.8,3.4,4.2,5.2
	c1.5,1.9,3,3.9,4.4,5.8c19.7,23.6,44,41,78.7,42.7c27.6,1.4,54.9-4.9,82-13.9v-17.6c-28.6,7.1-57.3,12.1-86.1,10.8L668.9,429.8z"/>
<path class="st0" d="M396,23.7C316.7,34.9,264.4,93,221,154.9c-35.3,50.4-69.7,101.6-137.3,104.6c-31.9,1.4-59.3-11.3-83.8-30.9
	v16.8C26,268.7,55.1,285,88.8,285.2c71.5,0.4,102-56.4,133.2-111.8c38.2-67.6,88.2-132.5,171.2-143.9
	c146.3-20,245.1,93.1,352.8,168.4c2.9,2,5.8,4,8.8,6V172c-0.6-0.4-1.3-0.8-1.9-1.2C641,101,540.1,3.3,396,23.7z"/>
<path class="st0" d="M562.6,365.3c-0.7-0.8-1.4-1.7-2.1-2.5c3.1,5.8,6.2,11.6,9.4,17.5c0.5,0.4,1,0.9,1.5,1.3
	C568.5,376.1,565.5,370.6,562.6,365.3L562.6,365.3z"/>
<path class="st0" d="M387.4,39.6c-86,11.6-131.4,78.1-164.9,150.7C196.4,247,171.4,311.5,98.5,309c-38-1.3-70.1-21.4-98.5-49v14.1
	c29.9,30.4,64.1,53.4,105.7,56.6c73.8,5.6,93-66,114.2-122.7c29-77.3,69.3-142.8,158.1-154.7c157.3-21.2,247.9,113.8,357.2,198.8
	c6.4,5,13,9.9,19.9,14.7v-31.1c-4.6-3.2-9-6.4-13.4-9.7C634,145.3,539.2,19.2,387.4,39.7L387.4,39.6z"/>
<path class="st0" d="M397,19.2c-76.3,11.1-131.8,63.9-179.9,119.6c-40.1,46.5-79.6,89.6-145.2,92.5c-27.1,1.2-50.6-7.6-71.8-21.9
	v19.2c24.4,19.6,51.8,32.3,83.8,30.9c67.6-3,102-54.2,137.3-104.6c43.3-61.9,95.6-120,175-131.2c144.1-20.4,245,77.3,357.1,147.1
	c0.6,0.4,1.3,0.8,1.9,1.2v-32c-0.3-0.2-0.6-0.3-0.9-0.5C640.7,77.3,534.9-0.9,397,19.2z"/>
<path class="st0" d="M516.3,230.6c-61.5-54.8-125.2-44.1-188.1,3.4c-77.8,58.7-131.6,140.1-185,219.7
	c-33.7,50.3-59.6,44.7-108.9,13.1c-12-7.7-23.4-15.9-34.3-24.5v17.4c5.6,4.3,11.3,8.6,17,12.7c43.6,31.4,75,49.1,114.7,5.4
	c67.6-74.4,122.3-159.2,201.4-223.3c58.1-47.1,122-64.6,179.9-9.8c48.9,46.3,81.8,117.3,152.4,134c27.7,6.5,58.3,7.5,89.5,5.9V374
	c-27-0.3-53.7-2.7-78.7-8.2C603.8,349.7,567.4,276.3,516.3,230.6L516.3,230.6z"/>
<path class="st0" d="M753.4,107.2C638.9,53.6,527.6-2.9,396.2,16.6c-73.3,10.9-131.3,57.6-184.1,105.9c-44.7,41-88.9,76-152.4,78.2
	c-22.2,0.8-41.8-4.8-59.7-14.5v23.1c21.2,14.3,44.8,23.1,71.8,21.9c65.6-2.9,105.1-46,145.2-92.5C265.1,83.1,320.6,30.2,396.9,19.1
	c138-20,243.7,58.1,357.1,120.3c0.3,0.2,0.6,0.3,0.9,0.5v-32c-0.5-0.3-1.1-0.5-1.6-0.8L753.4,107.2z"/>
<path class="st0" d="M377.9,53.2c-88.7,12-129.1,77.4-158.1,154.7c-21.2,56.7-40.4,128.3-114.2,122.7C64,327.4,29.9,304.4-0.1,274
	v30.1c34.4,38.7,73.8,70,119.8,71.1c66.2,1.6,78.5-72.9,94.1-122.6c24.2-76.8,62.4-151.3,147.1-173
	C523.2,38,613.3,197.7,729.5,274.3c8.1,5.3,16.5,10.5,25.3,15.5v-23c-6.9-4.8-13.5-9.8-19.9-14.7c-109.3-85-199.9-220-357.2-198.8
	L377.9,53.2z"/>
<path class="st0" d="M328.8,184.1c-64.1,39.9-109,104.7-141.1,172.6c-2.5,9.2-5.1,18.5-8.3,27.2c37.7-66.8,84.5-130.6,147.9-174.5
	c65.1-45.1,131-46.5,192.1,5.3c53.3,45.2,92.2,116.7,163.7,136.7c23.7,6.6,47.6,10.7,71.8,12.8v-11.5c-21.3-3.2-42.5-8.2-63.7-15.5
	C557.5,291.2,496.8,79.3,328.8,184.1L328.8,184.1z"/>
<path class="st0" d="M361.1,79.5c-84.8,21.7-123,96.2-147.1,173c-15.6,49.7-27.9,124.2-94.1,122.6C73.8,374,34.4,342.7,0.1,304v28.7
	c33.9,38.6,72,70.6,115.5,75.2c35,3.7,54.1-14.4,66.4-39.6c0.4-1.2,0.8-2.4,1.2-3.7c3-9,6.3-18.2,9.9-27.4c0.2-0.6,0.4-1.3,0.6-1.9
	c1.5-5.1,3-10.2,4.7-15.3c2.5-9.7,4.9-19.2,7.5-28c22.3-76.6,62.4-158.7,143.3-188.2c159.2-58.2,251.3,116.4,366.2,184.6
	c12.5,7.4,25.9,14.4,39.8,20.6v-19.5c-8.8-5-17.2-10.2-25.3-15.5C613.8,197.4,523.6,37.7,361.3,79.3L361.1,79.5z"/>
<path class="st0" d="M333.2,155.7c-67,36.5-110.5,107.2-138.4,177.2c-1.5,5.4-3.1,10.7-4.9,15.9c-0.7,2.6-1.4,5.2-2.1,7.9
	c32.1-67.9,77-132.7,141.1-172.6C497,79.3,557.6,291.3,691.4,337.3c21.2,7.3,42.5,12.3,63.7,15.5v-11.9
	c-19.9-4.8-39.9-11.7-59.9-20.9c-121-55.5-201.7-251.7-361.9-164.4L333.2,155.7z"/>
<path class="st0" d="M519.5,214.7c-61.2-51.8-127-50.4-192.1-5.3C264,253.3,217.2,317.1,179.5,383.9c-2.8,7.7-5.9,15.1-9.8,21.6
	c-4.5,11.9-9.8,22.9-16.9,31.2c-3.5,6.5-7.3,12.2-11.6,16.8c-20,29.2-41,34.3-84.7,10.4c-20.4-11.2-39-24.6-56.4-39.4v17.7
	c11,8.6,22.4,16.9,34.3,24.5c49.3,31.6,75.2,37.1,108.9-13.1c53.4-79.6,107.2-161,185-219.7c62.9-47.5,126.6-58.2,188.1-3.4
	c51.2,45.6,87.6,119,160,135.1c25,5.6,51.7,7.9,78.7,8.2v-9.6c-24.2-2.1-48.2-6.2-71.8-12.8c-71.5-20-110.3-91.5-163.7-136.7
	L519.5,214.7z"/>
<path class="st0" d="M339.6,129.9c-75.5,34.8-117.2,114.6-141.3,190.3c-1.1,4.2-2.2,8.5-3.5,12.7c27.8-70,71.4-140.8,138.4-177.2
	c160.2-87.3,240.9,108.9,361.9,164.4c20.1,9.2,40,16,59.9,20.9v-14.8c-17.5-5.9-34.4-12.9-50.1-21C586.6,244.3,500,55.9,339.6,129.9
	L339.6,129.9z"/>
<path class="st0" d="M349,104c-80.8,29.5-121,111.6-143.3,188.2c-2.6,8.8-4.9,18.3-7.5,28c24.2-75.7,65.8-155.5,141.3-190.3
	c160.4-74,247,114.4,365.3,175.3c15.7,8.1,32.5,15.1,50.1,21v-17c-13.9-6.2-27.3-13.1-39.8-20.6C600.2,220.4,508.1,45.7,348.9,104
	H349z"/>
<path class="st0" d="M393.4,29.5c-83,11.4-133.1,76.3-171.2,143.9C191,228.8,160.5,285.6,89,285.2c-33.7-0.2-62.9-16.4-88.9-39.8
	V260c28.4,27.6,60.5,47.7,98.5,49c72.9,2.5,97.9-62,124-118.7c33.5-72.6,78.9-139.1,164.9-150.7c151.8-20.5,246.6,105.7,354.3,186.3
	c4.3,3.2,8.8,6.5,13.4,9.7v-31.7c-3-2-5.9-4-8.8-6C638.5,122.6,539.7,9.4,393.4,29.5z"/>
<path class="st0" d="M663.2,508c8.5,10,17.7,19.1,28,26.9c-5.7-6-11.3-12.4-16.7-18.9C670.6,513.5,666.8,510.9,663.2,508z"/>
<path class="st0" d="M672,513c-7-7.1-13.9-14-21-20.4c3.9,5.3,8,10.5,12.2,15.4c3.6,2.9,7.4,5.6,11.3,8C673.7,515,672.8,514,672,513
	z"/>
<path class="st0" d="M635.2,479.1c8.4,10.8,17.7,20.6,28,28.9c-4.2-4.9-8.3-10.1-12.2-15.4C645.8,487.9,640.5,483.3,635.2,479.1z"/>
<path class="st0" d="M643.5,482.2c-6.1-4.3-11.7-9.3-17-14.7c2.8,4,5.7,7.9,8.7,11.7c5.3,4.2,10.6,8.7,15.8,13.5
	c-2.5-3.4-5-6.9-7.4-10.4L643.5,482.2z"/>
<path class="st0" d="M674.5,516c5.4,6.5,11,12.9,16.7,18.9c1.7,1.3,3.5,2.6,5.3,3.8c-7-7.4-14-14.8-20.9-22
	C675.2,516.5,674.9,516.3,674.5,516z"/>
<path class="st0" d="M696.5,538.7c2.3,1.6,4.7,3.1,7.1,4.6c-6.6-7.1-13.1-14.4-19.4-21.8c-3-1.5-5.8-3.1-8.6-4.8
	C682.6,523.9,689.5,531.3,696.5,538.7z"/>
<path class="st0" d="M635.2,479.1c-3-3.8-5.9-7.7-8.7-11.7c-8.7-9-16.5-19.3-23.7-30.2c-37.5-26.9-80.4-33.7-138.6,8.4
	c-41.5,30-78.3,66.5-116.2,101.4h45.4c28.2-24.1,56.5-48.3,86.9-69.4c65.3-45.4,112.4-31.8,154.9,1.6L635.2,479.1z"/>
<path class="st0" d="M672,513c1.2,1.2,2.4,2.4,3.6,3.7c2.8,1.7,5.7,3.3,8.6,4.8c-8.8-10.2-17.5-20.6-26.3-30.7c-2-1-3.9-2-5.8-3.1
	C658.6,496.2,665.2,504.7,672,513z"/>
<path class="st0" d="M598.2,421.5c-6.4-11-12.6-21.9-18.9-32.2c-2.6-2.8-5.2-5.3-7.8-7.7c3.2,6,6.4,12,9.6,18.1
	c2.8,4.7,5.7,9.3,8.8,13.8C592.7,416,595.5,418.7,598.2,421.5L598.2,421.5z"/>
<path class="st0" d="M569.9,380.3c3.6,6.5,7.2,13,11.1,19.4c-3.3-6.1-6.4-12.1-9.6-18.1C570.9,381.2,570.4,380.7,569.9,380.3z"/>
<path class="st0" d="M643.5,482.2c-5.3-7.7-10.5-15.6-15.6-23.6c-5.6-5.4-11.2-10.5-16.9-15.1c4.9,8.2,10.1,16.2,15.5,24
	C631.8,472.9,637.4,477.9,643.5,482.2z"/>
<path class="st0" d="M602.8,437.2c7.2,11,15,21.3,23.7,30.2c-5.4-7.7-10.6-15.8-15.5-24C608.3,441.2,605.5,439.1,602.8,437.2
	L602.8,437.2z"/>
<path class="st0" d="M605.7,434.5c-5.7-6.5-11-13.5-15.9-20.9c-0.8-0.7-1.6-1.4-2.3-2.1c4.9,8.8,10,17.4,15.4,25.7
	c2.8,2,5.5,4.1,8.2,6.3C609.3,440.5,607.5,437.5,605.7,434.5z"/>
<path class="st0" d="M581,399.7c2.1,3.9,4.2,7.9,6.4,11.8c0.8,0.7,1.6,1.4,2.3,2.1c-3-4.5-5.9-9.1-8.8-13.8L581,399.7z"/>
<path class="st0" d="M421.2,400.2c52.3-45.6,102.7-60.7,148.8-19.9c-3.2-5.8-6.3-11.7-9.4-17.5c-48.7-57.9-103.7-34.9-159.4,18.2
	c-56.5,53.9-106.6,113.4-164.5,166h37.1C325,498.9,371.3,443.7,421.2,400.2L421.2,400.2z"/>
<path class="st0" d="M401.2,381c55.7-53.1,110.7-76.1,159.4-18.2c-2.5-4.6-4.9-9.1-7.3-13.6c0,0-0.1-0.2-0.2-0.3
	c-53-85.4-116-41.3-172.8,20.1c-55.7,60.2-110.2,122.5-171,177.9h27.4C294.5,494.3,344.6,434.8,401.2,381L401.2,381z"/>
<path class="st0" d="M368.5,354.2c54.2-58.9,117.8-112.7,171.5-27.7c4.5,7.1,8.9,14.8,13.2,22.7c3.2,5.1,6.3,10.5,9.4,16.1
	c2.9,3.5,5.7,7.3,8.5,11.5c2.8,4,5.5,8.2,8.1,12.5c2.2,2.3,4.3,4.8,6.5,7.3c-20.9-28.5-37-63-56.6-89.6
	c-55.7-75.4-118.6-22.8-170.4,31.3c-54.4,56.7-108,114.6-165.6,168.1c-14,13-29.2,27.6-45.5,40.5h33.5c1.5-1.3,2.9-2.6,4.4-3.9
	c65.5-58.2,124-124.5,183.1-188.9L368.5,354.2z"/>
<path class="st0" d="M380.3,369.1c56.8-61.4,119.8-105.5,172.8-20.1c0,0,0.1,0.2,0.2,0.3c-4.3-7.9-8.7-15.6-13.2-22.7
	c-53.7-85-117.4-31.3-171.5,27.7C309.4,418.7,251,485,185.5,543.2c-1.4,1.3-2.9,2.6-4.4,3.9h28.3
	C270.2,491.8,324.7,429.4,380.3,369.1L380.3,369.1z"/>
<path class="st0" d="M587.4,411.5c-2.2-3.9-4.3-7.8-6.4-11.8c-3.8-6.4-7.5-12.9-11.1-19.4c-46.1-40.8-96.5-25.7-148.8,19.9
	c-49.9,43.5-96.2,98.7-147.4,146.8h35.9c44.8-42.3,86.8-88.6,133-125.4c64.3-51.2,107.7-42,144.7-10.2L587.4,411.5z"/>
<path class="st0" d="M602.8,437.2c-5.4-8.3-10.5-16.9-15.4-25.7c-37-31.9-80.3-41-144.7,10.2c-46.2,36.7-88.1,83.1-133,125.4h38.2
	c37.9-35,74.7-71.5,116.2-101.4c58.2-42.1,101.1-35.2,138.6-8.4L602.8,437.2z"/>
<path class="st0" d="M628,458.6c5.1,8,10.2,15.9,15.6,23.6c2.8,2,5.6,3.8,8.6,5.5c-5.2-6.8-10.3-13.6-15.4-20.3
	C633.9,464.4,631,461.4,628,458.6L628,458.6z"/>
<path class="st0" d="M657.9,490.8c-7-8.1-14.1-16-21.2-23.4c5.1,6.7,10.2,13.5,15.4,20.3C654,488.8,655.9,489.8,657.9,490.8z"/>
<path class="st0" d="M628,458.6c2.9,2.9,5.8,5.8,8.7,8.8c-3.6-4.8-7.3-9.5-10.9-14.1c-0.8-0.6-1.5-1.2-2.3-1.8
	C625,453.9,626.5,456.2,628,458.6z"/>
<path class="st0" d="M605.7,434.5c5.5,6.3,11.4,12,17.8,17c-1.1-1.8-2.3-3.6-3.4-5.3c-7.2-8.8-14.4-17.1-21.9-24.6
	C600.7,425.9,603.2,430.2,605.7,434.5L605.7,434.5z"/>
<path class="st0" d="M598.2,421.5c7.5,7.5,14.7,15.8,21.9,24.6c-8.4-13.2-16.8-26.3-25.7-38.4c-3-3.6-5.8-7.3-8.6-11.1
	c-2.2-2.6-4.3-5-6.5-7.3C585.7,399.5,591.9,410.4,598.2,421.5L598.2,421.5z"/>
<path class="st0" d="M625.8,453.3c-1.9-2.4-3.8-4.8-5.7-7.1c1.1,1.8,2.3,3.6,3.4,5.3C624.3,452.1,625,452.7,625.8,453.3L625.8,453.3
	z"/>
</svg>
