<?xml version="1.0" encoding="UTF-8"?><svg id="uuid-c2732969-4e5b-4975-803d-9f327c48f2af" xmlns="http://www.w3.org/2000/svg" viewBox="0 0 969.02 133.22"><defs><style>.uuid-510eb9bc-a8a1-4a40-9926-bc685b469f96{fill:#fff;}</style></defs><path d="M89.5,0H0v27h22v91h31V27h31.5c.81,0,7.57,2.5,8.87,3.13,17.82,8.55,18.43,47.64,1.16,56.91-1.24.66-7.18,2.97-8.03,2.97h-24.5v28h28.5c25.2,0,44.52-31.01,46.37-53.63C139.2,35.96,119.33,3.53,89.5,0Z"/><path class="uuid-510eb9bc-a8a1-4a40-9926-bc685b469f96" d="M89.5,0c29.83,3.53,49.7,35.96,47.37,64.37-1.85,22.62-21.17,53.63-46.37,53.63h-28.5v-28h24.5c.85,0,6.8-2.3,8.03-2.97,17.27-9.27,16.66-48.35-1.16-56.91-1.31-.63-8.06-3.13-8.87-3.13h-31.5v91h-31V27H0V0h89.5Z"/><path class="uuid-510eb9bc-a8a1-4a40-9926-bc685b469f96" d="M186.13,17.05h61.12v10.26h-25.66v75.12h-10.73V27.31h-24.73s0-10.26,0-10.26ZM265.92,39.91c21.46,0,27.99,7.93,27.99,32.66,0,22.86-6.53,30.79-27.99,30.79s-27.99-8.4-27.99-30.79c0-25.66,7-32.66,27.99-32.66ZM265.92,93.1c11.66,0,17.26-1.4,17.26-21,0-21-4.2-22.39-17.26-22.39-12.13,0-17.26,1.87-17.26,22.39s5.6,21,17.26,21ZM306.97,40.37h8.4l2.33,6.53c3.27-2.33,14.46-7.46,21.93-7.46,16.8,0,20.53,15.86,20.53,31.26,0,16.33-2.8,32.19-20.53,32.19-5.13,0-14.93-1.4-22.39-4.67v34.99h-10.73V40.37h.47ZM338.7,93.56c7,0,10.73-4.2,10.73-22.39,0-14.93-3.73-21.46-10.73-21.46-8.4,0-15.4,2.33-21,5.13v35.93c7,1.87,12.6,2.8,21,2.8ZM376.02,17.05h33.59c26.13,0,30.79,24.73,30.79,42.92,0,21-8.4,42.46-30.79,42.46h-33.59V17.05ZM409.15,91.7c14.46,0,20.06-14.46,20.06-32.19,0-24.26-7.46-32.66-20.06-32.66h-22.39v64.85h22.39ZM476.8,39.91c15.86,0,24.73,1.4,24.73,21.93,0,9.33-5.13,14.46-16.8,14.46h-24.26c0,13.53,3.27,16.33,12.13,16.33,10.73,0,19.13,0,27.99-1.4v7.93c-9.33,2.8-20.53,3.27-30.33,3.27-15.86,0-20.53-7.93-20.53-31.73-.47-27.06,7.46-30.79,27.06-30.79ZM483.8,67.43c4.67,0,7-1.87,7-5.6,0-11.2-1.87-12.13-13.53-12.13s-16.8,0-16.8,17.73c0,0,23.33,0,23.33,0ZM520.19,40.37l18.2,47.59,18.2-47.59h11.66l-24.73,62.05h-11.2l-23.79-62.05h11.66ZM602.31,39.91c15.86,0,24.73,1.4,24.73,21.93,0,9.33-5.13,14.46-16.8,14.46h-24.73c0,13.53,3.27,16.33,12.13,16.33,10.73,0,19.13,0,27.99-1.4v7.93c-9.33,2.8-20.53,3.27-30.33,3.27-15.86,0-20.53-7.93-20.53-31.73,0-27.06,7.93-30.79,27.53-30.79ZM609.3,67.43c4.67,0,7-1.87,7-5.6,0-11.2-1.87-12.13-13.53-12.13s-16.8,0-16.8,17.73c0,0,23.33,0,23.33,0ZM639.16,10.98h10.73v68.58c0,9.8,2.8,12.13,6.53,13.06,0,0,8.86,2.33,9.8,2.33v7.46h-11.2c-9.33,0-15.86-5.6-15.86-21.93V10.98h0ZM698.42,39.91c21.46,0,27.99,7.93,27.99,32.66,0,22.86-6.53,30.79-27.99,30.79s-27.99-8.4-27.99-30.79c0-25.66,7.46-32.66,27.99-32.66ZM698.42,93.1c11.66,0,17.26-1.4,17.26-21,0-21-4.2-22.39-17.26-22.39-12.13,0-17.26,1.87-17.26,22.39.47,19.6,6.07,21,17.26,21ZM739.94,40.37h8.4l2.33,6.53c3.27-2.33,14.46-7.46,21.93-7.46,16.8,0,20.53,15.86,20.53,31.26,0,16.33-2.8,32.19-20.53,32.19-5.13,0-14.93-1.4-22.39-4.67v34.99h-10.73V40.37h.47ZM771.2,93.56c7,0,10.73-4.2,10.73-22.39,0-14.93-3.73-21.46-10.73-21.46-8.4,0-15.4,2.33-21,5.13v35.93c7.46,1.87,13.06,2.8,21,2.8ZM831.85,39.91c15.86,0,24.73,1.4,24.73,21.93,0,9.33-5.13,14.46-16.8,14.46h-24.73c0,13.53,3.27,16.33,12.13,16.33,10.73,0,19.13,0,27.99-1.4v7.93c-9.33,2.8-20.53,3.27-30.33,3.27-15.86,0-20.53-7.93-20.53-31.73,0-27.06,7.93-30.79,27.53-30.79ZM838.85,67.43c4.67,0,7-1.87,7-5.6,0-11.2-1.87-12.13-13.53-12.13s-16.8,0-16.8,17.73c0,0,23.33,0,23.33,0ZM868.71,40.37h8.4l2.8,7.93c6.53-4.2,12.6-8.4,21.93-8.4,3.27,0,7,0,8.4.93v10.73c-1.4-.47-5.6-.47-8.86-.47-8.86,0-13.53,1.87-21.46,7v45.26h-10.73v-62.99h-.47ZM917.7,55.77c0-9.8,4.2-15.86,16.33-15.86,7.93,0,25.66.93,31.73,2.33v7.46h-30.33c-6.53,0-7,2.33-7,6.07v4.67c0,5.6,2.8,6.07,7,6.07h17.73c10.73,0,15.86,6.53,15.86,15.4v6.07c0,12.6-7.93,15.4-15.4,15.4s-28.93-1.4-33.13-2.33v-7.46h31.73c.47,0,6.07.47,6.07-5.6v-5.13c0-3.73-1.4-5.6-6.07-5.6h-17.73c-11.2,0-16.8-3.73-16.8-15.86v-5.6h0Z"/></svg>