<?xml version="1.0" encoding="UTF-8"?>
<svg id="Capa_1" xmlns="http://www.w3.org/2000/svg" version="1.1" viewBox="0 0 350 200">
  <!-- Generator: Adobe Illustrator 29.8.2, SVG Export Plug-In . SVG Version: 2.1.1 Build 3)  -->
  <defs>
    <style>
      .st0 {
        fill: none;
      }

      .st1 {
        fill: #fff;
      }
    </style>
  </defs>
  <g>
    <path class="st1" d="M129.3,87.8h-10l-.2-.2v-13.5l.2-.2h31.5v54.9l.6,8.7h6.7l.2.2v13.6h-24.6l-2.1-8.9c-.2,0-.2,0-.4.1-.9.6-2,2.1-2.9,2.9-8.7,7.7-19.2,9.3-30.4,7.3-14.1-2.6-19.5-11.4-20-25.2v-39.6h-10l-.2-.2v-13.5l.2-.2h31.4l.2.5v51.6c.4,3.4.9,7.5,4.6,8.9,3.1,1.1,9.3.5,12.5-.3s5.1-3,6.9-4.5c2-1.7,4-3.5,5.7-5.6v-36.7h0s0,0,0,0Z"/>
    <path class="st1" d="M65.4,137.5h7.5l.2.2v13.3l-.2.2h-24.8l-2.1-8.9c-2,2.3-4,4.3-6.5,6.1-8.4,5.8-19.7,6.7-28.8,2.2C.3,145.6-1.3,136.1.8,125.5c1.9-9.4,7.5-11.2,15.8-14.2,8.6-3.1,17.6-5.2,26.6-7.2,0-2.4,0-4.8,0-7.3-.2-4.5-.8-8.3-5.9-9.2-3.2-.6-11.9-.5-14.8.8s-2,4.6-2.1,6.7l-17.5,1.5c-.4-4.1,0-8.3,1-12.3s.6-3.1,2.2-4.4c4.8-4.1,14.1-6.6,20.3-7.4,14.9-2,36.5.9,38.5,19.3.2,12.8-.3,25.7.2,38.5,0,2.4,0,4.8.4,7.2h0s0,0,0,0ZM43.2,117.5c-5.2,1.2-10.4,2.6-15.5,4.4-1.2.4-4.4,1.5-5.3,2.1s-1.2,3.3-1.3,4.2c-.2,3.1,0,7.8,3.3,9.3,6,2.7,15.1-4.3,18.8-8.7v-11.3h0Z"/>
    <path class="st1" d="M347.3,77v18.2h-16v-6.1c-1.4-.5-3-.9-4.4-1.2-5.1-1-14.3-1.8-18,2.8-4.2,5.2,3.8,9,7.5,10.6,9.8,4.2,21.8,6.7,29.1,15.1,7.2,8.3,5.6,21-2.2,28.3-12.9,12-37.1,9.5-52.8,5.7-1.3-.3-2.6-.7-4-1v-20h16v7.2c1.3.6,3,.8,4.4,1.1,5.6.9,17.2,1.9,20.5-4,3.5-6.2-5.5-9.6-9.8-11.3-11.7-4.6-27.7-8.4-30.8-22.8-3.5-16.1,8.6-24.7,22.9-26.8,12.8-2,25.6.4,37.7,4.4h0Z"/>
    <polygon class="st1" points="273.3 137.5 283.5 137.6 283.5 151.3 241.6 151.3 241.6 137.5 251.7 137.5 251.7 87.8 241.6 87.8 241.6 73.9 273.1 73.9 273.3 74.2 273.3 137.5"/>
    <path class="st1" d="M200.2,127.4c-.3,0-.3.2-.4.4-2.3,3.6-4.9,7.1-7.3,10.6v12.6l-.2.2h-29.7l-.2-.2v-13.3l.2-.2h8.9l17.6-25.5c.3,0,.4.2.5.4,3.2,4.2,6.5,8.6,9.5,12.9.2.3.9,1.2,1,1.5s0,.4,0,.6h0Z"/>
    <polygon class="st1" points="211.5 112 229.1 137.5 237.9 137.5 238.2 137.7 238.2 151 237.9 151.3 208.3 151.3 208.1 151 208.1 138.4 200.4 127.4 211.5 112"/>
    <path class="st1" d="M189.1,111.7l-15.1-23.9h-9.2v-13.9h29.8v11.9l5.6,8.5c0,0,0,.2,0,.3-3.2,5-6.5,10.1-9.8,15.1-.5.8-.7,1.3-1.4,2h0Z"/>
    <path class="st1" d="M200.2,94.4c1.8-2.8,4-5.6,5.8-8.5v-11.9h29.8v13.9h-9.2l-15.1,23.9-1.1-1.5-9.3-14.6c-.2-.3-.5-1-.9-1,0,0,0-.2,0-.3h0Z"/>
    <path class="st1" d="M261,46.6c10.3-1.1,17.4,9.5,12.1,18.6-4.5,7.7-15.3,8.2-20.7,1.2-6.1-7.8-1-18.8,8.6-19.8Z"/>
  </g>
  <rect class="st0" width="350" height="200"/>
</svg>