<?xml version="1.0" encoding="UTF-8"?><svg id="uuid-7a7b900b-ed96-4551-8a94-5e9a8d56ad05" xmlns="http://www.w3.org/2000/svg" viewBox="0 0 1496.05 623.93"><defs><style>.uuid-e396f071-795d-44e8-aea5-c8cedf9d3fb9{fill:#8c98a0;}</style></defs><g id="uuid-abc0f667-b5e3-46a8-9f6e-d36a58d8c02b"><path class="uuid-e396f071-795d-44e8-aea5-c8cedf9d3fb9" d="M1201.34,623.7c-5.21-.41-17.11-2.2-22.51-3.66-2.22-.6-4.39-1.16-5.91-3.06v-82.88c25.52,2.7,59.82,13.45,77.53-11.46,5.88-8.27,8.27-18.5,11.88-27.86l-143.28-351.95h101.73l90.51,232.98,83.23-232.78,101.53-.2v1.49l-146.99,381.19c-16.22,44.16-38.98,79.83-86.95,92.41l-32.36,5.78c-9.28-.52-19.25.72-28.42,0Z"/><path class="uuid-e396f071-795d-44e8-aea5-c8cedf9d3fb9" d="M267.81,184.64v-41.82h98.74v230.73c0,1.83,3.49,12.58,4.71,14.71,8.05,14.03,23.83,9.73,37.18,8.44v81.39c-8.37,4.56-22.37,6.22-32.1,6.78-31.18,1.79-67.22-3.24-87.54-29.22-4-5.11-5.62-10.04-8.69-15.23-.51-.86-.23-3.05-2.55-1.9-1.19.59-14.21,16.31-17.93,19.45-43.76,36.89-126.57,34.08-174.78,7.14-114.28-63.86-112.76-246.56,2.44-309.1,44.93-24.39,126.83-29.63,165.62,8.41,5.94,5.82,9.05,14.38,14.9,20.22ZM173.23,226.87c-109.34,12.46-92.55,185.69,27.85,166.69,109.21-17.24,87.81-179.87-27.85-166.69Z"/><path class="uuid-e396f071-795d-44e8-aea5-c8cedf9d3fb9" d="M1081.65,142.83v89.6h-74.8v124.7c0,3.77,2.71,15.66,4.21,19.69,9.49,25.44,43.08,21.4,64.61,18.39v88.11c-50.56,9.22-117.42,8.49-147.24-40.44-11.08-18.18-15.02-37.91-17.31-58.89l-.02-151.56h-44.88v-89.6h215.43Z"/><path class="uuid-e396f071-795d-44e8-aea5-c8cedf9d3fb9" d="M673.24,136.86v94.08c-4.04-1.4-8.46-2.59-12.74-2.96-41.8-3.59-86.29,4.32-103.59,47.37-1.46,3.62-6.34,17.7-6.34,20.55v182.94h-100.23V142.83h100.23v43.31l10.52-15.64c27.35-32.58,71.7-39.37,112.16-33.65Z"/><path class="uuid-e396f071-795d-44e8-aea5-c8cedf9d3fb9" d="M821.35,142.83v229.24c0,1.37,2.93,10.64,3.77,12.67,5.29,12.83,18.71,12.74,30.64,10.48v85.12c-47.78,9.73-108.4,8.51-127.22-45.49-1.5-4.32-5.93-20.31-5.93-23.95V142.83h98.74Z"/><path class="uuid-e396f071-795d-44e8-aea5-c8cedf9d3fb9" d="M952.66,1.38c80.53-9.29,86.83,120.48-1.9,111.57-62.45-6.27-65.2-103.83,1.9-111.57Z"/><path class="uuid-e396f071-795d-44e8-aea5-c8cedf9d3fb9" d="M811.84,97.5c-53.43,52.53-134.09-28.68-80.31-80.92,53.28-51.76,132.52,29.59,80.31,80.92Z"/></g></svg>