<?xml version="1.0" encoding="utf-8"?>
<!-- Generator: Adobe Illustrator 24.0.1, SVG Export Plug-In . SVG Version: 6.00 Build 0)  -->
<svg version="1.1" id="uuid-c2732969-4e5b-4975-803d-9f327c48f2af"
	 xmlns="http://www.w3.org/2000/svg" xmlns:xlink="http://www.w3.org/1999/xlink" x="0px" y="0px" viewBox="0 0 969.1 118.3"
	 style="enable-background:new 0 0 969.1 118.3;" xml:space="preserve">
<style type="text/css">
	.st0{fill:#FFFFFF;}
</style>
<path d="M89.6,0H0.1v27h22v91h31V27h31.5c0.8,0,7.6,2.5,8.9,3.1c17.8,8.5,18.4,47.6,1.2,56.9c-1.2,0.7-7.2,3-8,3H62.1v28h28.5
	c25.2,0,44.5-31,46.4-53.6C139.3,36,119.4,3.5,89.6,0z"/>
<path class="st0" d="M89.6,0c29.8,3.5,49.7,36,47.4,64.4C135.1,87,115.8,118,90.6,118H62.1V90h24.5c0.8,0,6.8-2.3,8-3
	c17.3-9.3,16.7-48.3-1.2-56.9c-1.3-0.6-8.1-3.1-8.9-3.1H53.1v91h-31V27h-22V0H89.6z"/>
<path class="st0" d="M186.2,17h61.1v10.3h-25.7v75.1h-10.7V27.3h-24.7L186.2,17L186.2,17z M266,39.9c21.5,0,28,7.9,28,32.7
	c0,22.9-6.5,30.8-28,30.8s-28-8.4-28-30.8C238,46.9,245,39.9,266,39.9z M266,93.1c11.7,0,17.3-1.4,17.3-21c0-21-4.2-22.4-17.3-22.4
	c-12.1,0-17.3,1.9-17.3,22.4S254.4,93.1,266,93.1z M307.1,40.4h8.4l2.3,6.5c3.3-2.3,14.5-7.5,21.9-7.5c16.8,0,20.5,15.9,20.5,31.3
	c0,16.3-2.8,32.2-20.5,32.2c-5.1,0-14.9-1.4-22.4-4.7v35h-10.7V40.4H307.1L307.1,40.4z M338.8,93.6c7,0,10.7-4.2,10.7-22.4
	c0-14.9-3.7-21.5-10.7-21.5c-8.4,0-15.4,2.3-21,5.1v35.9C324.8,92.6,330.4,93.6,338.8,93.6L338.8,93.6z M376.1,17h33.6
	c26.1,0,30.8,24.7,30.8,42.9c0,21-8.4,42.5-30.8,42.5h-33.6V17z M409.2,91.7c14.5,0,20.1-14.5,20.1-32.2c0-24.3-7.5-32.7-20.1-32.7
	h-22.4v64.8L409.2,91.7L409.2,91.7z M476.9,39.9c15.9,0,24.7,1.4,24.7,21.9c0,9.3-5.1,14.5-16.8,14.5h-24.3
	c0,13.5,3.3,16.3,12.1,16.3c10.7,0,19.1,0,28-1.4v7.9c-9.3,2.8-20.5,3.3-30.3,3.3c-15.9,0-20.5-7.9-20.5-31.7
	C449.4,43.6,457.3,39.9,476.9,39.9L476.9,39.9z M483.9,67.4c4.7,0,7-1.9,7-5.6c0-11.2-1.9-12.1-13.5-12.1s-16.8,0-16.8,17.7
	C460.6,67.4,483.9,67.4,483.9,67.4z M520.3,40.4L538.5,88l18.2-47.6h11.7l-24.7,62h-11.2l-23.8-62H520.3z M602.4,39.9
	c15.9,0,24.7,1.4,24.7,21.9c0,9.3-5.1,14.5-16.8,14.5h-24.7c0,13.5,3.3,16.3,12.1,16.3c10.7,0,19.1,0,28-1.4v7.9
	c-9.3,2.8-20.5,3.3-30.3,3.3c-15.9,0-20.5-7.9-20.5-31.7C574.9,43.6,582.8,39.9,602.4,39.9L602.4,39.9z M609.4,67.4
	c4.7,0,7-1.9,7-5.6c0-11.2-1.9-12.1-13.5-12.1s-16.8,0-16.8,17.7C586.1,67.4,609.4,67.4,609.4,67.4z M639.3,11H650v68.6
	c0,9.8,2.8,12.1,6.5,13.1c0,0,8.9,2.3,9.8,2.3v7.5h-11.2c-9.3,0-15.9-5.6-15.9-21.9V11H639.3z M698.5,39.9c21.5,0,28,7.9,28,32.7
	c0,22.9-6.5,30.8-28,30.8s-28-8.4-28-30.8C670.5,46.9,678,39.9,698.5,39.9z M698.5,93.1c11.7,0,17.3-1.4,17.3-21
	c0-21-4.2-22.4-17.3-22.4c-12.1,0-17.3,1.9-17.3,22.4C681.7,91.7,687.3,93.1,698.5,93.1z M740,40.4h8.4l2.3,6.5
	c3.3-2.3,14.5-7.5,21.9-7.5c16.8,0,20.5,15.9,20.5,31.3c0,16.3-2.8,32.2-20.5,32.2c-5.1,0-14.9-1.4-22.4-4.7v35h-10.7V40.4H740
	L740,40.4z M771.3,93.6c7,0,10.7-4.2,10.7-22.4c0-14.9-3.7-21.5-10.7-21.5c-8.4,0-15.4,2.3-21,5.1v35.9
	C757.8,92.6,763.4,93.6,771.3,93.6L771.3,93.6z M831.9,39.9c15.9,0,24.7,1.4,24.7,21.9c0,9.3-5.1,14.5-16.8,14.5h-24.7
	c0,13.5,3.3,16.3,12.1,16.3c10.7,0,19.1,0,28-1.4v7.9c-9.3,2.8-20.5,3.3-30.3,3.3c-15.9,0-20.5-7.9-20.5-31.7
	C804.4,43.6,812.3,39.9,831.9,39.9L831.9,39.9z M838.9,67.4c4.7,0,7-1.9,7-5.6c0-11.2-1.9-12.1-13.5-12.1s-16.8,0-16.8,17.7
	C815.6,67.4,838.9,67.4,838.9,67.4z M868.8,40.4h8.4l2.8,7.9c6.5-4.2,12.6-8.4,21.9-8.4c3.3,0,7,0,8.4,0.9v10.7
	c-1.4-0.5-5.6-0.5-8.9-0.5c-8.9,0-13.5,1.9-21.5,7v45.3h-10.7v-63L868.8,40.4L868.8,40.4z M917.8,55.8c0-9.8,4.2-15.9,16.3-15.9
	c7.9,0,25.7,0.9,31.7,2.3v7.5h-30.3c-6.5,0-7,2.3-7,6.1v4.7c0,5.6,2.8,6.1,7,6.1h17.7c10.7,0,15.9,6.5,15.9,15.4v6
	c0,12.6-7.9,15.4-15.4,15.4s-28.9-1.4-33.1-2.3v-7.5h31.7c0.5,0,6.1,0.5,6.1-5.6v-5.1c0-3.7-1.4-5.6-6.1-5.6h-17.7
	c-11.2,0-16.8-3.7-16.8-15.9L917.8,55.8L917.8,55.8L917.8,55.8z"/>
</svg>
