<?xml version="1.0" encoding="UTF-8"?>
<svg xmlns="http://www.w3.org/2000/svg" xmlns:svg="http://www.w3.org/2000/svg" xmlns:sodipodi="http://sodipodi.sourceforge.net/DTD/sodipodi-0.dtd" xmlns:rdf="http://www.w3.org/1999/02/22-rdf-syntax-ns#" xmlns:inkscape="http://www.inkscape.org/namespaces/inkscape" xmlns:dc="http://purl.org/dc/elements/1.1/" xmlns:cc="http://creativecommons.org/ns#" version="1.1" viewBox="0 0 1000 416.6">
  <!-- Generator: Adobe Illustrator 29.6.1, SVG Export Plug-In . SVG Version: 2.1.1 Build 9)  -->
  <defs>
    <style>
      .st0 {
        fill: #fff;
      }
    </style>
  </defs>
  <g id="svg1379" inkscape:version="0.92.4 (5da689c313, 2019-01-14)" sodipodi:docname="A.svg">
    <sodipodi:namedview id="namedview1381" bordercolor="#666666" borderopacity="1" fit-margin-bottom="0" fit-margin-left="0" fit-margin-right="0" fit-margin-top="0" gridtolerance="10" guidetolerance="10" inkscape:current-layer="g7437" inkscape:cx="1096.3926" inkscape:cy="-399.78899" inkscape:pageopacity="0" inkscape:pageshadow="2" inkscape:window-height="1017" inkscape:window-maximized="1" inkscape:window-width="1920" inkscape:window-x="1912" inkscape:window-y="-8" inkscape:zoom="0.206875" objecttolerance="10" pagecolor="#ffffff" showgrid="false"/>
    <g id="g1377">
      <g id="g7435" inkscape:label="ink_ext_XXXXXX">
        <g id="g7437">
          <path id="path7439" class="st0" d="M932.1,94.7l-55.3,156.3-61.2-156.3h-67.9l96,235.7-3.6,9.8c-2.7,6.8-4.9,11.2-9.3,14.3-4.5,3.1-10.7,4.9-19.2,4.9s-20.1-1.3-27.2-3.6v57.6c9.4,2.2,19.2,3.1,29.5,3.1,25.4,0,45.5-6.7,60.3-19.6,9.8-8.5,18.3-22.3,25.9-41.5l100-260.7h-67.9ZM641.3,75.5c21,0,37.9-16.5,37.9-37.5S662.3,0,641.3,0s-38,16.5-38,38,17,37.5,38,37.5ZM579.3,154.9h29.5v90.2c0,53.6,25.9,80.4,77.7,80.4s23.7-.9,32.6-3.1v-58.9c-7.6,1.3-13.4,1.8-17,1.8-20.1,0-28.6-8.5-28.6-29.9v-80.4h50v-60.3h-144.2v60.3ZM549.1,240.7V94.7h-66.5v165.6c0,42.4,19.6,63.4,58.9,63.4s25-1.3,30.8-3.6v-56.7c-1.3.4-4,.9-8,.9-11.2,0-15.2-7.1-15.2-23.7h0ZM515.6,75.5c21,0,38-16.5,38-37.5S536.6,0,515.6,0s-37.9,16.5-37.9,38,17,37.5,37.9,37.5h0ZM367.7,125.5v-30.8h-66.5v225h66.5v-109.8c0-37.1,22.3-58.5,60.3-58.5s15.6.9,22.3,2.2v-62.5c-7.1-.9-12.9-1.3-17.4-1.3-30.8,0-54.9,12.9-65.2,35.7h0ZM165.2,247.4c-11.2,10.7-25,16.1-41.5,16.1s-29.5-5.4-40.6-16.1c-11.2-11.2-16.5-24.6-16.5-40.2s5.4-29,16.5-39.7c11.2-11.2,24.6-16.5,40.6-16.5s30.4,5.4,41.5,16.5c11.6,10.7,17.4,24.1,17.4,39.7s-5.8,29-17.4,40.2ZM245.1,240.7V94.7h-66.5v29.5c-6.7-19.6-33-33.5-67-33.5s-58.5,11.2-79.9,33.9C10.7,146.9,0,174.6,0,207.2s10.7,60.7,31.7,83.5c21.4,22.3,48.2,33.5,79.9,33.5s59.8-10.7,74.6-32.6c3.1,9.4,9.8,17.4,20.1,24.1,9.4,5.4,21.9,8,36.6,8s22.8-1.3,29.9-3.6v-55.4c-4,.4-8,.9-11.2.9-12.1,0-16.5-7.1-16.5-25" inkscape:connector-curvature="0"/>
        </g>
      </g>
    </g>
  </g>
</svg>