<?xml version="1.0" encoding="UTF-8"?>
<svg id="Capa_1" xmlns="http://www.w3.org/2000/svg" version="1.1" viewBox="0 0 350 200">
  <!-- Generator: Adobe Illustrator 29.8.2, SVG Export Plug-In . SVG Version: 2.1.1 Build 3)  -->
  <defs>
    <style>
      .st0 {
        fill: none;
      }

      .st1 {
        fill: #fff;
      }
    </style>
  </defs>
  <g>
    <path class="st1" d="M148.7,93h-5.9v-7.9h.1c0-.1,18.2-.1,18.2-.1v31.7l.3,5h4v8h-14.2l-1.2-5.1q-.1,0-.2,0c-.5.3-1.2,1.2-1.7,1.7-5,4.4-11.1,5.4-17.5,4.2-8.1-1.5-11.2-6.6-11.5-14.5v-22.8h-5.9v-7.9h.1c0-.1,18.1-.1,18.1-.1v.3c.1,0,.1,29.8.1,29.8.2,2,.5,4.3,2.7,5.1,1.8.6,5.4.3,7.2-.2s2.9-1.7,4-2.6c1.2-1,2.3-2,3.3-3.2v-21.2h0Z"/>
    <path class="st1" d="M111.8,121.6h4.4v7.8h-.1c0,.1-14.3.1-14.3.1l-1.2-5.1c-1.2,1.3-2.3,2.5-3.7,3.5-4.8,3.3-11.4,3.9-16.6,1.3-6-2.9-6.9-8.4-5.7-14.5,1.1-5.4,4.3-6.5,9.1-8.2,5-1.8,10.1-3,15.3-4.2v-4.2c-.1-2.6-.5-4.8-3.4-5.3-1.8-.3-6.9-.3-8.5.5s-1.2,2.7-1.2,3.9l-10.1.9c-.2-2.4,0-4.8.6-7.1s.3-1.8,1.3-2.5c2.8-2.4,8.1-3.8,11.7-4.3,8.6-1.2,21,.5,22.2,11.1.1,7.4-.2,14.8.1,22.2,0,1.4,0,2.8.2,4.2h0ZM99,110.1c-3,.7-6,1.5-8.9,2.5-.7.2-2.5.9-3.1,1.2s-.7,1.9-.7,2.4c-.1,1.8,0,4.5,1.9,5.4,3.5,1.6,8.7-2.5,10.8-5v-6.5h0Z"/>
    <path class="st1" d="M274.4,86.7v10.5h-9.2v-3.5c-.8-.3-1.7-.5-2.5-.7-2.9-.6-8.2-1-10.4,1.6-2.4,3,2.2,5.2,4.3,6.1,5.7,2.4,12.6,3.9,16.8,8.7,4.2,4.8,3.2,12.1-1.3,16.3-7.4,6.9-21.4,5.5-30.4,3.3-.7-.2-1.5-.4-2.3-.6v-11.5h9.2v4.2c.7.3,1.7.5,2.5.6,3.2.5,9.9,1.1,11.8-2.3,2-3.6-3.2-5.5-5.7-6.5-6.7-2.7-16-4.8-17.8-13.1-2-9.3,5-14.2,13.2-15.5,7.4-1.2,14.8.2,21.7,2.5h0Z"/>
    <polygon class="st1" points="231.7 121.6 237.6 121.7 237.6 129.6 213.4 129.6 213.4 121.6 219.3 121.6 219.3 93 213.4 93 213.4 85 231.6 85 231.7 85.1 231.7 121.6"/>
    <path class="st1" d="M189.6,115.8c-.2,0-.2.1-.2.2-1.3,2.1-2.8,4.1-4.2,6.1v7.3h-.1c0,.1-17.1.1-17.1.1h-.1v-7.8h.1c0-.1,5.1-.1,5.1-.1l10.1-14.7c.2,0,.2.1.3.2,1.8,2.4,3.7,5,5.5,7.4.1.2.5.7.6.9s0,.2,0,.3h0Z"/>
    <polygon class="st1" points="196.1 106.9 206.2 121.6 211.3 121.6 211.5 121.8 211.5 129.4 211.3 129.6 194.2 129.6 194.1 129.4 194.1 122.2 189.7 115.8 196.1 106.9"/>
    <path class="st1" d="M183.2,106.8l-8.7-13.8h-5.3v-8h17.2v6.9l3.2,4.9v.2c-1.8,2.9-3.7,5.8-5.7,8.7-.3.5-.4.7-.8,1.2h0Z"/>
    <path class="st1" d="M189.6,96.8c1-1.6,2.3-3.2,3.3-4.9v-6.9h17.2v8h-5.3l-8.7,13.8-.6-.9-5.4-8.4c-.1-.2-.3-.6-.5-.6v-.2h0Z"/>
    <path class="st1" d="M224.6,69.2c5.9-.6,10,5.5,7,10.7-2.6,4.4-8.8,4.7-11.9.7-3.5-4.5-.6-10.8,5-11.4Z"/>
  </g>
  <rect class="st0" width="350" height="200"/>
</svg>