<?xml version="1.0" encoding="UTF-8"?><svg id="uuid-9227e300-b6bb-4751-9f75-a4f1b2341f9f" xmlns="http://www.w3.org/2000/svg" viewBox="0 0 350 200"><defs><style>.uuid-7d2f3fe9-bec0-4066-bbc2-7bfa459d33b7{fill:none;}.uuid-d5fba9cf-5ff5-426f-b495-a18790356f25{fill:#fff;}</style></defs><path class="uuid-d5fba9cf-5ff5-426f-b495-a18790356f25" d="M186.48,94.31c0-1.41.07-2.83.18-4.21-1.26,4.53-1.05,9.47.83,14.05-.67-3.2-1.02-6.49-1.02-9.84ZM182.52,94.36c-.08,0-.15.02-.23.02,0,2.68.22,5.34.62,7.96.13,0,.28,0,.42-.02-.7-2.63-.95-5.31-.8-7.96ZM186.48,94.31c0-1.41.07-2.83.18-4.21-1.26,4.53-1.05,9.47.83,14.05-.67-3.2-1.02-6.49-1.02-9.84ZM182.52,94.36c-.08,0-.15.02-.23.02,0,2.68.22,5.34.62,7.96.13,0,.28,0,.42-.02-.7-2.63-.95-5.31-.8-7.96ZM261.92,83.59h-4.03l-4.48-10.24c-.72-1.63-1.93-4.39-5.06-4.39h-33.93c-2.46,0-4.34,1.71-5.16,4.69l-2.71,9.94h-1.12c-5.13,0-9.3,4.18-9.3,9.3v11.32c0,3.49,2.85,6.32,6.34,6.32h2.01c.97,4.49,4.96,7.87,9.74,7.87.53,0,1.07-.05,1.58-.13,2.73-.43,5.08-1.96,6.57-4.14.75-1.07,1.3-2.28,1.58-3.59h23.15c.95,4.49,4.94,7.87,9.72,7.87s8.77-3.38,9.74-7.87h3.68c3.49,0,6.32-2.83,6.32-6.32v-5.97c0-8.07-6.57-14.65-14.65-14.65ZM225.43,73.16h22.93c.33,0,.7.68,1.23,1.88l3.73,8.55h-31.77l.83-2.25,3.05-8.19ZM213.31,74.75c.12-.48.5-1.6,1.12-1.6h7.19l-3.88,10.43h-6.86l2.43-8.84ZM215.82,113.98c-.52.15-1.05.23-1.6.23-3.18,0-5.76-2.58-5.77-5.76v-.02c.02-3.18,2.6-5.76,5.77-5.76.57,0,1.1.08,1.61.23,2.4.7,4.16,2.91,4.16,5.54s-1.76,4.84-4.18,5.53ZM223.46,104.73c-.28-.72-.65-1.38-1.08-2-1.51-2.13-3.84-3.66-6.52-4.11-.53-.08-1.08-.13-1.63-.13-4.78,0-8.77,3.38-9.72,7.87h-2.03c-1.2,0-2.15-.97-2.15-2.15v-11.32c0-2.83,2.3-5.13,5.11-5.13h24.31l-6.29,16.96ZM256.83,114.21c-3.18,0-5.76-2.58-5.76-5.76v-.02c0-3.18,2.58-5.76,5.76-5.76s5.77,2.58,5.77,5.77-2.6,5.76-5.77,5.76ZM272.39,104.21c0,1.18-.97,2.15-2.15,2.15h-3.68c-.97-4.49-4.96-7.87-9.74-7.87s-8.75,3.38-9.72,7.87h-19.79l6.89-18.59h27.71c5.77,0,10.47,4.71,10.47,10.47v5.97ZM251.07,92.56c0,1.16-.66,2.09-1.46,2.09h-2.43c-.81,0-1.46-.94-1.46-2.09s.66-2.09,1.46-2.09h2.43c.81,0,1.46.94,1.46,2.09ZM234.7,41.92c-4.24,0-8.37.5-12.32,1.46v-18.97c-.02-5.87-4.78-10.63-10.65-10.63h-73.44c-5.89,0-10.65,4.76-10.65,10.63v151.18c0,5.48,4.14,9.97,9.47,10.57-.03.02-.05.03-.08.07h75.96s-.05-.05-.07-.07c5.31-.6,9.45-5.09,9.47-10.57v-30.34c4.03,1,8.02,1.46,12.32,1.46,28.89,0,52.39-23.52,52.39-52.41s-23.5-52.39-52.39-52.39ZM215.99,175.59c-.02,2.35-1.91,4.24-4.26,4.24h-7.76c-3.88-1.81-8.15-2.8-12.53-2.8h-32.89c-4.38,0-8.64.98-12.53,2.8h-7.74c-2.35,0-4.26-1.9-4.26-4.24V24.41c0-2.35,1.91-4.24,4.26-4.24h31.97v4.09c0,2.61,2.13,4.74,4.74,4.74s4.74-2.13,4.74-4.74v-4.09h31.99c2.35,0,4.24,1.9,4.26,4.24v20.97c-8.6,3.3-16.13,8.79-21.87,15.81-4.01-1.58-6.56-2.21-16.38-2.21s-13.41,1.03-21.1,4.06c-5.34,2.13-8.27,5.03-8.29,8.29v45.68c.05,7.57,15.18,11.67,29.37,11.67,5.76,0,11.23-.62,15.93-1.76,1.61,2.03,3.38,3.94,5.31,5.72l-26.96,21.72c-.78.63-1,1.73-.53,2.61.37.7,1.1,1.12,1.85,1.12.2,0,.4-.03.6-.08l42.01-12.56.07,13.4v16.76ZM191.48,123.93c-3.84.83-8.49,1.35-13.73,1.35-16.08,0-25.98-4.83-26.01-8.29v-5.71c5.28,3.94,15.86,6.01,26.01,6.01,3.28,0,6.51-.2,9.57-.6,1.16,2.51,2.56,4.94,4.16,7.24ZM177.75,91.11c-16.11,0-26.01-4.84-26.01-8.32v-5.76c5.28,3.93,15.86,6.01,26.01,6.01,1.98,0,3.93-.08,5.82-.22-.62,2.65-1,5.36-1.16,8.14-1.53.1-3.1.15-4.66.15ZM177.75,94.51c1.51,0,3.06-.05,4.54-.13.08,0,.15-.02.23-.02-.15,2.65.1,5.33.8,7.96-.13.02-.28.02-.42.02-1.71.13-3.41.18-5.16.18-16.11,0-26.01-4.84-26.01-8.3v-5.72c5.28,3.94,15.86,6.02,26.01,6.02ZM185.9,113.45c-2.61.32-5.36.47-8.15.47-16.11,0-26-4.84-26-8.32v-5.71c5.26,3.94,15.86,6.01,26,6.01,1.95,0,3.89-.07,5.79-.22.58,2.66,1.36,5.26,2.36,7.77ZM177.75,79.66c-16.11,0-26.01-4.84-26.01-8.3l.02-.02c0-1.8,2.53-3.81,6.67-5.36,4.94-1.75,11.33-3.66,19.31-3.66,6.01,0,9.49.32,14.16,1.78-3.25,4.59-5.77,9.74-7.42,15.24-2.18.22-4.43.32-6.72.32ZM234.7,142.52c-4.36,0-8.25-.5-12.32-1.6-.78-.2-1.58-.43-2.38-.68-.4-.13-.83-.13-1.23-.02l-2.86.85-32.99,9.87,20.59-16.59c.48-.4.78-.98.78-1.61s-.27-1.21-.75-1.61c-2-1.7-3.86-3.54-5.54-5.53-.77-.92-1.51-1.85-2.2-2.81-1.6-2.16-3-4.43-4.18-6.81-1.88-3.73-3.28-7.71-4.13-11.83-1.88-4.58-2.1-9.52-.83-14.05.33-3.93,1.15-7.72,2.4-11.33,1.61-4.76,3.98-9.2,6.92-13.18.72-.95,1.46-1.88,2.23-2.78,4.83-5.56,10.88-10.02,17.76-12.93,2.06-.87,4.21-1.6,6.41-2.18,3.93-1.05,8.05-1.6,12.32-1.6,26.58,0,48.21,21.64,48.21,48.21s-21.64,48.21-48.21,48.21Z"/><rect class="uuid-7d2f3fe9-bec0-4066-bbc2-7bfa459d33b7" width="350" height="200"/></svg>