<?xml version="1.0" encoding="UTF-8"?><svg id="uuid-6bd68244-8491-43ea-baa4-9b4604bc9d2a" xmlns="http://www.w3.org/2000/svg" viewBox="0 0 202.01 103.62"><defs><style>.uuid-430c1926-13b4-4657-aa21-b3a7939592de{fill:none;}.uuid-d26e906f-fe1b-4595-9eb5-d1f70ab735b8{fill:#fff;}</style></defs><path class="uuid-d26e906f-fe1b-4595-9eb5-d1f70ab735b8" d="M140.16,26.58c-.06-.93-.77-1.68-1.7-1.79-6.11-.69-16.16-5.26-19.69-6.94V6.39c0-3.53-2.87-6.39-6.4-6.39h-44.13c-3.53,0-6.39,2.86-6.4,6.39v90.84c0,3.29,2.49,5.99,5.69,6.35-.01.01-.03.03-.04.04h45.64s-.03-.03-.04-.04c3.2-.35,5.68-3.06,5.69-6.35v-34.03c22.74-10,21.4-36.35,21.39-36.62ZM114.93,90.99v6.24c0,1.41-1.15,2.55-2.56,2.55h-4.65c-2.34-1.08-4.9-1.68-7.53-1.68h-19.77c-2.63,0-5.19.6-7.53,1.68h-4.65c-1.41,0-2.55-1.14-2.56-2.55V6.39c0-1.41,1.15-2.55,2.56-2.55h19.22v2.46c0,1.57,1.27,2.85,2.85,2.85s2.85-1.27,2.85-2.85v-2.46h19.22c1.41,0,2.55,1.14,2.56,2.55v11.37l-1.46.68h-.08l-.89.41-.12.05-1,.44-.12.05-1.1.48h-.1c-.78.34-1.62.69-2.48,1h-.11l-1.25.5-.19.08-1.26.48-.2.07-1.29.47-.16.05-1.35.46-1.32.42h-.16l-1.28.53-.21.06-1.17.29h-.2l-1.14.23h-.14c-.39.07-.76.12-1.12.16-.93.11-1.64.86-1.7,1.79v4.48c0,.17,0,.36.05.54s0,.34.05.51c.05.17,0,.39.07.59.07.2,0,.36.07.55s.06.42.09.64c.03.22.05.38.09.58.04.2.08.45.12.67.04.22.07.4.11.61.04.21.09.47.14.71s.08.42.13.64c.05.22.11.49.17.74s.1.44.16.66c.06.22.13.5.2.76.07.26.12.46.19.69.07.23.15.51.23.77s.14.47.22.7c.08.23.18.53.27.79.09.26.16.48.25.72.09.24.2.53.31.8s.19.48.29.73c.1.25.23.54.35.8l.32.73c.12.27.26.54.39.8s.24.49.37.74.28.53.43.8l.41.74c.15.26.31.53.47.79l.46.74c.17.26.34.51.52.77l.51.74c.18.25.38.5.57.75l.57.73.62.73.62.71.67.71.68.69.73.68.75.67.78.65.81.64.84.61.88.61.9.57,1,.57,1,.53,1,.53,1,.48.63.29.11,24.02v3.83ZM116.78,59.93l-.77-.34-.77-.35-.84-.42-.72-.37-.79-.45-.68-.4-.73-.48-.64-.43-.69-.5-.6-.45-.65-.53-.56-.47-.6-.54-.53-.49-.55-.56-.5-.51-.51-.57-.46-.53-.42-.61-.44-.54-.43-.58-.4-.56-.39-.59-.38-.57-.35-.58-.37-.58-.32-.58-.32-.6-.28-.57-.3-.61-.25-.56-.28-.62-.22-.54-.26-.64-.19-.51c-.08-.22-.16-.44-.24-.65l-.16-.5c-.07-.22-.15-.43-.21-.65l-.14-.49c-.06-.21-.13-.43-.19-.64l-.12-.47c-.06-.21-.11-.43-.17-.64l-.1-.43c-.05-.22-.1-.43-.15-.65l-.08-.4c0-.22-.09-.43-.13-.64l-.07-.37c0-.21-.08-.43-.11-.64v-.31c0-.22-.07-.45-.1-.66v-.23c0-.23-.06-.47-.09-.69v-.19c0-.23-.05-.46-.07-.68v-.14c0-.22,0-.45-.06-.66v-.11c0-.48-.06-.93-.08-1.33v-1.18c.44-.08.89-.18,1.34-.28l.35-.14.9-.22h.07l.46-.13h.07l.82-.23h.1l.55-.17.8-.25h.14l.54-.18.78-.26.17-.06.53-.19.75-.27.21-.08.5-.19.74-.28.23-.09.47-.19.7-.28.25-.1.43-.18.68-.28.27-.11.39-.17.64-.27.28-.12.35-.15.61-.27.27-.12.31-.14.56-.25h.06l.2-.09.27-.12.5-.23.2-.09h.06l.23-.11.42-.2.44-.21.35-.17.39-.18h.06c3.26,1.57,12.7,5.93,19.59,7.21-.06,5.34-1.63,23.82-19.57,31.42ZM112.72,34.1c0,.42.06.83.17,1.22-.06.01-.11.01-.17.01-2.06,0-3.73-1.67-3.73-3.73s1.67-3.74,3.73-3.74c1.35,0,2.52.71,3.17,1.77-1.84.65-3.17,2.4-3.17,4.47ZM115.25,38.26h-.93c-1.37,0-2.56.97-2.83,2.32l-1.11,5.56h-1.92c-1.19,0-2.08-1.09-1.85-2.26l1.12-5.6c.18-.89.95-1.52,1.85-1.52h3.99c.42.62,1,1.14,1.68,1.5ZM126.87,46.14h-2.33l-1.11-5.56c-.27-1.35-1.46-2.32-2.83-2.32h-.93c.67-.36,1.26-.88,1.67-1.5h4.41c.9,0,1.67.63,1.85,1.52l1.12,5.6c.24,1.17-.66,2.26-1.85,2.26ZM126.35,31.6c0,2.06-1.68,3.73-3.74,3.73-.19,0-.39-.02-.57-.05.11-.38.16-.77.16-1.18,0-1.94-1.17-3.61-2.84-4.34.64-1.14,1.86-1.9,3.25-1.9,2.06,0,3.74,1.67,3.74,3.74ZM121.2,34.1c0,.31-.04.61-.12.9-.16.68-.51,1.28-1,1.76-.6.59-1.4.98-2.3,1.05-.07.01-.15.02-.23.02h-.09c-1.02,0-1.95-.41-2.62-1.07-.45-.44-.79-.99-.97-1.61-.1-.33-.15-.69-.15-1.05,0-1.66,1.08-3.07,2.58-3.55.36-.13.75-.19,1.16-.19.54,0,1.06.12,1.53.33,1.3.58,2.21,1.89,2.21,3.41ZM121.72,48.63h-8.53c-1.19,0-2.08-1.08-1.84-2.25l.05-.24,1.07-5.37c.17-.88.95-1.51,1.85-1.51h6.28c.9,0,1.67.63,1.85,1.51l1.07,5.37.05.24c.24,1.17-.66,2.25-1.85,2.25Z"/><rect class="uuid-430c1926-13b4-4657-aa21-b3a7939592de" x="0" y="103.6" width="202.01" height=".01"/></svg>