<?xml version="1.0" encoding="UTF-8"?><svg id="uuid-7ae6e8f5-561e-49fc-be8e-8375321e9e54" xmlns="http://www.w3.org/2000/svg" viewBox="0 0 202.01 103.62"><defs><style>.uuid-779899a5-1975-4d9c-bd31-1ea3408af762{fill:none;}.uuid-a9fcc547-b6ee-49db-a7bd-c877e88bbea3{fill:#fff;}</style></defs><rect class="uuid-779899a5-1975-4d9c-bd31-1ea3408af762" y="103.61" width="202.01" height=".01"/><path class="uuid-a9fcc547-b6ee-49db-a7bd-c877e88bbea3" d="M94.81,48.39c0-.85.04-1.7.11-2.53-.76,2.72-.63,5.69.5,8.44-.4-1.92-.61-3.9-.61-5.91ZM92.43,48.42s-.09.01-.14.01c0,1.61.13,3.21.37,4.78.08,0,.17,0,.25-.01-.42-1.58-.57-3.19-.48-4.78ZM94.81,48.39c0-.85.04-1.7.11-2.53-.76,2.72-.63,5.69.5,8.44-.4-1.92-.61-3.9-.61-5.91ZM92.43,48.42s-.09.01-.14.01c0,1.61.13,3.21.37,4.78.08,0,.17,0,.25-.01-.42-1.58-.57-3.19-.48-4.78ZM140.14,41.95h-2.42l-2.69-6.15c-.43-.98-1.16-2.64-3.04-2.64h-20.39c-1.48,0-2.61,1.03-3.1,2.82l-1.63,5.97h-.67c-3.08,0-5.59,2.51-5.59,5.59v6.8c0,2.1,1.71,3.8,3.81,3.8h1.21c.58,2.7,2.98,4.73,5.85,4.73.32,0,.64-.03.95-.08,1.64-.26,3.05-1.18,3.95-2.49.45-.64.78-1.37.95-2.16h13.91c.57,2.7,2.97,4.73,5.84,4.73s5.27-2.03,5.85-4.73h2.21c2.1,0,3.8-1.7,3.8-3.8v-3.59c0-4.85-3.95-8.8-8.8-8.8ZM118.21,35.68h13.78c.2,0,.42.41.74,1.13l2.24,5.14h-19.09l.5-1.35,1.83-4.92ZM110.93,36.64c.07-.29.3-.96.67-.96h4.32l-2.33,6.27h-4.12l1.46-5.31ZM112.44,60.21c-.31.09-.63.14-.96.14-1.91,0-3.46-1.55-3.47-3.46h0c.01-1.92,1.56-3.47,3.47-3.47.34,0,.66.05.97.14,1.44.42,2.5,1.75,2.5,3.33s-1.06,2.91-2.51,3.32ZM117.03,54.65c-.17-.43-.39-.83-.65-1.2-.91-1.28-2.31-2.2-3.92-2.47-.32-.05-.65-.08-.98-.08-2.87,0-5.27,2.03-5.84,4.73h-1.22c-.72,0-1.29-.58-1.29-1.29v-6.8c0-1.7,1.38-3.08,3.07-3.08h14.61l-3.78,10.19ZM137.08,60.35c-1.91,0-3.46-1.55-3.46-3.46h0c0-1.92,1.55-3.47,3.46-3.47s3.47,1.55,3.47,3.47-1.56,3.46-3.47,3.46ZM146.43,54.34c0,.71-.58,1.29-1.29,1.29h-2.21c-.58-2.7-2.98-4.73-5.85-4.73s-5.26,2.03-5.84,4.73h-11.89l4.14-11.17h16.65c3.47,0,6.29,2.83,6.29,6.29v3.59ZM133.62,47.34c0,.69-.39,1.26-.88,1.26h-1.46c-.49,0-.88-.56-.88-1.26s.39-1.26.88-1.26h1.46c.49,0,.88.56.88,1.26ZM123.78,16.91c-2.55,0-5.03.3-7.4.88V6.39c-.01-3.53-2.87-6.39-6.4-6.39h-44.13c-3.54,0-6.4,2.86-6.4,6.39v90.84c0,3.29,2.49,5.99,5.69,6.35-.02.01-.03.02-.05.04h45.64s-.03-.03-.04-.04c3.19-.36,5.68-3.06,5.69-6.35v-18.23c2.42.6,4.82.88,7.4.88,17.36,0,31.48-14.13,31.48-31.49s-14.12-31.48-31.48-31.48ZM112.54,97.23c-.01,1.41-1.15,2.55-2.56,2.55h-4.66c-2.33-1.09-4.9-1.68-7.53-1.68h-19.76c-2.63,0-5.19.59-7.53,1.68h-4.65c-1.41,0-2.56-1.14-2.56-2.55V6.39c0-1.41,1.15-2.55,2.56-2.55h19.21v2.46c0,1.57,1.28,2.85,2.85,2.85s2.85-1.28,2.85-2.85v-2.46h19.22c1.41,0,2.55,1.14,2.56,2.55v12.6c-5.17,1.98-9.69,5.28-13.14,9.5-2.41-.95-3.94-1.33-9.84-1.33s-8.06.62-12.68,2.44c-3.21,1.28-4.97,3.02-4.98,4.98v27.45c.03,4.55,9.12,7.01,17.65,7.01,3.46,0,6.75-.37,9.57-1.06.97,1.22,2.03,2.37,3.19,3.44l-16.2,13.05c-.47.38-.6,1.04-.32,1.57.22.42.66.67,1.11.67.12,0,.24-.02.36-.05l25.24-7.55.04,8.05v10.07ZM97.81,66.19c-2.31.5-5.1.81-8.25.81-9.66,0-15.61-2.9-15.63-4.98v-3.43c3.17,2.37,9.53,3.61,15.63,3.61,1.97,0,3.91-.12,5.75-.36.7,1.51,1.54,2.97,2.5,4.35ZM89.56,46.47c-9.68,0-15.63-2.91-15.63-5v-3.46c3.17,2.36,9.53,3.61,15.63,3.61,1.19,0,2.36-.05,3.5-.13-.37,1.59-.6,3.22-.7,4.89-.92.06-1.86.09-2.8.09ZM89.56,48.51c.91,0,1.84-.03,2.73-.08.05,0,.09-.01.14-.01-.09,1.59.06,3.2.48,4.78-.08.01-.17.01-.25.01-1.03.08-2.05.11-3.1.11-9.68,0-15.63-2.91-15.63-4.99v-3.44c3.17,2.37,9.53,3.62,15.63,3.62ZM94.46,59.89c-1.57.19-3.22.28-4.9.28-9.68,0-15.62-2.91-15.62-5v-3.43c3.16,2.37,9.53,3.61,15.62,3.61,1.17,0,2.34-.04,3.48-.13.35,1.6.82,3.16,1.42,4.67ZM89.56,39.59c-9.68,0-15.63-2.91-15.63-4.99h.01c0-1.09,1.52-2.3,4.01-3.23,2.97-1.05,6.81-2.2,11.6-2.2,3.61,0,5.7.19,8.51,1.07-1.95,2.76-3.47,5.85-4.46,9.16-1.31.13-2.66.19-4.04.19ZM123.78,77.36c-2.62,0-4.96-.3-7.4-.96-.47-.12-.95-.26-1.43-.41-.24-.08-.5-.08-.74-.01l-1.72.51-19.82,5.93,12.37-9.97c.29-.24.47-.59.47-.97s-.16-.73-.45-.97c-1.2-1.02-2.32-2.13-3.33-3.32-.46-.55-.91-1.11-1.32-1.69-.96-1.3-1.8-2.66-2.51-4.09-1.13-2.24-1.97-4.63-2.48-7.11-1.13-2.75-1.26-5.72-.5-8.44.2-2.36.69-4.64,1.44-6.81.97-2.86,2.39-5.53,4.16-7.92.43-.57.88-1.13,1.34-1.67,2.9-3.34,6.54-6.02,10.67-7.77,1.24-.52,2.53-.96,3.85-1.31,2.36-.63,4.84-.96,7.4-.96,15.97,0,28.97,13,28.97,28.97s-13,28.97-28.97,28.97Z"/></svg>