<?xml version="1.0" encoding="UTF-8"?>
<svg id="uuid-ead5710f-2929-4bed-a830-31fba266a8a1" xmlns="http://www.w3.org/2000/svg" version="1.1" viewBox="0 0 134.6 118.7">
  <!-- Generator: Adobe Illustrator 29.6.1, SVG Export Plug-In . SVG Version: 2.1.1 Build 9)  -->
  <defs>
    <style>
      .st0 {
        fill: #fff;
      }
    </style>
  </defs>
  <path class="st0" d="M61.1,55.9c0-.8,0-1.7.1-2.5-.8,2.7-.6,5.7.5,8.4-.4-1.9-.6-3.9-.6-5.9ZM58.7,55.9s0,0-.1,0c0,1.6.1,3.2.4,4.8,0,0,.2,0,.2,0-.4-1.6-.6-3.2-.5-4.8ZM61.1,55.9c0-.8,0-1.7.1-2.5-.8,2.7-.6,5.7.5,8.4-.4-1.9-.6-3.9-.6-5.9ZM58.7,55.9s0,0-.1,0c0,1.6.1,3.2.4,4.8,0,0,.2,0,.2,0-.4-1.6-.6-3.2-.5-4.8ZM106.4,49.5h-2.4l-2.7-6.2c-.4-1-1.2-2.6-3-2.6h-20.4c-1.5,0-2.6,1-3.1,2.8l-1.6,6h-.7c-3.1,0-5.6,2.5-5.6,5.6v6.8c0,2.1,1.7,3.8,3.8,3.8h1.2c.6,2.7,3,4.7,5.8,4.7s.6,0,.9,0c1.6-.3,3.1-1.2,3.9-2.5.4-.6.8-1.4.9-2.2h13.9c.6,2.7,3,4.7,5.8,4.7s5.3-2,5.8-4.7h2.2c2.1,0,3.8-1.7,3.8-3.8v-3.6c0-4.8-3.9-8.8-8.8-8.8ZM84.5,43.2h13.8c.2,0,.4.4.7,1.1l2.2,5.1h-19.1l.5-1.3s1.8-4.9,1.8-4.9ZM77.2,44.2c0-.3.3-1,.7-1h4.3l-2.3,6.3h-4.1s1.5-5.3,1.5-5.3ZM78.7,67.7c-.3,0-.6.1-1,.1-1.9,0-3.5-1.6-3.5-3.5h0c0-1.9,1.6-3.5,3.5-3.5s.7,0,1,.1c1.4.4,2.5,1.8,2.5,3.3s-1.1,2.9-2.5,3.3ZM83.3,62.2c-.2-.4-.4-.8-.7-1.2-.9-1.3-2.3-2.2-3.9-2.5-.3,0-.7,0-1,0-2.9,0-5.3,2-5.8,4.7h-1.2c-.7,0-1.3-.6-1.3-1.3v-6.8c0-1.7,1.4-3.1,3.1-3.1h14.6s-3.8,10.2-3.8,10.2ZM103.4,67.9c-1.9,0-3.5-1.6-3.5-3.5h0c0-1.9,1.6-3.5,3.5-3.5s3.5,1.5,3.5,3.5-1.6,3.5-3.5,3.5ZM112.7,61.9c0,.7-.6,1.3-1.3,1.3h-2.2c-.6-2.7-3-4.7-5.8-4.7s-5.3,2-5.8,4.7h-11.9l4.1-11.2h16.7c3.5,0,6.3,2.8,6.3,6.3,0,0,0,3.6,0,3.6ZM99,53.6h-1.5c-.5,0-.9.6-.9,1.3s.4,1.3.9,1.3h1.5c.5,0,.9-.6.9-1.3s-.4-1.3-.9-1.3ZM90.1,24.4c-2.6,0-5,.3-7.4.9v-11.4c0-3.5-2.9-6.4-6.4-6.4h-44.1c-3.5,0-6.4,2.9-6.4,6.4v90.8c0,3.3,2.5,6,5.7,6.3,0,0,0,0,0,0h45.6,0c3.2-.4,5.7-3.1,5.7-6.4v-18.2c2.4.6,4.8.9,7.4.9,17.4,0,31.5-14.1,31.5-31.5s-14.1-31.5-31.5-31.5ZM78.8,104.8c0,1.4-1.2,2.6-2.6,2.6h-4.7c-2.3-1.1-4.9-1.7-7.5-1.7h-19.8c-2.6,0-5.2.6-7.5,1.7h-4.7c-1.4,0-2.6-1.1-2.6-2.6V13.9c0-1.4,1.1-2.6,2.6-2.6h19.2v2.5c0,1.6,1.3,2.9,2.8,2.9s2.8-1.3,2.8-2.9v-2.5h19.2c1.4,0,2.6,1.1,2.6,2.6v12.6c-5.2,2-9.7,5.3-13.1,9.5-2.4-1-3.9-1.3-9.8-1.3s-8.1.6-12.7,2.4c-3.2,1.3-5,3-5,5v27.5c0,4.6,9.1,7,17.7,7s6.8-.4,9.6-1.1c1,1.2,2,2.4,3.2,3.4l-16.2,13.1c-.5.4-.6,1-.3,1.6.2.4.7.7,1.1.7s.2,0,.4,0l25.2-7.6v8.1s0,10.1,0,10.1ZM64.1,73.7c-2.3.5-5.1.8-8.2.8-9.7,0-15.6-2.9-15.6-5v-3.4c3.2,2.4,9.5,3.6,15.6,3.6s3.9-.1,5.8-.4c.7,1.5,1.5,3,2.5,4.4ZM55.8,54c-9.7,0-15.6-2.9-15.6-5v-3.5c3.2,2.4,9.5,3.6,15.6,3.6s2.4,0,3.5-.1c-.4,1.6-.6,3.2-.7,4.9-.9,0-1.9,0-2.8,0ZM55.8,56c.9,0,1.8,0,2.7,0,0,0,0,0,.1,0,0,1.6,0,3.2.5,4.8,0,0-.2,0-.2,0-1,0-2,.1-3.1.1-9.7,0-15.6-2.9-15.6-5v-3.4c3.2,2.4,9.5,3.6,15.6,3.6ZM60.8,67.4c-1.6.2-3.2.3-4.9.3-9.7,0-15.6-2.9-15.6-5v-3.4c3.2,2.4,9.5,3.6,15.6,3.6s2.3,0,3.5-.1c.3,1.6.8,3.2,1.4,4.7ZM55.8,47.1c-9.7,0-15.6-2.9-15.6-5h0c0-1.1,1.5-2.3,4-3.2,3-1,6.8-2.2,11.6-2.2s5.7.2,8.5,1.1c-2,2.8-3.5,5.8-4.5,9.2-1.3.1-2.7.2-4,.2ZM90.1,84.9c-2.6,0-5-.3-7.4-1-.5-.1-.9-.3-1.4-.4-.2,0-.5,0-.7,0l-1.7.5-19.8,5.9,12.4-10c.3-.2.5-.6.5-1s-.2-.7-.4-1c-1.2-1-2.3-2.1-3.3-3.3-.5-.6-.9-1.1-1.3-1.7-1-1.3-1.8-2.7-2.5-4.1-1.1-2.2-2-4.6-2.5-7.1-1.1-2.8-1.3-5.7-.5-8.4.2-2.4.7-4.6,1.4-6.8,1-2.9,2.4-5.5,4.2-7.9.4-.6.9-1.1,1.3-1.7,2.9-3.3,6.5-6,10.7-7.8,1.2-.5,2.5-1,3.8-1.3,2.4-.6,4.8-1,7.4-1,16,0,29,13,29,29s-13,29-29,29Z"/>
</svg>