<?xml version="1.0" encoding="UTF-8"?><svg id="uuid-69174b2e-50ab-4328-ba66-7f584771f509" xmlns="http://www.w3.org/2000/svg" viewBox="0 0 350 200"><defs><style>.uuid-38c13ce8-7254-4f80-aea7-1e29295a4b30{fill:none;}.uuid-6bd7512c-2ad2-46b0-8f43-1fbba3674251{fill:#fff;}</style></defs><rect class="uuid-38c13ce8-7254-4f80-aea7-1e29295a4b30" width="350" height="200"/><path class="uuid-6bd7512c-2ad2-46b0-8f43-1fbba3674251" d="M237.13,68.35c-.07-1.17-.97-2.11-2.13-2.25-7.67-.87-20.27-6.6-24.7-8.71v-14.38c0-4.43-3.6-8.02-8.03-8.02h-55.37c-4.43,0-8.02,3.59-8.03,8.02v113.97c0,4.13,3.13,7.52,7.14,7.96-.02.02-.04.03-.06.05h57.26s-.04-.03-.06-.05c4.01-.44,7.13-3.84,7.14-7.96v-42.69c28.53-12.55,26.85-45.61,26.84-45.94ZM205.47,149.15v7.83c0,1.77-1.44,3.2-3.21,3.2h-5.84c-2.93-1.36-6.15-2.11-9.45-2.11h-24.8c-3.3,0-6.51.75-9.45,2.11h-5.84c-1.77,0-3.2-1.43-3.21-3.2V43.02c0-1.77,1.44-3.2,3.21-3.2h24.11v3.09c0,1.97,1.6,3.57,3.57,3.57s3.57-1.6,3.57-3.57v-3.09h24.11c1.77,0,3.2,1.43,3.21,3.2v14.26l-1.83.85h-.1l-1.12.51-.15.06-1.25.55-.15.06-1.38.6h-.13c-.98.43-2.03.87-3.11,1.25h-.14l-1.57.63-.24.1-1.58.6-.25.09-1.62.59-.2.06-1.69.58-1.66.53h-.2l-1.61.66-.26.08-1.47.36h-.25l-1.43.29h-.18c-.49.09-.95.15-1.41.2-1.16.13-2.06,1.08-2.13,2.25v5.62c0,.21,0,.45.06.68s0,.43.06.64c.06.21,0,.49.09.74.09.25,0,.45.09.69s.08.53.11.8c.04.28.06.48.11.73.05.25.1.56.15.84.05.28.09.5.14.77.05.26.11.59.18.89s.1.53.16.8c.06.28.14.61.21.93s.13.55.2.83c.08.28.16.63.25.95.09.33.15.58.24.87.09.29.19.64.29.97s.18.59.28.88c.1.29.23.66.34.99.11.33.2.6.31.9.11.3.25.66.39,1s.24.6.36.92c.13.31.29.68.44,1l.4.92c.15.34.33.68.49,1s.3.61.46.93.35.66.54,1l.51.93c.19.33.39.66.59.99l.58.93c.21.33.43.64.65.97l.64.93c.23.31.48.63.72.94l.72.92.78.92.78.89.84.89.85.87.92.85.94.84.98.82,1.02.8,1.05.77,1.1.77,1.13.72,1.25.72,1.25.66,1.25.66,1.25.6.79.36.14,30.13v4.81ZM207.79,110.19l-.97-.43-.97-.44-1.05-.53-.9-.46-.99-.56-.85-.5-.92-.6-.8-.54-.87-.63-.75-.56-.82-.66-.7-.59-.75-.68-.66-.61-.69-.7-.63-.64-.64-.72-.58-.66-.53-.77-.55-.68-.54-.73-.5-.7-.49-.74-.48-.72-.44-.73-.46-.73-.4-.73-.4-.75-.35-.72-.38-.77-.31-.7-.35-.78-.28-.68-.33-.8-.24-.64c-.1-.28-.2-.55-.3-.82l-.2-.63c-.09-.28-.19-.54-.26-.82l-.18-.61c-.08-.26-.16-.54-.24-.8l-.15-.59c-.08-.26-.14-.54-.21-.8l-.13-.54c-.06-.28-.13-.54-.19-.82l-.1-.5c0-.28-.11-.54-.16-.8l-.09-.46c0-.26-.1-.54-.14-.8v-.39c0-.28-.09-.56-.13-.83v-.29c0-.29-.08-.59-.11-.87v-.24c0-.29-.06-.58-.09-.85v-.18c0-.28,0-.56-.08-.83v-.14c0-.6-.08-1.17-.1-1.67v-1.48c.55-.1,1.12-.23,1.68-.35l.44-.18,1.13-.28h.09l.58-.16h.09l1.03-.29h.13l.69-.21,1-.31h.18l.68-.23.98-.33.21-.08.66-.24.94-.34.26-.1.63-.24.93-.35.29-.11.59-.24.88-.35.31-.13.54-.23.85-.35.34-.14.49-.21.8-.34.35-.15.44-.19.77-.34.34-.15.39-.18.7-.31h.08l.25-.11.34-.15.63-.29.25-.11h.08l.29-.14.53-.25.55-.26.44-.21.49-.23h.08c4.09,1.97,15.93,7.44,24.58,9.05-.08,6.7-2.05,29.88-24.55,39.42ZM202.7,77.78c0,.53.08,1.04.21,1.53-.08.01-.14.01-.21.01-2.58,0-4.68-2.1-4.68-4.68s2.1-4.69,4.68-4.69c1.69,0,3.16.89,3.98,2.22-2.31.82-3.98,3.01-3.98,5.61ZM205.87,83h-1.17c-1.72,0-3.21,1.22-3.55,2.91l-1.39,6.98h-2.41c-1.49,0-2.61-1.37-2.32-2.84l1.41-7.03c.23-1.12,1.19-1.91,2.32-1.91h5.01c.53.78,1.25,1.43,2.11,1.88ZM220.45,92.89h-2.92l-1.39-6.98c-.34-1.69-1.83-2.91-3.55-2.91h-1.17c.84-.45,1.58-1.1,2.1-1.88h5.53c1.13,0,2.1.79,2.32,1.91l1.41,7.03c.3,1.47-.83,2.84-2.32,2.84ZM219.8,74.65c0,2.58-2.11,4.68-4.69,4.68-.24,0-.49-.03-.72-.06.14-.48.2-.97.2-1.48,0-2.43-1.47-4.53-3.56-5.44.8-1.43,2.33-2.38,4.08-2.38,2.58,0,4.69,2.1,4.69,4.69ZM213.34,77.78c0,.39-.05.77-.15,1.13-.2.85-.64,1.61-1.25,2.21-.75.74-1.76,1.23-2.89,1.32-.09.01-.19.03-.29.03h-.11c-1.28,0-2.45-.51-3.29-1.34-.56-.55-.99-1.24-1.22-2.02-.13-.41-.19-.87-.19-1.32,0-2.08,1.35-3.85,3.24-4.45.45-.16.94-.24,1.46-.24.68,0,1.33.15,1.92.41,1.63.73,2.77,2.37,2.77,4.28ZM213.99,96.01h-10.7c-1.49,0-2.61-1.36-2.31-2.82l.06-.3,1.34-6.74c.21-1.1,1.19-1.89,2.32-1.89h7.88c1.13,0,2.1.79,2.32,1.89l1.34,6.74.06.3c.3,1.47-.83,2.82-2.32,2.82Z"/></svg>