<?xml version="1.0" encoding="UTF-8"?><svg id="uuid-678ba5ca-335b-4b58-816c-87e7158a35aa" xmlns="http://www.w3.org/2000/svg" viewBox="0 0 350 200"><defs><style>.uuid-0d96ead0-6f4d-4908-a3df-4b76a5d72f87{fill:none;}.uuid-7becc595-a2cd-4a15-8953-e72df8af6839{fill:#fff;}</style></defs><path class="uuid-7becc595-a2cd-4a15-8953-e72df8af6839" d="M245.12,93.95v-39.84h0v-.53l-1.81-5.17-5.56-15.88c-1.06-3.06-3.96-5.12-7.2-5.12h-127.47c-3.24,0-6.13,2.05-7.19,5.11l-6.74,21.58h0s0,0,0,0v84.62c0,5.06,4.13,9.19,9.19,9.19h44.25v18.98h-9.5c-1.56,0-2.85,1.28-2.85,2.85s1.28,2.85,2.85,2.85h68.11c1.57,0,2.85-1.27,2.85-2.85s-1.28-2.85-2.85-2.85h-9.5v-18.98h3.04c6.36,5.18,14.5,8.29,23.33,8.29,20.42,0,37.03-16.62,37.03-37.03,0-9.75-3.78-18.61-9.97-25.24ZM239.43,54.1v6.89c0,4.6-3.74,8.35-8.35,8.35s-8.35-3.74-8.35-8.35v-6.89h16.69ZM230.55,33.1c.82,0,1.55.52,1.82,1.3l4.91,14.01h-15.8l-3.58-15.31h12.64ZM208.83,33.1l3.58,15.31h-16.03l-1.78-15.31h14.23ZM213.84,54.1v6.89c0,4.6-3.74,8.35-8.35,8.35s-8.35-3.74-8.35-8.35v-6.89h16.69ZM171.26,33.1h14.38l1.78,15.31h-16.16v-15.31ZM188.27,54.1v6.89c0,4.6-3.74,8.35-8.35,8.35s-8.35-3.74-8.35-8.35v-6.89h16.69ZM148,33.1h14.35v15.31h-16.13l1.78-15.31ZM145.98,54.1h16.69v6.89c0,4.6-3.74,8.35-8.35,8.35s-8.35-3.74-8.35-8.35v-6.89ZM124.87,33.1h14.25l-1.8,15.31h-16.03l3.58-15.31ZM120.41,54.1h16.69v6.89c0,4.6-3.74,8.35-8.35,8.35s-8.35-3.74-8.35-8.35v-6.89ZM101.26,34.4h0c.27-.77,1.01-1.3,1.82-1.3h12.62l-3.58,15.31h-15.77l4.91-14.01ZM94.85,54.1h16.69v6.89c0,4.6-3.74,8.35-8.35,8.35s-8.35-3.74-8.35-8.35v-6.89ZM186,166.9h-37.72v-18.98h37.72v18.98ZM98.34,142.23c-1.92,0-3.5-1.57-3.5-3.5v-66.49c2.34,1.74,5.22,2.78,8.35,2.78,5.67,0,10.57-3.38,12.78-8.24,2.21,4.86,7.11,8.24,12.79,8.24s10.57-3.38,12.78-8.24c2.21,4.86,7.11,8.24,12.78,8.24s10.59-3.4,12.8-8.27c2.2,4.87,7.11,8.27,12.8,8.27s10.57-3.38,12.78-8.24c2.21,4.86,7.11,8.24,12.78,8.24s10.59-3.4,12.8-8.27c2.2,4.87,7.11,8.27,12.8,8.27,3.13,0,6.01-1.04,8.35-2.78v16.72c-6.05-4.3-13.42-6.81-21.37-6.81-20.43,0-37.05,16.62-37.05,37.03,0,8.71,3.02,16.72,8.08,23.05h-90.76ZM230.55,147.92c-3.83,1.68-8.05,2.6-12.49,2.6s-8.68-.92-12.51-2.6c-3.23-1.41-6.17-3.34-8.72-5.69-6.23-5.73-10.13-13.94-10.13-23.05,0-17.29,14.07-31.34,31.36-31.34,8.25,0,15.76,3.2,21.37,8.45,2.22,2.06,4.14,4.45,5.69,7.1,2.72,4.64,4.28,10.03,4.28,15.79s-1.56,11.15-4.28,15.79c-3.34,5.72-8.45,10.29-14.57,12.95ZM239.93,125.55c-1.9-1.9-3.98-2.12-6.03-2.12h-.03l1.48-4.86c.05-.12.08-.23.11-.34l2.53-8.28c.31-.86.19-1.77-.31-2.49-.5-.71-1.31-1.13-2.18-1.13h-29.59l-1.89-5.64c-.37-1.09-1.39-1.81-2.54-1.81h-.03l-4.75.09c-1.52.03-2.64,1.2-2.61,2.72.03,1.51,1.2,2.61,2.7,2.61l2.8-.05,1.87,5.58,2.55,8.35c.03.11.06.22.11.33l2.49,8.15c.25,1.24,1.35,2.14,2.62,2.14h25.68c.48,0,.93.19,1.28.53.79.79.5,1.69.39,1.95-.23.54-.78,1.13-1.67,1.13h-28.71c-1.52,0-2.66,1.15-2.66,2.67s1.1,2.62,2.57,2.67c-.02,1.1.3,2.19.93,3.13,1.01,1.5,2.7,2.4,4.51,2.4s3.5-.9,4.51-2.41c.63-.94.94-2.03.92-3.12h5.6c-.02,1.1.3,2.19.93,3.13,1.01,1.5,2.7,2.4,4.51,2.4s3.5-.9,4.51-2.41c.63-.94.94-2.03.92-3.12h1.44c2.94,0,5.46-1.7,6.59-4.43,1.13-2.72.53-5.7-1.54-7.77ZM206.66,110.26h11.91v5.48h-10.19l-1.72-5.48ZM218.57,123.48h-7.76l-1.72-5.48h9.48v5.48ZM228.66,123.48h-7.76v-5.48h9.48l-1.72,5.48ZM231.07,115.74h-10.19v-5.48h11.91l-1.72,5.48ZM211.52,139.39c-.85,0-1.54-.69-1.54-1.54s.69-1.54,1.54-1.54,1.54.69,1.54,1.54-.69,1.54-1.54,1.54ZM227.99,139.39c-.85,0-1.54-.69-1.54-1.54s.69-1.54,1.54-1.54,1.54.69,1.54,1.54-.69,1.54-1.54,1.54ZM162.36,95.82h-52.91c-1.57,0-2.85-1.27-2.85-2.85s1.27-2.85,2.85-2.85h52.91c1.57,0,2.85,1.27,2.85,2.85s-1.27,2.85-2.85,2.85ZM162.36,109.28h-52.91c-1.57,0-2.85-1.27-2.85-2.85s1.27-2.85,2.85-2.85h52.91c1.57,0,2.85,1.27,2.85,2.85s-1.27,2.85-2.85,2.85ZM162.36,122.74h-52.91c-1.57,0-2.85-1.27-2.85-2.85s1.27-2.85,2.85-2.85h52.91c1.57,0,2.85,1.27,2.85,2.85s-1.27,2.85-2.85,2.85Z"/><rect class="uuid-0d96ead0-6f4d-4908-a3df-4b76a5d72f87" width="350" height="200"/></svg>