<?xml version="1.0" encoding="UTF-8"?><svg id="uuid-0c83cf70-72c9-47dd-b6a8-caa2fab60da6" xmlns="http://www.w3.org/2000/svg" viewBox="0 0 202.01 102.79"><defs><style>.uuid-57f4d584-be1b-43a4-b99d-6bf323a0b261{fill:none;}.uuid-dda9c7f1-2850-4b0c-ab5c-b0238fbd02ef{fill:#fff;}</style></defs><rect class="uuid-57f4d584-be1b-43a4-b99d-6bf323a0b261" y="102.71" width="202.01" height=".01"/><path class="uuid-dda9c7f1-2850-4b0c-ab5c-b0238fbd02ef" d="M154.18,47.43v-28h0v-.37l-1.27-3.63-3.91-11.16c-.75-2.15-2.78-3.6-5.06-3.6H54.35c-2.28,0-4.31,1.44-5.06,3.6l-4.74,15.17h0s0,0,0,0v59.48c0,3.56,2.9,6.46,6.46,6.46h31.1v13.34h-6.68c-1.1,0-2,.9-2,2s.9,2,2,2h47.87c1.1,0,2-.89,2-2s-.9-2-2-2h-6.68v-13.34h2.14c4.47,3.64,10.19,5.83,16.4,5.83,14.35,0,26.03-11.68,26.03-26.03,0-6.85-2.66-13.08-7.01-17.74ZM150.18,19.43v4.84c0,3.23-2.63,5.87-5.87,5.87s-5.87-2.63-5.87-5.87v-4.84h11.73ZM143.94,4.66c.58,0,1.09.37,1.28.92l3.45,9.85h-11.1l-2.51-10.76h8.89ZM128.67,4.66l2.51,10.76h-11.26l-1.25-10.76h10ZM132.19,19.43v4.84c0,3.23-2.63,5.87-5.87,5.87s-5.87-2.63-5.87-5.87v-4.84h11.73ZM102.27,4.66h10.11l1.25,10.76h-11.36V4.66ZM114.22,19.43v4.84c0,3.23-2.63,5.87-5.87,5.87s-5.87-2.63-5.87-5.87v-4.84h11.73ZM85.92,4.66h10.09v10.76h-11.34l1.25-10.76ZM84.5,19.43h11.73v4.84c0,3.23-2.63,5.87-5.87,5.87s-5.87-2.63-5.87-5.87v-4.84ZM69.66,4.66h10.01l-1.26,10.76h-11.27l2.51-10.76ZM66.53,19.43h11.73v4.84c0,3.23-2.63,5.87-5.87,5.87s-5.87-2.63-5.87-5.87v-4.84ZM53.07,5.58h0c.19-.54.71-.92,1.28-.92h8.87l-2.51,10.76h-11.08l3.45-9.85ZM48.56,19.43h11.73v4.84c0,3.23-2.63,5.87-5.87,5.87s-5.87-2.63-5.87-5.87v-4.84ZM112.62,98.71h-26.51v-13.34h26.51v13.34ZM51.01,81.37c-1.35,0-2.46-1.1-2.46-2.46v-46.73c1.64,1.22,3.67,1.96,5.87,1.96,3.99,0,7.43-2.38,8.99-5.79,1.55,3.41,5,5.79,8.99,5.79s7.43-2.38,8.99-5.79c1.55,3.41,5,5.79,8.99,5.79s7.44-2.39,8.99-5.81c1.55,3.42,5,5.81,9,5.81s7.43-2.38,8.99-5.79c1.55,3.41,5,5.79,8.99,5.79s7.44-2.39,8.99-5.81c1.55,3.42,5,5.81,9,5.81,2.2,0,4.23-.73,5.87-1.95v11.75c-4.25-3.02-9.43-4.79-15.02-4.79-14.36,0-26.04,11.68-26.04,26.03,0,6.12,2.12,11.75,5.68,16.2h-63.79ZM143.94,85.37c-2.69,1.18-5.66,1.83-8.78,1.83s-6.1-.65-8.79-1.83c-2.27-.99-4.34-2.35-6.13-4-4.38-4.03-7.12-9.8-7.12-16.2,0-12.15,9.89-22.03,22.04-22.03,5.8,0,11.08,2.25,15.02,5.94,1.56,1.45,2.91,3.13,4,4.99,1.91,3.26,3.01,7.05,3.01,11.1s-1.1,7.84-3.01,11.1c-2.35,4.02-5.94,7.23-10.24,9.1ZM150.54,69.64c-1.33-1.33-2.8-1.49-4.24-1.49h-.02l1.04-3.41c.03-.08.06-.17.08-.24l1.78-5.82c.22-.61.14-1.25-.22-1.75-.35-.5-.92-.79-1.54-.79h-20.8l-1.33-3.97c-.26-.76-.97-1.27-1.78-1.27h-.02l-3.34.06c-1.07.02-1.86.85-1.84,1.92.02,1.06.84,1.84,1.9,1.83l1.97-.04,1.31,3.93,1.79,5.87c.02.08.04.15.07.23l1.75,5.73c.18.87.95,1.5,1.84,1.5h18.05c.34,0,.66.13.9.37.55.55.35,1.19.28,1.37-.16.38-.55.79-1.17.79h-20.18c-1.07,0-1.87.81-1.87,1.88s.77,1.84,1.8,1.88c-.01.77.21,1.54.65,2.2.71,1.06,1.89,1.69,3.17,1.69s2.46-.63,3.17-1.69c.44-.66.66-1.43.65-2.2h3.94c-.01.77.21,1.54.65,2.2.71,1.06,1.89,1.69,3.17,1.69s2.46-.63,3.17-1.69c.44-.66.66-1.43.65-2.2h1.02c2.06,0,3.84-1.19,4.63-3.11.79-1.91.38-4-1.09-5.46ZM127.15,58.9h8.37v3.85h-7.16l-1.21-3.85ZM135.52,68.19h-5.46l-1.21-3.85h6.67v3.85ZM142.61,68.19h-5.46v-3.85h6.67l-1.21,3.85ZM144.31,62.75h-7.16v-3.85h8.37l-1.21,3.85ZM130.56,79.37c-.6,0-1.08-.48-1.08-1.08s.48-1.08,1.08-1.08,1.08.48,1.08,1.08-.48,1.08-1.08,1.08ZM142.14,79.37c-.6,0-1.08-.48-1.08-1.08s.48-1.08,1.08-1.08,1.08.48,1.08,1.08-.48,1.08-1.08,1.08ZM96.01,48.75h-37.19c-1.1,0-2-.9-2-2s.9-2,2-2h37.19c1.1,0,2,.9,2,2s-.9,2-2,2ZM96.01,58.21h-37.19c-1.1,0-2-.9-2-2s.9-2,2-2h37.19c1.1,0,2,.9,2,2s-.9,2-2,2ZM96.01,67.67h-37.19c-1.1,0-2-.9-2-2s.9-2,2-2h37.19c1.1,0,2,.9,2,2s-.9,2-2,2Z"/></svg>