<?xml version="1.0" encoding="UTF-8"?><svg id="uuid-c2203ea7-58da-4d23-ac08-319622cfa3cb" xmlns="http://www.w3.org/2000/svg" viewBox="0 0 350 200"><defs><style>.uuid-3078c2fa-5b00-4b1f-8b46-735dfbf8274c{fill:none;}.uuid-400e9ecd-74d6-49e0-b7dd-e5b00ce427f4{fill:#fff;}</style></defs><rect class="uuid-3078c2fa-5b00-4b1f-8b46-735dfbf8274c" width="350" height="200"/><path class="uuid-400e9ecd-74d6-49e0-b7dd-e5b00ce427f4" d="M257.97,58.01c-.1-1.55-1.29-2.8-2.83-2.98-10.17-1.15-26.89-8.75-32.77-11.55v-19.07c0-5.88-4.78-10.63-10.65-10.63h-73.44c-5.88,0-10.64,4.76-10.65,10.63v151.18c0,5.48,4.15,9.98,9.47,10.57-.02.02-.05.04-.07.07h75.96s-.05-.04-.07-.07c5.32-.59,9.46-5.09,9.47-10.57v-56.63c37.85-16.64,35.62-60.5,35.6-60.95ZM215.98,165.2v10.39c0,2.35-1.91,4.24-4.26,4.24h-7.74c-3.89-1.81-8.15-2.8-12.53-2.8h-32.9c-4.38,0-8.64.99-12.53,2.8h-7.74c-2.35,0-4.25-1.9-4.26-4.24V24.41c0-2.35,1.91-4.24,4.26-4.24h31.98v4.09c0,2.62,2.12,4.74,4.74,4.74s4.74-2.12,4.74-4.74v-4.09h31.98c2.35,0,4.25,1.9,4.26,4.24v18.92l-2.43,1.13h-.13l-1.48.68-.2.08-1.66.73-.2.08-1.83.8h-.17c-1.3.57-2.7,1.15-4.13,1.66h-.18l-2.08.83-.32.13-2.1.8-.33.12-2.15.78-.27.08-2.25.77-2.2.7h-.27l-2.13.88-.35.1-1.95.48h-.33l-1.9.38h-.23c-.65.12-1.26.2-1.86.27-1.54.17-2.73,1.43-2.83,2.98v7.46c0,.28,0,.6.08.9s0,.57.08.85c.08.28,0,.65.12.98.12.33,0,.6.12.92s.1.7.15,1.07c.05.37.08.63.15.97.07.33.13.75.2,1.12.07.37.12.67.18,1.02.07.35.15.78.23,1.18s.13.7.22,1.07c.08.37.18.82.28,1.23s.17.73.27,1.1c.1.37.22.83.33,1.26.12.43.2.77.32,1.15.12.38.25.85.38,1.28s.23.78.37,1.17c.13.38.3.88.45,1.31.15.43.27.8.42,1.2.15.4.33.88.52,1.33s.32.8.48,1.21c.17.42.38.9.58,1.33l.53,1.21c.2.45.43.9.65,1.33s.4.82.62,1.23.47.88.72,1.33l.68,1.23c.25.43.52.88.78,1.31l.77,1.23c.28.43.57.85.87,1.28l.85,1.23c.3.42.63.83.95,1.25l.95,1.21,1.03,1.21,1.03,1.18,1.12,1.18,1.13,1.15,1.21,1.13,1.25,1.12,1.3,1.08,1.35,1.07,1.4,1.02,1.46,1.02,1.5.95,1.66.95,1.66.88,1.66.88,1.66.8,1.05.48.18,39.97v6.37ZM219.06,113.52l-1.28-.57-1.28-.58-1.4-.7-1.2-.62-1.31-.75-1.13-.67-1.21-.8-1.07-.72-1.15-.83-1-.75-1.08-.88-.93-.78-1-.9-.88-.82-.92-.93-.83-.85-.85-.95-.77-.88-.7-1.02-.73-.9-.72-.97-.67-.93-.65-.98-.63-.95-.58-.97-.62-.97-.53-.97-.53-1-.47-.95-.5-1.02-.42-.93-.47-1.03-.37-.9-.43-1.07-.32-.85c-.13-.37-.27-.73-.4-1.08l-.27-.83c-.12-.37-.25-.72-.35-1.08l-.23-.82c-.1-.35-.22-.72-.32-1.07l-.2-.78c-.1-.35-.18-.72-.28-1.07l-.17-.72c-.08-.37-.17-.72-.25-1.08l-.13-.67c0-.37-.15-.72-.22-1.07l-.12-.62c0-.35-.13-.72-.18-1.07v-.52c0-.37-.12-.75-.17-1.1v-.38c0-.38-.1-.78-.15-1.15v-.32c0-.38-.08-.77-.12-1.13v-.23c0-.37,0-.75-.1-1.1v-.18c0-.8-.1-1.55-.13-2.21v-1.96c.73-.13,1.48-.3,2.23-.47l.58-.23,1.5-.37h.12l.77-.22h.12l1.36-.38h.17l.92-.28,1.33-.42h.23l.9-.3,1.3-.43.28-.1.88-.32,1.25-.45.35-.13.83-.32,1.23-.47.38-.15.78-.32,1.16-.47.42-.17.72-.3,1.13-.47.45-.18.65-.28,1.07-.45.47-.2.58-.25,1.02-.45.45-.2.52-.23.93-.42h.1l.33-.15.45-.2.83-.38.33-.15h.1l.38-.18.7-.33.73-.35.58-.28.65-.3h.1c5.43,2.61,21.14,9.87,32.6,12-.1,8.89-2.71,39.64-32.57,52.29ZM212.3,70.53c0,.7.1,1.38.28,2.03-.1.02-.18.02-.28.02-3.43,0-6.21-2.78-6.21-6.21s2.78-6.22,6.21-6.22c2.25,0,4.19,1.18,5.28,2.95-3.06,1.08-5.28,3.99-5.28,7.44ZM216.52,77.45h-1.55c-2.28,0-4.26,1.61-4.71,3.86l-1.85,9.25h-3.2c-1.98,0-3.46-1.81-3.08-3.76l1.86-9.32c.3-1.48,1.58-2.53,3.08-2.53h6.64c.7,1.03,1.66,1.9,2.8,2.5ZM235.85,90.57h-3.88l-1.85-9.25c-.45-2.25-2.43-3.86-4.71-3.86h-1.55c1.12-.6,2.1-1.46,2.78-2.5h7.34c1.5,0,2.78,1.05,3.08,2.53l1.86,9.32c.4,1.95-1.1,3.76-3.08,3.76ZM234.99,66.37c0,3.43-2.8,6.21-6.22,6.21-.32,0-.65-.03-.95-.08.18-.63.27-1.28.27-1.96,0-3.23-1.95-6.01-4.73-7.22,1.07-1.9,3.1-3.16,5.41-3.16,3.43,0,6.22,2.78,6.22,6.22ZM226.42,70.53c0,.52-.07,1.02-.2,1.5-.27,1.13-.85,2.13-1.66,2.93-1,.98-2.33,1.63-3.83,1.75-.12.02-.25.03-.38.03h-.15c-1.7,0-3.25-.68-4.36-1.78-.75-.73-1.31-1.65-1.61-2.68-.17-.55-.25-1.15-.25-1.75,0-2.76,1.8-5.11,4.29-5.91.6-.22,1.25-.32,1.93-.32.9,0,1.76.2,2.55.55,2.16.97,3.68,3.15,3.68,5.68ZM227.28,94.71h-14.2c-1.98,0-3.46-1.8-3.06-3.74l.08-.4,1.78-8.94c.28-1.46,1.58-2.51,3.08-2.51h10.45c1.5,0,2.78,1.05,3.08,2.51l1.78,8.94.08.4c.4,1.95-1.1,3.74-3.08,3.74Z"/></svg>