<?xml version="1.0" encoding="UTF-8"?><svg id="uuid-994ce707-d392-4871-8520-fc6c92a660cd" xmlns="http://www.w3.org/2000/svg" viewBox="0 0 350 200"><defs><style>.uuid-c2671c35-3786-4e6c-afba-392839c89dfa{fill:none;}.uuid-0ff88982-2994-495b-968f-7088e54aa554{fill:#fff;}</style></defs><path class="uuid-0ff88982-2994-495b-968f-7088e54aa554" d="M183.6,95.71c0-1.07.05-2.13.14-3.17-.95,3.41-.79,7.14.63,10.59-.5-2.41-.77-4.89-.77-7.41ZM180.61,95.75c-.06,0-.11.01-.18.01,0,2.02.16,4.03.46,6,.1,0,.21,0,.31-.01-.53-1.98-.72-4-.6-6ZM183.6,95.71c0-1.07.05-2.13.14-3.17-.95,3.41-.79,7.14.63,10.59-.5-2.41-.77-4.89-.77-7.41ZM180.61,95.75c-.06,0-.11.01-.18.01,0,2.02.16,4.03.46,6,.1,0,.21,0,.31-.01-.53-1.98-.72-4-.6-6ZM240.47,87.63h-3.04l-3.37-7.72c-.54-1.23-1.46-3.31-3.81-3.31h-25.58c-1.86,0-3.27,1.29-3.89,3.54l-2.04,7.49h-.84c-3.86,0-7.01,3.15-7.01,7.01v8.53c0,2.63,2.15,4.77,4.78,4.77h1.52c.73,3.39,3.74,5.93,7.34,5.93.4,0,.8-.04,1.19-.1,2.06-.33,3.83-1.48,4.96-3.12.56-.8.98-1.72,1.19-2.71h17.45c.72,3.39,3.73,5.93,7.33,5.93s6.61-2.55,7.34-5.93h2.77c2.63,0,4.77-2.13,4.77-4.77v-4.5c0-6.08-4.96-11.04-11.04-11.04ZM212.96,79.76h17.29c.25,0,.53.51.93,1.42l2.81,6.45h-23.95l.63-1.69,2.3-6.17ZM203.82,80.97c.09-.36.38-1.2.84-1.2h5.42l-2.92,7.87h-5.17l1.83-6.66ZM205.72,110.54c-.39.11-.79.18-1.2.18-2.4,0-4.34-1.94-4.35-4.34h0c.01-2.41,1.96-4.35,4.35-4.35.43,0,.83.06,1.22.18,1.81.53,3.14,2.2,3.14,4.18s-1.33,3.65-3.15,4.17ZM211.48,103.56c-.21-.54-.49-1.04-.82-1.51-1.14-1.61-2.9-2.76-4.92-3.1-.4-.06-.82-.1-1.23-.1-3.6,0-6.61,2.55-7.33,5.93h-1.53c-.9,0-1.62-.73-1.62-1.62v-8.53c0-2.13,1.73-3.86,3.85-3.86h18.33l-4.74,12.78ZM236.63,110.71c-2.4,0-4.34-1.94-4.34-4.34h0c0-2.41,1.94-4.35,4.34-4.35s4.35,1.94,4.35,4.35-1.96,4.34-4.35,4.34ZM248.36,103.17c0,.89-.73,1.62-1.62,1.62h-2.77c-.73-3.39-3.74-5.93-7.34-5.93s-6.6,2.55-7.33,5.93h-14.92l5.19-14.01h20.89c4.35,0,7.89,3.55,7.89,7.89v4.5ZM232.29,94.39c0,.87-.49,1.58-1.1,1.58h-1.83c-.61,0-1.1-.71-1.1-1.58s.49-1.58,1.1-1.58h1.83c.61,0,1.1.71,1.1,1.58ZM219.95,56.21c-3.2,0-6.31.38-9.28,1.1v-14.3c-.01-4.43-3.6-8.02-8.03-8.02h-55.36c-4.44,0-8.03,3.59-8.03,8.02v113.97c0,4.13,3.12,7.51,7.14,7.97-.03.01-.04.03-.06.05h57.26s-.04-.04-.05-.05c4-.45,7.13-3.84,7.14-7.97v-22.87c3.04.75,6.05,1.1,9.28,1.1,21.78,0,39.49-17.73,39.49-39.51s-17.71-39.49-39.49-39.49ZM205.84,156.98c-.01,1.77-1.44,3.2-3.21,3.2h-5.85c-2.92-1.37-6.15-2.11-9.45-2.11h-24.79c-3.3,0-6.51.74-9.45,2.11h-5.83c-1.77,0-3.21-1.43-3.21-3.2V43.02c0-1.77,1.44-3.2,3.21-3.2h24.1v3.09c0,1.97,1.61,3.58,3.58,3.58s3.58-1.61,3.58-3.58v-3.09h24.11c1.77,0,3.2,1.43,3.21,3.2v15.81c-6.49,2.48-12.16,6.62-16.49,11.92-3.02-1.19-4.94-1.67-12.35-1.67s-10.11.78-15.91,3.06c-4.03,1.61-6.24,3.79-6.25,6.25v34.44c.04,5.71,11.44,8.79,22.14,8.79,4.34,0,8.47-.46,12.01-1.33,1.22,1.53,2.55,2.97,4,4.32l-20.32,16.37c-.59.48-.75,1.3-.4,1.97.28.53.83.84,1.39.84.15,0,.3-.03.45-.06l31.67-9.47.05,10.1v12.63ZM187.36,118.04c-2.9.63-6.4,1.02-10.35,1.02-12.12,0-19.58-3.64-19.61-6.25v-4.3c3.98,2.97,11.96,4.53,19.61,4.53,2.47,0,4.91-.15,7.21-.45.88,1.89,1.93,3.73,3.14,5.46ZM177.01,93.3c-12.14,0-19.61-3.65-19.61-6.27v-4.34c3.98,2.96,11.96,4.53,19.61,4.53,1.49,0,2.96-.06,4.39-.16-.46,1.99-.75,4.04-.88,6.13-1.15.08-2.33.11-3.51.11ZM177.01,95.86c1.14,0,2.31-.04,3.43-.1.06,0,.11-.01.18-.01-.11,1.99.08,4.01.6,6-.1.01-.21.01-.31.01-1.29.1-2.57.14-3.89.14-12.14,0-19.61-3.65-19.61-6.26v-4.32c3.98,2.97,11.96,4.54,19.61,4.54ZM183.16,110.14c-1.97.24-4.04.35-6.15.35-12.14,0-19.6-3.65-19.6-6.27v-4.3c3.96,2.97,11.96,4.53,19.6,4.53,1.47,0,2.94-.05,4.37-.16.44,2.01,1.03,3.96,1.78,5.86ZM177.01,84.67c-12.14,0-19.61-3.65-19.61-6.26h.01c0-1.37,1.91-2.89,5.03-4.05,3.73-1.32,8.54-2.76,14.55-2.76,4.53,0,7.15.24,10.68,1.34-2.45,3.46-4.35,7.34-5.6,11.49-1.64.16-3.34.24-5.07.24ZM219.95,132.05c-3.29,0-6.22-.38-9.28-1.2-.59-.15-1.19-.33-1.79-.51-.3-.1-.63-.1-.93-.01l-2.16.64-24.87,7.44,15.52-12.51c.36-.3.59-.74.59-1.22s-.2-.92-.56-1.22c-1.51-1.28-2.91-2.67-4.18-4.17-.58-.69-1.14-1.39-1.66-2.12-1.2-1.63-2.26-3.34-3.15-5.13-1.42-2.81-2.47-5.81-3.11-8.92-1.42-3.45-1.58-7.18-.63-10.59.25-2.96.87-5.82,1.81-8.54,1.22-3.59,3-6.94,5.22-9.94.54-.72,1.1-1.42,1.68-2.1,3.64-4.19,8.2-7.55,13.39-9.75,1.56-.65,3.17-1.2,4.83-1.64,2.96-.79,6.07-1.2,9.28-1.2,20.04,0,36.35,16.31,36.35,36.35s-16.31,36.35-36.35,36.35Z"/><rect class="uuid-c2671c35-3786-4e6c-afba-392839c89dfa" width="350" height="200"/></svg>