<?xml version="1.0" encoding="UTF-8"?><svg id="uuid-7872b818-33b7-4c1a-aa1a-3faf957ba6ef" xmlns="http://www.w3.org/2000/svg" viewBox="0 0 350 200"><defs><style>.uuid-2ce83c5d-4887-4fd3-8df7-20da61c9f03b{fill:none;}.uuid-a487097b-49de-4a26-861c-4027b28d8fcc{fill:#fff;}</style></defs><path class="uuid-a487097b-49de-4a26-861c-4027b28d8fcc" d="M240.78,94.58v-35.67h0v-.48l-1.62-4.63-4.98-14.22c-.95-2.74-3.54-4.59-6.44-4.59h-114.13c-2.9,0-5.49,1.84-6.44,4.58l-6.03,19.32h0s0,0,0,0v75.77c0,4.54,3.69,8.23,8.23,8.23h39.62v16.99h-8.51c-1.4,0-2.55,1.15-2.55,2.55s1.15,2.55,2.55,2.55h60.98c1.4,0,2.55-1.13,2.55-2.55s-1.15-2.55-2.55-2.55h-8.51v-16.99h2.73c5.69,4.64,12.98,7.43,20.89,7.43,18.28,0,33.16-14.88,33.16-33.16,0-8.73-3.39-16.66-8.93-22.6ZM235.69,58.9v6.17c0,4.12-3.35,7.47-7.47,7.47s-7.47-3.35-7.47-7.47v-6.17h14.95ZM227.74,40.1c.73,0,1.39.47,1.63,1.17l4.39,12.54h-14.14l-3.2-13.71h11.32ZM208.29,40.1l3.2,13.71h-14.35l-1.59-13.71h12.74ZM212.77,58.9v6.17c0,4.12-3.35,7.47-7.47,7.47s-7.47-3.35-7.47-7.47v-6.17h14.95ZM174.65,40.1h12.87l1.59,13.71h-14.47v-13.71ZM189.88,58.9v6.17c0,4.12-3.35,7.47-7.47,7.47s-7.47-3.35-7.47-7.47v-6.17h14.95ZM153.83,40.1h12.85v13.71h-14.44l1.59-13.71ZM152.01,58.9h14.95v6.17c0,4.12-3.35,7.47-7.47,7.47s-7.47-3.35-7.47-7.47v-6.17ZM133.11,40.1h12.76l-1.61,13.71h-14.35l3.2-13.71ZM129.12,58.9h14.95v6.17c0,4.12-3.35,7.47-7.47,7.47s-7.47-3.35-7.47-7.47v-6.17ZM111.98,41.26h0c.24-.69.91-1.17,1.63-1.17h11.3l-3.2,13.71h-14.12l4.39-12.54ZM106.23,58.9h14.95v6.17c0,4.12-3.35,7.47-7.47,7.47s-7.47-3.35-7.47-7.47v-6.17ZM187.84,159.9h-33.77v-16.99h33.77v16.99ZM109.36,137.82c-1.72,0-3.13-1.4-3.13-3.13v-59.53c2.09,1.56,4.68,2.49,7.48,2.49,5.08,0,9.47-3.03,11.45-7.38,1.98,4.35,6.37,7.38,11.45,7.38s9.47-3.03,11.45-7.38c1.98,4.35,6.37,7.38,11.45,7.38s9.48-3.04,11.46-7.4c1.97,4.36,6.37,7.4,11.46,7.4s9.47-3.03,11.45-7.38c1.98,4.35,6.37,7.38,11.45,7.38s9.48-3.04,11.46-7.4c1.97,4.36,6.37,7.4,11.46,7.4,2.8,0,5.38-.93,7.48-2.49v14.97c-5.41-3.85-12.01-6.1-19.13-6.1-18.29,0-33.17,14.88-33.17,33.16,0,7.8,2.7,14.97,7.24,20.64h-81.26ZM227.74,142.91c-3.43,1.5-7.21,2.33-11.18,2.33s-7.77-.83-11.2-2.33c-2.89-1.26-5.53-2.99-7.81-5.1-5.58-5.13-9.07-12.48-9.07-20.64,0-15.48,12.6-28.06,28.08-28.06,7.39,0,14.11,2.87,19.13,7.57,1.99,1.85,3.71,3.99,5.1,6.36,2.43,4.15,3.83,8.98,3.83,14.14s-1.4,9.99-3.83,14.14c-2.99,5.12-7.57,9.21-13.04,11.59ZM236.14,122.87c-1.7-1.7-3.56-1.9-5.4-1.9h-.03l1.32-4.35c.04-.11.08-.21.1-.3l2.26-7.42c.27-.77.17-1.59-.28-2.23-.45-.63-1.18-1.01-1.96-1.01h-26.5l-1.69-5.05c-.33-.97-1.24-1.62-2.27-1.62h-.03l-4.26.08c-1.36.03-2.37,1.08-2.34,2.44.03,1.36,1.07,2.34,2.42,2.34l2.51-.05,1.67,5,2.29,7.48c.02.1.05.19.09.29l2.23,7.29c.23,1.11,1.21,1.91,2.35,1.91h22.99c.43,0,.83.17,1.14.48.7.7.45,1.51.35,1.75-.2.49-.7,1.01-1.49,1.01h-25.71c-1.36,0-2.38,1.03-2.38,2.39s.98,2.35,2.3,2.39c-.02.98.26,1.96.83,2.81.91,1.35,2.41,2.15,4.03,2.15s3.13-.81,4.04-2.16c.56-.84.84-1.82.83-2.8h5.02c-.02.98.26,1.96.83,2.8.91,1.35,2.41,2.15,4.03,2.15s3.13-.81,4.04-2.16c.56-.84.84-1.82.83-2.8h1.29c2.63,0,4.89-1.52,5.9-3.96,1.01-2.43.48-5.1-1.38-6.96ZM206.34,109.19h10.66v4.91h-9.12l-1.54-4.91ZM217.01,121.02h-6.95l-1.54-4.91h8.49v4.91ZM226.04,121.02h-6.95v-4.91h8.49l-1.54,4.91ZM228.2,114.09h-9.12v-4.91h10.66l-1.54,4.91ZM210.7,135.27c-.76,0-1.38-.62-1.38-1.38s.62-1.38,1.38-1.38,1.38.62,1.38,1.38-.62,1.38-1.38,1.38ZM225.45,135.27c-.76,0-1.38-.62-1.38-1.38s.62-1.38,1.38-1.38,1.38.62,1.38,1.38-.62,1.38-1.38,1.38ZM166.68,96.26h-47.38c-1.41,0-2.55-1.14-2.55-2.55s1.14-2.55,2.55-2.55h47.38c1.41,0,2.55,1.14,2.55,2.55s-1.14,2.55-2.55,2.55ZM166.68,108.31h-47.38c-1.41,0-2.55-1.14-2.55-2.55s1.14-2.55,2.55-2.55h47.38c1.41,0,2.55,1.14,2.55,2.55s-1.14,2.55-2.55,2.55ZM166.68,120.36h-47.38c-1.41,0-2.55-1.14-2.55-2.55s1.14-2.55,2.55-2.55h47.38c1.41,0,2.55,1.14,2.55,2.55s-1.14,2.55-2.55,2.55Z"/><rect class="uuid-2ce83c5d-4887-4fd3-8df7-20da61c9f03b" width="350" height="200"/></svg>