<?xml version="1.0" encoding="UTF-8"?>
<svg id="Capa_1" xmlns="http://www.w3.org/2000/svg" version="1.1" viewBox="0 0 377.2 114.6">
  <!-- Generator: Adobe Illustrator 29.6.1, SVG Export Plug-In . SVG Version: 2.1.1 Build 9)  -->
  <defs>
    <style>
      .st0 {
        fill: #8d989e;
      }
    </style>
  </defs>
  <path class="st0" d="M364.2,37.8c6.2,0,12.3,3.1,12.9,9.7,1,9.7-7.1,22.5-12.9,29.9-6.3,7.9-14.9,16-22.8,22.3s-7.8,5.8-11.7,8.6-6.4,4.5-9.8,6.3l16.4-14.9c10.4-10.3,21-21.2,27.8-34.3,3.3-6.3,8-17.4,0-22.1s-4.6-2.2-6.1-2.2h-7c-.2,0-1.2.7-1.3,0,3.2-1.1,6.4-2.3,9.8-2.8s3.3-.5,4.6-.5Z"/>
  <path class="st0" d="M224.6,65.9c3.5.4,7.9,3.3,8.3,7.1.5,5.7-2.2,9.1-7.7,10.3,3.1,4.5,5.7,10.8,10.1,14.1s4.4,2.3,2,2.8-5.8-.3-8.2,0l-.4-.2c-1.9-3.2-3.8-6.5-5.9-9.7s-2.5-4-3.8-5.5-2.2-.6-3.7-.7c.4,3.5-.9,8-.2,11.3s4,2.3,5.7,3.3v1.4s-16.5,0-16.5,0c-.4-2.3,2-1.8,3.4-2.7s1.2-1.1,1.3-1.8v-26.5c-1.6-1.3-3.6-1.6-5.5-2.2v-1.2s21,0,21,0ZM215.4,80.8h4.7c.6,0,2.3-.4,3-.6,5-1.4,4.9-9.1.2-10.6s-1.5-.4-1.6-.4h-6.4v11.5Z"/>
  <path class="st0" d="M22.6,82c-.1.6,0,.4.3.5,1.5.9,3.5,1.3,5,2.7,3.4,3.3,2.7,9.5-.9,12.4-5.3,4.3-15.1,2.3-21.6,2.4s-3.6.5-5.4.3c-.5-2,1.3-1.7,2.8-2.4,2.2-.9,2.6-1.6,2.7-4,.5-7.5-.4-15.7,0-23.2-.4-2.5-3.4-2.9-5.5-3.3v-1.4c4.6,0,9.2,0,13.8,0s5.1-.4,8.1.5c8.3,2.3,9,12.9.6,15.6ZM11.1,80.3h6.1c.9,0,3.2-1.1,3.8-1.7,2.3-2.2,1.8-7.5-1.4-8.9s-2.1-.7-2.4-.7h-5.8l-.4.4v10.9ZM11.4,96.6h7.1c.2,0,3-.9,3.2-1.1,3-1.8,2.8-7,.3-9.2s-5.7-2.1-8.1-2.2-1.6,0-2.5.2v12.2Z"/>
  <path class="st0" d="M54,65.2c26.6-2.6,23.1,39.7-1.7,35.4-18.6-3.2-17.9-33.5,1.7-35.4ZM54.5,68.6c-10.2,1.2-10.1,15.7-6.9,22.9s13.7,8.1,16.9,0,1.6-24.2-9.9-22.9Z"/>
  <path class="st0" d="M164.2,100.2v-1.6c1.5-.6,3-1.1,3.9-2.5l13.4-31c.5-.7,2.1-.4,2.9-.3l12.7,31c.9,1.6,2.9,2.3,4.6,2.7v1.7s-16.1,0-16.1,0v-1.6s4.5-1.6,4.5-1.6l-2.4-7.7h-12c0,.1-2.9,7.7-2.9,7.7l4.1,1.6v1.6s-12.7,0-12.7,0ZM177,86.3h9.4l-4.7-12-4.7,12Z"/>
  <path class="st0" d="M148.4,65.9l-.2,1.3c-.8.3-3.8.8-3.8,1.9l7.8,19.6c.4.1.6-.7.7-1,2.7-5.9,4.8-12.4,6.6-18.6,0-1.2-2.1-1.4-3.1-1.8v-1.4s11.3,0,11.3,0v1.4c-2.4.3-3.5,2.2-4.4,4.2l-11.5,29.3h-2c-3.6-10.4-7.6-20.6-11.9-30.7-.3-.5-1-1.3-1.5-1.6-1.1-.8-3-.8-2.6-2.5h14.6Z"/>
  <path class="st0" d="M79,100.2v-1.7c1.8-.4,5.1-1.2,5.5-3.3v-25.3c-.5-1.8-3.7-2.1-5.2-2.7l-.2-1.3h17.3s-.2,1.3-.2,1.3c-1.1.3-5.2,1.5-5.5,2.4l-.3,26.5h10.4c.4,0,1.9-1,2.2-1.4.9-1,1.3-2.7,1.7-3.9h1.6s-.5,9.3-.5,9.3h-26.9Z"/>
  <path class="st0" d="M129,65.9c0,.4,0,.9-.1,1.2-.6.9-4.6.5-5.1,3.5.2,7-.5,14.6,0,21.6s.4,3.7,1,4.5,3,1.3,4.3,1.9v1.6s-16.3,0-16.3,0v-1.6c3-.7,4.6-1.3,5-4.5.7-5.7.7-14.8.3-20.6s-.1-3.6-1.8-4.7-3-1.1-3.5-1.5-.2-.9-.2-1.3h16.6Z"/>
  <path class="st0" d="M44,31.8l2.4,4.2,5.2,6.9v-8.8c0-1.1-1.4-1.3-2.1-1.7s-.4,0-.3-.5h7v.7c-.1,0-1.8.9-1.8.9,0,.6-.4,1.9-.4,2.3v13.3l-2.1-.2-8.9-12c-.4,2.3,0,4.6.1,6.8s-.2,3.5.3,3.9,1.9,0,1.6,1.3h-6.7c-.2-1.3,1.2-.7,1.7-1.8s.4-3.5.5-4.3c0-1.9.3-7,0-8.6s-1.2-1.6-2.1-1.6v-.7s5.5,0,5.5,0Z"/>
  <path class="st0" d="M86.7,48.8c0-1.4,2.2-.8,2.4-2-.4-3.9.5-8.7,0-12.5s-1.3-1.4-2.4-1.7l-.2-.8c2.6-.2,5.2-.4,7.8-.3,3.9.2,8.1,1.2,6.6,6.2s-1.7,2-3.1,2.7-.4,0-.3.4c.3.9,3.1,5,3.8,5.8s2.2,1.2,2.4,2.3h-4.7l-4.8-7.4-1.8-.2v5.6c.6,1,2.8.7,2.6,2h-8.4ZM92.5,39c2.9.7,6.4-.4,5.2-4.1s-3.9-1.5-5.2-1.4v5.5Z"/>
  <path class="st0" d="M169,48.8v-.7c.1,0,2.1-.8,2.1-.8.1-.6.3-1.1.3-1.7.2-2.6.3-8.9,0-11.3s-.3-.8-.6-1.1-3.1-.7-1.8-1.6,8.2-.2,9.2,0c3.7.3,6.2,2.3,4.9,6.3s-1.9,2.1-3.3,2.6v.3c1.3,2,2.3,4.3,4,5.9s2.1,1.1,2,2.2h-4.4l-5-7.7-1.6-.2v5.9c.6,1,2.4.9,2.6,2h-8.4ZM174.6,39.2c2.2-.2,5.8.1,5.8-3s-1.1-2.8-2.3-2.8h-3.5v5.8Z"/>
  <path class="st0" d="M271.8,79.1c-4.4,6.5-5.1,13.8,0,20.2v.2c-2.1-.5-5.1-2.8-6.5-4.4-6.8-8.1-.6-15.9,6.5-20.8s6.9-4.1,10.6-5.4c-4.1,3-7.7,6-10.6,10.2Z"/>
  <path class="st0" d="M158.7,31.6c14.6-2,11.9,21.8-1.5,17.4-8.3-2.7-7.3-16.2,1.5-17.4ZM158.9,33.5c-5.6,1-4.6,12.8-.1,13.9,6.4,1.7,7-7,5.4-11.1s-2.7-3.3-5.2-2.8Z"/>
  <path class="st0" d="M28.3,31.6c13.4-1.6,12,18.6,1.1,17.9s-10.7-16.8-1.1-17.9ZM32.6,34.5c-1.5-1.5-4.6-1.4-6.2,0-2.9,2.6-2.3,11.8,2,12.9,7,1.8,7.3-10,4.2-13Z"/>
  <path class="st0" d="M111.2,31.8c-.4,1-1.5,1-2.2,1.5-1.3,1.1-.4,3.9-1,5.5.2,3.2,0,8.1,4.5,8.1s3.8-3.3,4-6.1.2-6,0-6.9-2.5-.9-2.6-2.1h7.2c0,1-1.6.9-1.9,1.6-.3,1,0,5,0,6.5s-.3,5-1.3,6.7c-1.5,2.7-4.5,2.8-7.3,2.6-8.1-.6-5.3-9.2-5.4-14.7-.3-1.5-2.5-1.2-2.8-2.6h8.9Z"/>
  <path class="st0" d="M186.8,48.8c-.5-.4,2.3-2,2.3-2.6l6.1-14.3c.2-.5,1.5-.7,1.7,0l5.9,14.8c.4,1.2,2.4.9,2.2,2.2h-7.9c-.2-1.1,1.3-1.3,2.2-1.4l-1-3.6h-5.8c0,.1-1.1,3.2-1.1,3.2.1.6,2,.8,1.6,1.8h-6.2ZM197.4,42.1c0-.8-1.5-5-2-5l-2,5h4.1Z"/>
  <path class="st0" d="M67.7,32.6l-.2,4c-2-.2-.5-2.7-2.8-2.9s-4.4.5-3.6,3.1,5.7,3,7,5.3c2.1,3.9-1.4,6.9-5.1,7.4s-5.3.1-5.6-1.3.2-5.5,1.4-4.4c.4,1.8,0,3.3,2.3,3.6s4.6-.8,3.8-3.4-7.6-3.3-7.6-7.5,6.9-6.1,10.3-3.9Z"/>
  <path class="st0" d="M135.2,36.6c-1.1,0-1.1-1.5-1.6-2.2-1.3-1.7-5.4-.7-6.9.5-3,2.6-2.6,10.4,1.6,11.7s3.3.4,4.2.1c1.6-.5,1.1-2.7,2.6-3l.3,4.6c-4.9,2.4-13.6.1-14.4-6s4.8-11.6,11.6-11.1,2,.2,2.5.6v4.7Z"/>
  <path class="st0" d="M19.5,31.8v4.8c-1.2.2-1.1-1.2-1.6-1.9-1.3-2-5.4-1.1-7,.2-3.1,2.6-2.7,10.7,1.6,11.8s3.4.3,4.3,0c1.5-.5.9-2.9,2.6-2.8v4.4c-7,3-16.4-1.6-14.1-10.2s8.6-7.9,14.1-6.5Z"/>
  <path class="st0" d="M324.1,99.7h-6.7c5.9-4,12.6-7.7,15.1-14.8s1.2-6.3,0-10c1.6,1.2,2.8,3.8,3.2,5.8,2,8.8-5.1,14.7-11.6,19Z"/>
  <path class="st0" d="M84.1,31.6v4.8c-1.2,0-1.2-2.2-1.9-2.5h-3.4c.3,3.9-.6,8.8.2,12.7s2.3,1,2.4,2.3h-8.2c0-1.3,1.3-1,2-1.7s.6-2.9.7-3.7c.2-3.1-.2-6.4,0-9.6-.9-.4-2.5-.6-3.4-.1s-.7,2.6-1.9,2.6c-.2-1.7-.4-3.1,0-4.8h13.4Z"/>
  <path class="st0" d="M150.6,31.8c.4,1.5.4,3.1,0,4.6-1,0-1-1.3-1.5-2-.9-1.3-2.2-.8-3.6-.9v13.1c0,.8,2,1.2,2.4,1.9,0,0-.6.4-.6.4h-7.6c0-1.1,1.4-.9,2-1.7s.5-1.2.5-1.6c.3-2,.3-9,0-11s-2.1-1.3-3.2-.8-1.2,1.8-1.4,2.6h-.7c-.4-1.5-.3-3,0-4.6h13.4Z"/>
  <path class="st0" d="M117,64c0-.4,0-.6.2-.8.5-1,6.5-7.7,7.5-8.4,3.3-2.2,6.2,1.9,3.6,4.3s-7.8,4.7-8.4,4.8c-.9.2-1.9,0-2.9.1Z"/>
  <path class="st0" d="M285.9,97.3c3.2-10.9,13.9-16.3,24.5-17.5.2.1-3.2,2.1-3.5,2.3-2.9,2.1-5.2,4.4-7.7,6.9s-2.2,1.6-3.1,2.6c-1.4,1.5-2.3,3.7-2.9,5.6h-7.2Z"/>
  <path class="st0" d="M330.1,72.6c1.4-3.5,2.2-7.3-1.3-9.8-7.3-5.4-19.2,7.2-13.1,14.3s2.7,2,2.4,2.3c-7.8-.6-8.7-8.5-4.9-14.1s7.9-7.1,13.1-6.5c7.4.9,8.8,9.4,3.7,13.9Z"/>
  <path class="st0" d="M300.6,43.6c-2.5,1.8-5.2,3.2-7.6,5s-6.7,6.3-7.7,10.1-.2,2-.4,3-.1.7-.5.4c-5.2-9.1,4.3-14.7,11.6-17.3s3-1.1,4.4-1.2Z"/>
  <path class="st0" d="M345.9,41.4c-6.5-3.1-11.5-11.1-7.3-18,1.2,4.9,2.7,9.5,5,13.9s2.4,3.9,2.3,4.1Z"/>
  <path class="st0" d="M339.2,11.4c-2.9.2-6.1-.2-9,0s-3,.8-4,.7-4.6-1.4-6.1-1.9-.4.1-.4-.5c5.8-1.7,11.8-2,17.4.4s1.6.7,2,1.2Z"/>
  <path class="st0" d="M339.4,17.4c.2,1-1.1.3-1.6.3-1.7,0-4.5.8-6,.7s-4.4-1.6-4.9-1.9-.6-.3-.6-.8c4.5-.5,8.9-.5,13,1.7Z"/>
  <path class="st0" d="M301.8,6.6c9.5-8.2,24.2-8.9,34.3-1.3.4.3,1.1.5,1,1.1-2.7-.8-5.5-1.5-8.3-1.9-5.4-.8-10.7-.7-15.9,1.3-.5.2-1.2.3-1.5.8-2,.3-8.4,6.2-8.6,7.8s3.8,2.3,4.5,2.9c.6,2.4,1.1,4.9,1.8,7.2s1.5,4.8,2.3,5.2,2.3.5,3.2.9c3,1.2,7.3,3.9,8.2,7.2s0,4.5.1,6.9c.5.9,3.6-.9,4.3-1.3,2.3-1.4,4.2-3.3,5.9-5.4,0,1.3-.8,3-1.5,4.1-1.1,1.7-5.6,6-7.7,6s-1.3-.7-2-.7c-2.2,6.9-6.8,13-11.9,18s-5,4.6-5.4,4.7c-1.6.5-6.8-2.8-7.8-4.2s-.3-.7-.6-1.1c2.1,1,5.2,2.6,7.6,2.5s5.2-4.4,6.1-5.4c4.2-4.7,7.2-10.5,8.9-16.6v-.3c-4.3-3.1-7.6-7.3-10.2-11.8-10.7,0-26.2,6.8-31.9,16.1s-3.3,13.9-.1,20.9l-2.4-3c-.8-1.6-1.9-3.2-2.4-4.9-1.4-4.1-1.1-7.9,0-12,2.7-6,7.8-10.4,13.2-13.8s10.9-5.9,17.2-6.8,4.1-.2,4.2-.6l-3.3-9.6c-1.2-.8-5.8-1.6-6.2-3.2s3.4-8.3,5-9.7ZM319.5,41.6c.8-4.2-2.5-6.4-6-7.4-.5.5,4.4,6.7,5.1,7.2s.5.3.9.2Z"/>
  <path class="st0" d="M282.7,68.5c.2,0,.2.2,0,.2v-.2Z"/>
  <path class="st0" d="M292.2,52l.7,2.1c1,6.1-1,13.3-6.5,16.6,2.6-6,4.9-12.2,5.9-18.7Z"/>
  <path class="st0" d="M295.9,64.2c.2,0,.2.2,0,.2v-.2Z"/>
</svg>