<?xml version="1.0" encoding="UTF-8"?>
<svg id="uuid-e0f0fdc5-eda2-410e-9aa2-9a83d19853c9" xmlns="http://www.w3.org/2000/svg" version="1.1" viewBox="0 0 350 200">
  <!-- Generator: Adobe Illustrator 29.6.1, SVG Export Plug-In . SVG Version: 2.1.1 Build 9)  -->
  <defs>
    <style>
      .st0 {
        fill: none;
      }

      .st1 {
        fill: #fff;
      }
    </style>
  </defs>
  <rect class="st0" width="350" height="200"/>
  <path class="st1" d="M65,134.8c4.7-14.5,20.3-15.6,33.2-17.4,2.9-8.1,5-16.9,4.5-25.6-.7-2-16.3-9.3-19.2-11.1s-4.7-3.1-5.2-5.7c-2.1-10.3,9.6-9.4,16.2-7.5,6,1.7,10.9,5.8,12.6,11.9s1,9.2,1.5,10.2,1.8,1,2.5,1.8c11.1,12.8,11.2,30.1-8.8,31.5-2.2,8.4-6.3,19.7-14.2,24.4-9.3,5.6-18.8,3.3-23.1-6.7v-5.7ZM102.2,84.6c.5-7.9-6.4-12-13.5-12.5s-4.3-.5-5.4.9c-.5,2.6,16.7,9.3,18.9,11.7ZM104.5,117.1c10.8-.9,10.3-13,4.3-19.4l-4.3,19.4ZM96.5,123.4c-7.8.9-19,1.9-24,8.8-5.2,7.3.7,13.8,8.7,12.1,8.3-1.7,13.3-13.7,15.3-21ZM221.9,127.1c-.5,2.8-6.2,2.9-6.9-.6v-40c.5-5.4,6-6,6.9-.8,12.3-8.9,28.1.3,27.5,15.2s-16.1,22-27.5,13.4v12.8ZM229.2,89.9c-2.8.6-5.7,3.9-6.6,6.6-3.6,11.5,10.7,19.7,17.6,10.1s-.6-18.8-11-16.7ZM171.5,104c2.4,6.2,8.7,8.1,14.7,5.8s7.5-6.6,9.6-2.4-7.3,9.9-11.5,10.3c-30.4,3.1-24.6-42.8,2.1-34.7,6.5,2,13.1,10.3,12.5,17.2s-2.2,3.8-3.7,3.8h-23.8ZM191,96.6c-2.9-9.2-16.7-9.5-19.5,0h19.5ZM153.2,74.6v30.3c-.5,5.6-7.2,8.2-10.6,3.7s-.7-8.9-6.2-7.3c-4.3,1.3-1.4,8.7.5,11.3,5.8,7.8,17.2,6.8,21.7-1.1s1.2-3,1.2-4.6l.8-32.2c-.4-3.1-2-4.6-5.3-3.7s-2,2.3-2.1,3.6ZM273.8,70.9c-4.3.7-2.1,8.3-2.6,11.4h-3.3c-2,0-3.7,1.7-3.7,3.7h0c0,2,1.7,3.7,3.7,3.7s2.5,0,3.3,0v24.7c0,1.9,1.5,3.4,3.4,3.4h0c1.9,0,3.4-1.5,3.4-3.4v-24.7s3.3,0,3.3,0c2,0,3.7-1.6,3.7-3.7h0c0-2.1-1.7-3.7-3.7-3.7h-3.3c-.3-3.4,1.8-12.5-4.3-11.4ZM202.4,74v40.6c.5,4.2,6.4,4.4,6.9,0v-40.6c-.2-2.4-2.4-3.7-4.8-3s-2,1.7-2.2,3ZM257.7,82.3c-2.1,0-3.7,1.7-3.7,3.7l.2,28.1c0,2,1.7,3.7,3.7,3.7h0c2,0,3.7-1.7,3.7-3.7v-28.1c-.1-2-1.8-3.7-3.8-3.7h0ZM90.5,49.7c-3.6,0-6.5,2.9-6.5,6.5s2.9,6.5,6.5,6.5,6.5-2.9,6.5-6.5-2.9-6.5-6.5-6.5ZM257.8,70.9c-2.4,0-4.4,2-4.4,4.4s2,4.4,4.4,4.4,4.4-2,4.4-4.4-2-4.4-4.4-4.4Z"/>
</svg>