<?xml version="1.0" encoding="UTF-8"?><svg id="uuid-1154da87-ef62-49d1-b67c-077f9fcce1e6" xmlns="http://www.w3.org/2000/svg" viewBox="0 0 350 200"><defs><style>.uuid-07aa866e-cb5e-46ce-81c3-34ba6b5fa794{fill:none;}.uuid-17a194b7-5671-4fbe-82a9-ff27c0af2926{fill:#fff;}</style></defs><rect class="uuid-07aa866e-cb5e-46ce-81c3-34ba6b5fa794" width="350" height="200"/><path class="uuid-17a194b7-5671-4fbe-82a9-ff27c0af2926" d="M118.93,95.56c-4.56,6.69-13.56,8.74-20.55,4.48-1.62-.98-3.79-2.69-6.1-4.86-12.88,3.5-27.29,9.98-27.29,17.4,0,11.09,32.15,20.12,43.23,20.12s20.08-9,20.08-20.12-3.75-13.47-9.42-17.01h.04Z"/><path class="uuid-17a194b7-5671-4fbe-82a9-ff27c0af2926" d="M118.93,95.56c.13-.21.3-.43.43-.68,4.39-7.21,2.09-16.59-5.16-20.98-7.16-4.39-31.64-11.21-36.07-4.01-3.41,5.59,6.22,17.95,14.11,25.28,6.35-1.71,12.32-2.69,15.99-2.69s7.59,1.11,10.66,3.07h.04Z"/><path class="uuid-17a194b7-5671-4fbe-82a9-ff27c0af2926" d="M155.9,83.54c.72.3,1.41.68,1.92,1.19.55.47.98,1.07,1.36,1.62.34.6.6,1.28.77,1.92.17.68.26,1.41.26,2.09,0,1.24-.21,2.34-.72,3.41-.47,1.07-1.15,1.92-1.96,2.64s-1.79,1.32-2.9,1.71c-1.15.38-2.3.55-3.62.55h-9.64c-.81,0-1.45-.17-1.75-.51-.3-.34-.47-.9-.47-1.75v-23.11c0-.72.13-1.32.47-1.71.3-.38.9-.55,1.75-.55h9.17c1.24-.04,2.34.09,3.41.34s1.96.64,2.69,1.24c.72.55,1.36,1.28,1.79,2.13s.64,1.92.64,3.11-.3,2.26-.85,3.24c-.6.94-1.36,1.71-2.22,2.17v.3h-.04l-.04-.04ZM143.96,81.79h6.35c.38,0,.77-.04,1.24-.13s.81-.26,1.24-.51c.34-.26.64-.55.9-1.07.21-.43.34-.98.34-1.71s-.3-1.71-.9-2.22c-.6-.55-1.45-.81-2.52-.81h-6.61v6.44h-.04ZM155.22,90.06c0-1.28-.38-2.3-1.24-3.11-.77-.77-1.96-1.19-3.54-1.19h-6.52v8.57h6.48c.94,0,1.71-.13,2.3-.43.6-.26,1.11-.6,1.49-1.07.34-.43.6-.85.77-1.41.13-.51.21-.98.21-1.45"/><path class="uuid-17a194b7-5671-4fbe-82a9-ff27c0af2926" d="M178.58,96.42c0,.64-.26,1.11-.72,1.32-.55.26-1.24.47-1.88.64s-1.36.3-2.05.43c-.68.09-1.45.17-2.13.21s-1.36.04-2,.04c-1.75,0-3.2-.17-4.31-.51-1.15-.34-2.05-.81-2.73-1.45-.64-.6-1.15-1.32-1.41-2.09s-.38-1.66-.38-2.52.13-1.79.43-2.64c.3-.81.77-1.62,1.49-2.22.68-.64,1.58-1.19,2.64-1.58,1.11-.38,2.43-.6,4.01-.6h4.39v-.64c0-.51-.04-.94-.17-1.41-.09-.43-.3-.77-.6-1.11s-.68-.55-1.24-.72-1.24-.26-2.05-.26-1.88.09-2.9.26c-1.07.17-1.92.34-2.56.55-.3.09-.51.09-.64.04-.13-.04-.21-.21-.26-.43l-.47-2.26c-.09-.43,0-.68.34-.81,1.11-.43,2.3-.72,3.62-.85,1.32-.17,2.52-.26,3.71-.26,2.73,0,4.73.6,6.01,1.83,1.28,1.24,1.92,2.94,1.92,5.29v11.81l-.09-.09ZM173.93,89h-3.79c-.43,0-.9.04-1.45.09-.51.04-.98.21-1.49.43-.47.26-.81.55-1.15,1.07-.3.43-.43,1.11-.43,1.88,0,1.15.38,1.92,1.15,2.39.72.43,1.79.64,3.07.64h.77c.34,0,.64-.04,1.07-.09s.72-.13,1.19-.17c.38-.09.77-.17,1.15-.3v-5.93h-.09Z"/><path class="uuid-17a194b7-5671-4fbe-82a9-ff27c0af2926" d="M189.03,81.45c-.3,0-.68,0-1.24.04-.55,0-1.19.09-1.88.21v16.33c0,.3-.04.47-.17.55-.09.09-.3.13-.55.13h-3.11c-.26,0-.43-.04-.55-.13-.13-.09-.17-.26-.17-.55v-16.88c0-.94.17-1.71.51-2.22.34-.51,1.07-.85,2.13-1.07.26,0,.6-.04,1.07-.13.43-.04.9-.09,1.41-.13.51-.04.98-.04,1.45-.09.47,0,.85-.04,1.24-.04,1.75,0,3.24.17,4.52.55s2.3.94,3.16,1.75c.81.77,1.45,1.83,1.83,3.16.38,1.28.6,2.81.6,4.65v10.4c0,.3-.04.47-.17.55-.09.09-.3.13-.55.13h-3.11c-.26,0-.43-.04-.55-.13-.13-.09-.17-.26-.17-.55v-10.45c0-1.07-.09-1.92-.26-2.64s-.47-1.41-.85-1.88c-.43-.51-.98-.85-1.71-1.15-.77-.3-1.71-.43-2.77-.43"/><path class="uuid-17a194b7-5671-4fbe-82a9-ff27c0af2926" d="M211.03,95.14c.81,0,1.71-.13,2.52-.3.81-.21,1.53-.43,2.09-.68.3-.13.47-.17.6-.13s.21.17.3.38l.98,2.26c.26.43.17.72-.26.98-1.11.6-2.22.98-3.5,1.24s-2.39.3-3.5.3c-2.94,0-5.2-.9-6.74-2.69s-2.34-4.43-2.34-7.97.21-3.16.64-4.48,1.11-2.52,1.92-3.5,1.83-1.71,2.98-2.22c1.19-.51,2.47-.77,3.97-.77s2.13.13,3.16.34c.98.21,1.96.55,2.81,1.07.26.13.38.26.43.38s0,.34-.13.6l-.98,2.3c-.09.21-.21.34-.34.38-.13.04-.34,0-.64-.13-.64-.26-1.32-.43-1.96-.6-.68-.17-1.41-.26-2.17-.26s-1.66.17-2.3.55c-.64.38-1.19.85-1.58,1.53s-.68,1.36-.85,2.17-.26,1.71-.26,2.56.09,1.79.26,2.56c.17.81.43,1.53.81,2.09.38.6.9,1.11,1.58,1.45.6.38,1.45.55,2.47.55"/><path class="uuid-17a194b7-5671-4fbe-82a9-ff27c0af2926" d="M237.38,88.23c0,3.5-.81,6.18-2.43,8.06s-4.01,2.81-7.25,2.81-5.59-.9-7.08-2.73c-1.58-1.83-2.34-4.48-2.34-8.02s.26-3.28.68-4.6c.47-1.36,1.15-2.47,1.96-3.41.81-.9,1.83-1.62,2.98-2.09,1.19-.47,2.43-.72,3.88-.72,3.16,0,5.5.94,7.08,2.86,1.71,1.88,2.47,4.48,2.47,7.84M232.73,88.36c0-.94-.09-1.83-.21-2.69-.13-.81-.38-1.58-.72-2.22-.34-.64-.85-1.19-1.49-1.53s-1.41-.55-2.34-.55-1.58.17-2.22.51c-.6.34-1.15.81-1.58,1.45-.43.6-.72,1.36-.9,2.17-.21.85-.3,1.75-.3,2.73,0,2.17.34,3.92,1.07,5.2.68,1.28,1.96,1.88,3.79,1.88s1.71-.17,2.3-.55c.64-.38,1.15-.85,1.53-1.53.38-.6.64-1.36.81-2.22.21-.81.3-1.71.3-2.6"/><path class="uuid-17a194b7-5671-4fbe-82a9-ff27c0af2926" d="M175,130.44c0,.64-.26,1.07-.72,1.32-.55.26-1.24.47-1.88.64-.68.17-1.41.34-2.09.43s-1.45.17-2.09.21c-.68.04-1.41.04-2,.04-1.75,0-3.24-.17-4.35-.51-1.19-.34-2.05-.81-2.73-1.45-.64-.6-1.15-1.32-1.41-2.13-.26-.77-.38-1.66-.38-2.52s.17-1.83.47-2.69c.3-.85.77-1.62,1.49-2.26.68-.64,1.58-1.19,2.69-1.58,1.11-.38,2.43-.6,4.01-.6h4.39v-.64c0-.47-.04-.94-.13-1.41-.13-.38-.3-.77-.6-1.11s-.72-.55-1.28-.68c-.55-.17-1.24-.26-2.09-.26s-1.88.09-2.94.26c-1.07.13-1.92.3-2.56.55-.3.09-.47.09-.6.04-.13-.04-.21-.17-.26-.43l-.55-2.26c-.09-.43,0-.68.34-.81,1.11-.38,2.34-.72,3.67-.9,1.36-.17,2.56-.26,3.75-.26,2.73,0,4.73.6,6.05,1.83,1.32,1.24,1.92,2.98,1.92,5.37v11.85h-.04l-.09-.09ZM170.35,122.89h-3.84c-.43,0-.9.04-1.45.09-.51.04-.98.21-1.49.43-.43.26-.81.55-1.15,1.07-.3.43-.43,1.11-.43,1.88,0,1.15.38,1.96,1.15,2.39s1.79.68,3.07.68.43,0,.77-.04c.34,0,.68-.04,1.07-.09.34-.04.77-.13,1.19-.21s.77-.17,1.15-.3v-5.88h-.04Z"/><path class="uuid-17a194b7-5671-4fbe-82a9-ff27c0af2926" d="M204.67,130.44c0,.64-.26,1.07-.72,1.32-.55.26-1.24.47-1.88.64-.68.17-1.41.34-2.09.43-.72.09-1.45.17-2.13.21s-1.41.04-2,.04c-1.75,0-3.2-.17-4.35-.51s-2.09-.81-2.73-1.45c-.64-.6-1.15-1.32-1.41-2.13-.26-.77-.38-1.66-.38-2.52s.17-1.83.47-2.69.77-1.62,1.49-2.26,1.62-1.19,2.69-1.58,2.43-.6,4.01-.6h4.43v-.64c0-.47-.04-.94-.17-1.41-.09-.38-.3-.77-.6-1.11-.3-.3-.72-.55-1.28-.68-.51-.17-1.24-.26-2.09-.26s-1.88.09-2.9.26c-1.07.13-1.92.3-2.56.55-.3.09-.47.09-.6.04s-.21-.17-.3-.43l-.55-2.26c-.13-.43,0-.68.34-.81,1.15-.38,2.34-.72,3.67-.9,1.36-.17,2.56-.26,3.75-.26,2.73,0,4.78.6,6.05,1.83s1.92,2.98,1.92,5.37v11.85h0l-.09-.09ZM200.03,122.89h-3.84c-.47,0-.94.04-1.45.09-.51.04-.98.21-1.49.43-.47.26-.85.55-1.19,1.07-.3.43-.43,1.11-.43,1.88,0,1.15.34,1.96,1.15,2.39.72.43,1.79.68,3.07.68s.43,0,.77-.04c.3,0,.68-.04,1.07-.09.34-.04.72-.13,1.19-.21s.77-.17,1.15-.3v-5.88h.04-.04Z"/><path class="uuid-17a194b7-5671-4fbe-82a9-ff27c0af2926" d="M237.12,111.38c3.07,0,5.33.77,6.78,2.34,1.49,1.58,2.17,3.71,2.17,6.44s-.09,1.28-.26,1.75c-.13.43-.38.77-.64,1.07-.3.26-.64.47-.98.55-.38.13-.77.17-1.28.17h-10.53c.04,1.07.17,1.92.47,2.6s.68,1.28,1.19,1.71c.51.43,1.11.72,1.75.9.68.17,1.41.26,2.17.26s1.71-.13,2.47-.3c.81-.21,1.53-.47,2.13-.72.38-.17.68-.13.85.21l1.11,2.26c.17.43.09.72-.26.9-.98.6-2.09,1.07-3.33,1.28-1.19.21-2.3.34-3.41.34-3.24,0-5.67-.85-7.38-2.56s-2.56-4.43-2.56-8.19.26-3.33.72-4.65c.47-1.41,1.15-2.52,1.96-3.45s1.83-1.66,2.98-2.13c1.15-.55,2.39-.77,3.79-.77M237.16,115.17c-.68,0-1.36.13-1.92.43s-1.07.64-1.45,1.15-.68.98-.94,1.62c-.21.6-.38,1.24-.38,1.92h9.17c0-.72-.09-1.36-.21-2-.13-.6-.34-1.15-.68-1.62-.34-.47-.77-.81-1.36-1.11-.51-.26-1.28-.38-2.17-.38"/><path class="uuid-17a194b7-5671-4fbe-82a9-ff27c0af2926" d="M284.91,130.44c0,.64-.26,1.07-.77,1.32-.55.26-1.19.47-1.88.64s-1.41.34-2.09.43c-.72.09-1.45.17-2.13.21s-1.41.04-2,.04c-1.75,0-3.2-.17-4.35-.51s-2.05-.81-2.73-1.45c-.64-.6-1.15-1.32-1.41-2.13-.26-.77-.38-1.66-.38-2.52s.13-1.83.47-2.69c.3-.85.77-1.62,1.49-2.26s1.58-1.19,2.64-1.58,2.43-.6,4.05-.6h4.43v-.64c0-.47-.04-.94-.17-1.41-.09-.38-.3-.77-.6-1.11-.3-.3-.72-.55-1.28-.68-.51-.17-1.24-.26-2.05-.26s-1.88.09-2.94.26c-1.07.13-1.92.3-2.56.55-.3.09-.51.09-.64.04s-.21-.17-.26-.43l-.55-2.26c-.13-.43,0-.68.34-.81,1.11-.38,2.3-.72,3.67-.9s2.56-.26,3.75-.26c2.73,0,4.78.6,6.05,1.83,1.28,1.24,1.92,2.98,1.92,5.37v11.85h.04l-.09-.09ZM280.22,122.89h-3.84c-.43,0-.9.04-1.45.09-.51.04-.98.21-1.49.43-.47.26-.81.55-1.19,1.07-.3.43-.43,1.11-.43,1.88,0,1.15.38,1.96,1.15,2.39s1.79.68,3.07.68.43,0,.77-.04c.34,0,.68-.04,1.07-.09.38-.04.77-.13,1.19-.21.38-.09.77-.17,1.15-.3v-5.88h.04-.04Z"/><path class="uuid-17a194b7-5671-4fbe-82a9-ff27c0af2926" d="M158.07,105.03c-.09-.13-.34-.21-.68-.21h-11.21c-1.36,0-2.47.17-3.37.6-.9.38-1.66.9-2.17,1.58-.55.64-.94,1.45-1.19,2.3s-.34,1.75-.34,2.69v19.87c0,.34.09.55.21.64.17.09.38.17.68.17h1.28c.85-.04,2.64-.47,2.64-3.11v-9.17h11.94c.34,0,.55-.09.64-.26s.13-.38.13-.68v-2.26c0-.38-.04-.6-.13-.72-.09-.13-.3-.21-.64-.21h-11.94v-4.56c0-.81.21-1.49.64-1.92.38-.43,1.11-.64,2.09-.64h10.66c.34,0,.55-.09.64-.21.13-.13.17-.34.17-.68v-2.43c.04-.34-.04-.6-.13-.72"/><path class="uuid-17a194b7-5671-4fbe-82a9-ff27c0af2926" d="M225.44,117.78c-.34-1.32-.9-2.43-1.66-3.41-.72-.94-1.66-1.71-2.81-2.22-1.15-.55-2.52-.77-4.09-.77s-1.53.04-2.43.17-1.79.3-2.52.51v-7.72c-.04-.34-.09-.51-.21-.6-.09-.09-.3-.13-.6-.13h-1.28c-.85.04-2.56.51-2.6,2.98v24.13c0,.21.04.43.13.6.09.13.26.26.47.34,1.24.51,2.47.9,3.92,1.11,1.45.21,2.81.34,4.18.34s3.28-.26,4.52-.81c1.28-.55,2.3-1.36,3.16-2.34.81-.98,1.45-2.17,1.83-3.54s.55-2.81.55-4.39-.17-2.94-.51-4.26M220.83,125.49c-.26.85-.64,1.62-1.15,2.13-.47.55-1.07.94-1.75,1.24-.64.26-1.45.34-2.26.34s-1.19,0-1.83-.09c-.68-.04-1.36-.17-2-.38v-12.71c.81-.26,1.66-.43,2.43-.51.77-.09,1.41-.13,1.79-.13,1.62,0,2.81.55,3.75,1.75.9,1.15,1.36,2.86,1.36,5.2.04,1.28-.09,2.34-.34,3.24"/><path class="uuid-17a194b7-5671-4fbe-82a9-ff27c0af2926" d="M256.31,131.76l-.26-2.22c-.04-.21-.09-.34-.17-.43-.09-.04-.21-.09-.43-.04-.17.04-.43.04-.68.09-.26.04-.51.04-.72.04-.51,0-.85-.13-1.11-.38-.17-.21-.26-.68-.26-1.41v-23.07c0-.3-.09-.47-.17-.55-.13-.09-.34-.13-.6-.13h-1.32c-.85.04-2.52.51-2.6,2.86v21.96c0,1.75.34,2.9,1.07,3.62s1.79,1.07,3.28,1.07,1.15-.04,1.79-.09c.68-.09,1.32-.21,1.83-.43.26-.13.43-.26.47-.34,0-.04,0-.21-.04-.47"/><path class="uuid-17a194b7-5671-4fbe-82a9-ff27c0af2926" d="M266.5,131.76l-.26-2.22c-.04-.21-.09-.34-.17-.43-.09-.04-.26-.09-.43-.04-.17.04-.43.04-.68.09-.26.04-.51.04-.72.04-.51,0-.85-.13-1.11-.38-.17-.21-.26-.68-.26-1.41v-23.07c0-.3-.09-.47-.17-.55-.09-.09-.3-.13-.6-.13h-1.28c-.85.04-2.6.51-2.6,3.07v21.79c0,1.75.34,2.9,1.07,3.62s1.79,1.07,3.28,1.07,1.15-.04,1.83-.09c.64-.09,1.28-.21,1.79-.43.26-.13.43-.26.47-.34-.04-.04-.04-.21-.09-.47"/><path class="uuid-17a194b7-5671-4fbe-82a9-ff27c0af2926" d="M186.34,131.76l-.26-2.22c-.04-.21-.09-.34-.17-.43-.09-.04-.26-.09-.47-.04-.17.04-.43.04-.68.09-.26.04-.51.04-.72.04-.51,0-.85-.13-1.07-.38-.21-.21-.3-.68-.3-1.41v-23.07c0-.3-.04-.47-.17-.55-.13-.09-.3-.13-.6-.13h-1.32c-.85.04-2.6.51-2.6,3.11v21.79c0,1.75.34,2.9,1.07,3.62s1.79,1.07,3.28,1.07,1.15-.04,1.79-.09c.64-.09,1.28-.21,1.79-.43.26-.13.43-.26.47-.34.09-.09.09-.26.04-.51"/></svg>