<svg width="477" height="144" viewBox="0 0 477 144" fill="none" xmlns="http://www.w3.org/2000/svg">
<g clip-path="url(#clip0_1_7357)">
<path d="M117.364 62.5202C107.49 77.0404 88.0178 81.4797 72.8832 72.2312C69.3765 70.104 64.67 66.4046 59.6867 61.6878C31.8169 69.2716 0.625 83.3294 0.625 99.4219C0.625 123.468 70.207 143.075 94.2008 143.075C118.195 143.075 137.666 123.561 137.666 99.4219C137.666 75.2832 129.546 70.1965 117.272 62.5202H117.364Z" fill="white"/>
<path d="M117.364 62.5202C117.641 62.0578 118.01 61.5953 118.287 61.0404C127.792 45.4104 122.809 25.0636 107.121 15.5375C91.6168 6.01153 38.6459 -8.78616 29.0484 6.8439C21.6657 18.9595 42.5218 45.7803 59.5943 61.6878C73.3446 57.9884 86.2644 55.8612 94.2008 55.8612C102.137 55.8612 110.627 58.2659 117.272 62.5202H117.364Z" fill="white"/>
<path d="M197.374 36.4393C198.943 37.0867 200.419 37.919 201.527 39.0289C202.727 40.0462 203.649 41.341 204.48 42.5433C205.218 43.8381 205.772 45.3179 206.141 46.7052C206.51 48.1849 206.695 49.7572 206.695 51.237C206.695 53.919 206.233 56.3237 205.126 58.6358C204.111 60.9479 202.634 62.7977 200.881 64.3699C199.128 65.9422 197.005 67.237 194.606 68.0693C192.114 68.9017 189.622 69.2717 186.761 69.2717H165.905C164.152 69.2717 162.768 68.9017 162.122 68.1618C161.476 67.4219 161.107 66.2196 161.107 64.3699V14.2427C161.107 12.6705 161.383 11.3757 162.122 10.5433C162.768 9.71095 164.06 9.34101 165.905 9.34101H185.746C188.423 9.24853 190.822 9.52598 193.129 10.0809C195.436 10.6358 197.374 11.4682 198.943 12.763C200.512 13.9653 201.896 15.5375 202.819 17.3873C203.742 19.237 204.203 21.5491 204.203 24.1387C204.203 26.7283 203.557 29.0404 202.357 31.1676C201.065 33.2023 199.404 34.867 197.559 35.8844V36.5318H197.466L197.374 36.4393ZM171.535 32.6474H185.285C186.115 32.6474 186.946 32.5549 187.961 32.3699C188.976 32.1849 189.715 31.815 190.637 31.2601C191.376 30.7052 192.022 30.0578 192.575 28.9479C193.037 28.0231 193.314 26.8208 193.314 25.2485C193.314 23.6763 192.668 21.5491 191.376 20.4393C190.084 19.237 188.238 18.6821 185.931 18.6821H171.627V32.6474H171.535ZM195.898 50.5896C195.898 47.815 195.067 45.5953 193.221 43.8381C191.56 42.1734 188.976 41.2485 185.562 41.2485H171.442V59.8381H185.47C187.5 59.8381 189.161 59.5607 190.453 58.9133C191.745 58.3584 192.852 57.6185 193.683 56.6011C194.421 55.6763 194.975 54.7514 195.344 53.5491C195.621 52.4393 195.805 51.4219 195.805 50.4046" fill="white"/>
<path d="M246.469 64.3699C246.469 65.7572 245.915 66.7746 244.9 67.237C243.701 67.7919 242.224 68.2543 240.84 68.6243C239.456 68.9942 237.887 69.2717 236.41 69.5491C234.934 69.7341 233.273 69.9191 231.796 70.0116C230.32 70.104 228.843 70.1041 227.459 70.1041C223.675 70.1041 220.537 69.7341 218.138 68.9942C215.646 68.2543 213.708 67.237 212.232 65.8497C210.848 64.5549 209.74 62.9827 209.187 61.3179C208.633 59.6532 208.356 57.711 208.356 55.8613C208.356 54.0116 208.633 51.9769 209.279 50.1272C209.925 48.3699 210.94 46.6127 212.509 45.3179C213.985 43.9306 215.923 42.7283 218.23 41.896C220.63 41.0636 223.49 40.6012 226.905 40.6012H236.41V39.2139C236.41 38.1041 236.318 37.1792 236.041 36.1619C235.857 35.237 235.395 34.4971 234.749 33.7572C234.103 33.0173 233.273 32.5549 232.073 32.185C230.873 31.815 229.397 31.6301 227.643 31.6301C225.89 31.6301 223.583 31.815 221.368 32.185C219.061 32.5549 217.215 32.9249 215.831 33.3873C215.185 33.5723 214.724 33.5723 214.447 33.4798C214.17 33.3873 213.985 33.0173 213.893 32.5549L212.878 27.6532C212.693 26.7283 212.878 26.1734 213.616 25.896C216.016 24.9711 218.599 24.3237 221.46 24.0462C224.321 23.6763 226.905 23.4913 229.489 23.4913C235.395 23.4913 239.732 24.7861 242.501 27.4682C245.269 30.1503 246.654 33.8497 246.654 38.9364V64.5549L246.469 64.3699ZM236.41 48.2775H228.197C227.274 48.2775 226.259 48.3699 225.059 48.4624C223.952 48.5549 222.937 48.9249 221.829 49.3873C220.814 49.9422 220.076 50.5896 219.338 51.6994C218.692 52.6243 218.415 54.1041 218.415 55.7688C218.415 58.2659 219.245 59.9306 220.907 60.948C222.475 61.8728 224.782 62.3353 227.551 62.3353H229.212C229.95 62.3353 230.596 62.2428 231.519 62.1503C232.442 62.0578 233.088 61.8728 234.103 61.7804C234.934 61.5954 235.764 61.4104 236.595 61.1329V48.2775H236.503H236.41Z" fill="white"/>
<path d="M269.079 31.9075C268.433 31.9075 267.602 31.9075 266.402 32C265.203 32 263.818 32.1849 262.342 32.4624V67.8844C262.342 68.5318 262.25 68.9017 261.973 69.0867C261.788 69.2717 261.327 69.3641 260.773 69.3641H254.036C253.483 69.3641 253.114 69.2717 252.837 69.0867C252.56 68.9017 252.468 68.5318 252.468 67.8844V31.2601C252.468 29.2254 252.837 27.5607 253.575 26.4508C254.313 25.341 255.882 24.6011 258.189 24.1387C258.743 24.1387 259.481 24.0462 260.496 23.8612C261.419 23.7688 262.434 23.6763 263.542 23.5838C264.649 23.4913 265.664 23.4913 266.679 23.3988C267.694 23.3988 268.525 23.3063 269.355 23.3063C273.139 23.3063 276.369 23.6763 279.138 24.5086C281.906 25.341 284.121 26.5433 285.967 28.3006C287.72 29.9653 289.104 32.2774 289.935 35.1445C290.765 37.9191 291.227 41.2485 291.227 45.2254V67.7919C291.227 68.4393 291.134 68.8092 290.858 68.9942C290.673 69.1792 290.212 69.2717 289.658 69.2717H282.921C282.367 69.2717 281.998 69.1792 281.722 68.9942C281.445 68.8092 281.352 68.4393 281.352 67.7919V45.1329C281.352 42.8208 281.168 40.9711 280.799 39.3988C280.43 37.8266 279.784 36.3468 278.953 35.3295C278.03 34.2196 276.83 33.4797 275.262 32.8323C273.601 32.1849 271.57 31.9075 269.263 31.9075" fill="white"/>
<path d="M316.697 61.5954C318.45 61.5954 320.388 61.3179 322.142 60.948C323.895 60.4856 325.464 60.0231 326.664 59.4682C327.31 59.1908 327.679 59.0983 327.956 59.1908C328.233 59.2832 328.417 59.5607 328.602 60.0231L330.724 64.9249C331.278 65.8497 331.093 66.4971 330.171 67.052C327.771 68.3468 325.372 69.1792 322.603 69.7341C319.835 70.289 317.435 70.3815 315.036 70.3815C308.668 70.3815 303.777 68.4393 300.455 64.5549C297.133 60.6705 295.38 54.9364 295.38 47.2601C295.38 39.5838 295.841 40.4162 296.764 37.5491C297.687 34.6821 299.163 32.0925 300.917 29.9653C302.67 27.8382 304.885 26.2659 307.376 25.1561C309.96 24.0462 312.729 23.4913 315.959 23.4913C319.189 23.4913 320.573 23.7688 322.788 24.2312C324.91 24.6936 327.033 25.4335 328.879 26.5434C329.432 26.8208 329.709 27.0983 329.801 27.3757C329.894 27.6532 329.801 28.1156 329.525 28.6705L327.402 33.6647C327.217 34.1272 326.941 34.4046 326.664 34.4971C326.387 34.5896 325.925 34.4971 325.279 34.2197C323.895 33.6647 322.419 33.2948 321.034 32.9249C319.558 32.5549 317.989 32.3699 316.328 32.3699C314.667 32.3699 312.729 32.7399 311.345 33.5723C309.96 34.4046 308.761 35.422 307.93 36.9017C307.1 38.3815 306.454 39.8613 306.084 41.6185C305.715 43.3757 305.531 45.3179 305.531 47.1676C305.531 49.0173 305.715 51.052 306.084 52.7168C306.454 54.474 307.007 56.0462 307.838 57.2486C308.668 58.5434 309.776 59.6532 311.252 60.3931C312.544 61.2254 314.39 61.5954 316.605 61.5954" fill="white"/>
<path d="M373.729 46.6127C373.729 54.1966 371.975 60.0231 368.468 64.0925C364.962 68.1619 359.794 70.1966 352.78 70.1966C345.767 70.1966 340.691 68.2544 337.461 64.2775C334.046 60.3006 332.385 54.5665 332.385 46.8902C332.385 39.2139 332.939 39.7688 333.862 36.9018C334.877 33.9422 336.354 31.5376 338.107 29.5029C339.86 27.5607 342.075 25.9885 344.567 24.9711C347.151 23.9538 349.827 23.3989 352.965 23.3989C359.794 23.3989 364.869 25.4335 368.284 29.5954C371.975 33.6648 373.636 39.3064 373.636 46.6127M363.67 46.8902C363.67 44.8555 363.485 42.9133 363.208 41.0636C362.931 39.3064 362.378 37.6416 361.639 36.2544C360.901 34.8671 359.794 33.6648 358.409 32.9249C357.025 32.185 355.364 31.7226 353.334 31.7226C351.304 31.7226 349.919 32.0925 348.535 32.8324C347.243 33.5723 346.043 34.5896 345.121 35.9769C344.198 37.2717 343.552 38.9364 343.183 40.6937C342.721 42.5434 342.537 44.4856 342.537 46.6127C342.537 51.3295 343.275 55.1214 344.844 57.896C346.32 60.6705 349.089 61.9653 353.057 61.9653C357.025 61.9653 356.748 61.5954 358.04 60.763C359.425 59.9307 360.532 58.9133 361.362 57.4335C362.193 56.1387 362.747 54.474 363.116 52.6243C363.577 50.8671 363.762 48.9249 363.762 46.9827" fill="white"/>
<path d="M238.717 138.173C238.717 139.561 238.164 140.486 237.149 141.04C235.949 141.595 234.472 142.058 233.088 142.428C231.611 142.798 230.043 143.168 228.566 143.353C227.09 143.538 225.428 143.723 224.044 143.815C222.568 143.908 220.999 143.908 219.707 143.908C215.923 143.908 212.693 143.538 210.294 142.798C207.71 142.058 205.864 141.04 204.388 139.653C203.004 138.358 201.896 136.786 201.342 135.029C200.789 133.364 200.512 131.422 200.512 129.572C200.512 127.723 200.881 125.595 201.527 123.746C202.173 121.896 203.188 120.231 204.757 118.844C206.233 117.457 208.171 116.254 210.571 115.422C212.97 114.59 215.831 114.127 219.245 114.127H228.751V112.74C228.751 111.723 228.658 110.705 228.474 109.688C228.197 108.855 227.828 108.023 227.182 107.283C226.536 106.543 225.613 106.081 224.413 105.803C223.214 105.434 221.737 105.249 219.891 105.249C218.046 105.249 215.831 105.434 213.524 105.803C211.217 106.081 209.371 106.451 207.987 107.006C207.341 107.191 206.972 107.191 206.695 107.098C206.418 107.006 206.233 106.728 206.141 106.173L204.941 101.272C204.757 100.347 204.941 99.7919 205.68 99.5144C208.079 98.6821 210.755 97.9422 213.616 97.5722C216.569 97.2023 219.153 97.0173 221.737 97.0173C227.643 97.0173 231.981 98.3121 234.841 100.994C237.702 103.676 238.994 107.468 238.994 112.647V138.358H238.902L238.717 138.173ZM228.658 121.803H220.353C219.43 121.803 218.415 121.896 217.215 121.988C216.108 122.081 215.093 122.451 213.985 122.913C213.062 123.468 212.232 124.116 211.494 125.225C210.848 126.15 210.571 127.63 210.571 129.295C210.571 131.792 211.401 133.549 213.062 134.474C214.724 135.399 216.938 135.954 219.707 135.954C222.475 135.954 220.63 135.954 221.368 135.861C222.106 135.861 222.845 135.769 223.675 135.676C224.413 135.584 225.336 135.399 226.259 135.214C227.182 135.029 227.92 134.844 228.751 134.566V121.803H228.658Z" fill="white"/>
<path d="M302.947 138.173C302.947 139.561 302.393 140.486 301.378 141.04C300.178 141.595 298.702 142.058 297.318 142.428C295.841 142.798 294.272 143.168 292.796 143.353C291.227 143.538 289.658 143.723 288.181 143.815C286.705 143.908 285.136 143.908 283.844 143.908C280.06 143.908 276.923 143.538 274.431 142.798C271.939 142.058 269.909 141.04 268.525 139.653C267.141 138.358 266.033 136.786 265.48 135.029C264.926 133.364 264.649 131.422 264.649 129.572C264.649 127.723 265.018 125.595 265.664 123.746C266.31 121.896 267.325 120.231 268.894 118.844C270.463 117.457 272.401 116.254 274.708 115.422C277.015 114.59 279.968 114.127 283.383 114.127H292.98V112.74C292.98 111.723 292.888 110.705 292.611 109.688C292.426 108.855 291.965 108.023 291.319 107.283C290.673 106.636 289.75 106.081 288.551 105.803C287.443 105.434 285.874 105.249 284.029 105.249C282.183 105.249 279.968 105.434 277.753 105.803C275.446 106.081 273.601 106.451 272.216 107.006C271.57 107.191 271.201 107.191 270.924 107.098C270.647 107.006 270.463 106.728 270.278 106.173L269.079 101.272C268.802 100.347 269.079 99.7919 269.817 99.5144C272.309 98.6821 274.893 97.9422 277.753 97.5722C280.706 97.2023 283.29 97.0173 285.874 97.0173C291.78 97.0173 296.21 98.3121 298.979 100.994C301.747 103.676 303.131 107.468 303.131 112.647V138.358L302.947 138.173ZM292.888 121.803H284.582C283.567 121.803 282.552 121.896 281.445 121.988C280.337 122.081 279.322 122.451 278.215 122.913C277.2 123.468 276.369 124.116 275.631 125.225C274.985 126.15 274.708 127.63 274.708 129.295C274.708 131.792 275.446 133.549 277.2 134.474C278.768 135.399 281.076 135.954 283.844 135.954C286.613 135.954 284.767 135.954 285.505 135.861C286.151 135.861 286.982 135.769 287.812 135.676C288.551 135.584 289.381 135.399 290.396 135.214C291.411 135.029 292.057 134.844 292.888 134.566V121.803Z" fill="white"/>
<path d="M373.175 96.8324C379.819 96.8324 384.71 98.4971 387.848 101.919C391.078 105.341 392.554 109.965 392.554 115.884C392.554 121.804 392.37 118.659 392.001 119.676C391.724 120.601 391.17 121.341 390.616 121.988C389.97 122.543 389.232 123.006 388.494 123.191C387.663 123.468 386.833 123.561 385.725 123.561H362.931C363.024 125.873 363.3 127.723 363.946 129.202C364.592 130.682 365.423 131.977 366.53 132.902C367.638 133.827 368.93 134.474 370.314 134.844C371.791 135.214 373.359 135.399 375.02 135.399C376.682 135.399 378.712 135.121 380.373 134.751C382.126 134.289 383.695 133.734 384.987 133.179C385.818 132.809 386.464 132.902 386.833 133.642L389.232 138.543C389.601 139.468 389.417 140.116 388.678 140.486C386.556 141.78 384.157 142.798 381.48 143.26C378.896 143.723 376.497 144 374.098 144C367.084 144 361.824 142.15 358.132 138.451C354.441 134.751 352.595 128.832 352.595 120.694C352.595 112.555 353.149 113.48 354.164 110.613C355.179 107.561 356.656 105.156 358.409 103.121C360.163 101.087 362.378 99.5145 364.869 98.4971C367.361 97.2948 370.037 96.8324 373.082 96.8324M373.267 105.064C371.79 105.064 370.314 105.341 369.114 105.988C367.915 106.636 366.807 107.376 365.977 108.486C365.146 109.595 364.5 110.613 363.946 112C363.485 113.295 363.116 114.682 363.116 116.162H382.957C382.957 114.59 382.772 113.202 382.495 111.815C382.219 110.52 381.757 109.318 381.019 108.301C380.281 107.283 379.358 106.543 378.066 105.896C376.958 105.341 375.297 105.064 373.359 105.064" fill="white"/>
<path d="M476.625 138.173C476.625 139.561 476.071 140.486 474.964 141.04C473.764 141.595 472.38 142.058 470.903 142.428C469.427 142.798 467.858 143.168 466.382 143.353C464.813 143.538 463.244 143.723 461.767 143.815C460.291 143.908 458.722 143.908 457.43 143.908C453.646 143.908 450.509 143.538 448.017 142.798C445.525 142.058 443.587 141.04 442.111 139.653C440.727 138.358 439.619 136.786 439.066 135.029C438.512 133.364 438.235 131.422 438.235 129.572C438.235 127.723 438.512 125.595 439.25 123.746C439.896 121.896 440.911 120.231 442.48 118.844C444.049 117.457 445.895 116.254 448.202 115.422C450.509 114.59 453.462 114.127 456.969 114.127H466.566V112.74C466.566 111.723 466.474 110.705 466.197 109.688C466.012 108.855 465.551 108.023 464.905 107.283C464.259 106.636 463.336 106.081 462.136 105.803C461.029 105.434 459.46 105.249 457.707 105.249C455.953 105.249 453.646 105.434 451.339 105.803C449.032 106.081 447.187 106.451 445.802 107.006C445.156 107.191 444.695 107.191 444.418 107.098C444.141 107.006 443.957 106.728 443.864 106.173L442.665 101.272C442.388 100.347 442.665 99.7919 443.403 99.5144C445.802 98.6821 448.386 97.9422 451.339 97.5722C454.292 97.2023 456.876 97.0173 459.46 97.0173C465.366 97.0173 469.796 98.3121 472.565 100.994C475.333 103.676 476.717 107.468 476.717 112.647V138.358H476.81L476.625 138.173ZM466.474 121.803H458.168C457.245 121.803 456.23 121.896 455.031 121.988C453.923 122.081 452.908 122.451 451.801 122.913C450.786 123.468 450.047 124.116 449.217 125.225C448.571 126.15 448.294 127.63 448.294 129.295C448.294 131.792 449.124 133.549 450.786 134.474C452.447 135.399 454.661 135.954 457.43 135.954C460.199 135.954 458.353 135.954 459.091 135.861C459.829 135.861 460.568 135.769 461.398 135.676C462.229 135.584 463.059 135.399 463.982 135.214C464.813 135.029 465.643 134.844 466.474 134.566V121.803Z" fill="white"/>
<path d="M202.081 83.052C201.896 82.7746 201.342 82.5896 200.604 82.5896H176.333C173.38 82.5896 170.981 82.9595 169.043 83.8844C167.105 84.7168 165.444 85.8266 164.336 87.3064C163.137 88.6936 162.306 90.4509 161.753 92.3006C161.199 94.1503 161.014 96.0925 161.014 98.1272V141.225C161.014 141.965 161.199 142.428 161.476 142.613C161.845 142.798 162.306 142.983 162.952 142.983H165.721C167.566 142.89 171.442 141.965 171.442 136.231V116.347H197.282C198.02 116.347 198.482 116.162 198.666 115.792C198.851 115.422 198.943 114.96 198.943 114.312V109.41C198.943 108.578 198.851 108.116 198.666 107.838C198.482 107.561 198.02 107.376 197.282 107.376H171.442V97.4798C171.442 95.7225 171.904 94.2428 172.827 93.3179C173.657 92.3931 175.226 91.9306 177.349 91.9306H200.419C201.158 91.9306 201.619 91.7457 201.804 91.4682C202.081 91.1908 202.173 90.7283 202.173 89.9884V84.7168C202.265 83.9769 202.081 83.422 201.896 83.1445" fill="white"/>
<path d="M347.889 110.705C347.151 107.838 345.951 105.434 344.29 103.306C342.721 101.272 340.691 99.6069 338.199 98.4971C335.708 97.2948 332.755 96.8324 329.34 96.8324C325.926 96.8324 326.018 96.9249 324.08 97.2023C322.142 97.4798 320.204 97.8497 318.635 98.3121V81.5723C318.543 80.8324 318.451 80.4624 318.174 80.2775C317.989 80.0925 317.528 80 316.882 80H314.113C312.268 80.0925 308.576 81.1098 308.484 86.474V138.821C308.484 139.283 308.576 139.746 308.761 140.116C308.945 140.393 309.314 140.671 309.776 140.855C312.452 141.965 315.128 142.798 318.266 143.26C321.404 143.723 324.357 144 327.31 144C330.263 144 334.416 143.445 337.092 142.243C339.86 141.04 342.075 139.283 343.921 137.156C345.674 135.029 347.059 132.439 347.889 129.48C348.72 126.52 349.089 123.376 349.089 119.954C349.089 116.624 348.72 113.572 347.981 110.705M337.922 127.445C337.369 129.295 336.538 130.96 335.431 132.069C334.416 133.272 333.124 134.104 331.647 134.751C330.263 135.306 328.509 135.491 326.756 135.491C325.003 135.491 324.172 135.491 322.788 135.306C321.311 135.214 319.835 134.936 318.451 134.474V106.913C320.204 106.358 322.05 105.988 323.711 105.803C325.372 105.618 326.756 105.526 327.587 105.526C331.093 105.526 333.677 106.728 335.708 109.318C337.646 111.815 338.661 115.514 338.661 120.601C338.753 123.376 338.476 125.688 337.922 127.63" fill="white"/>
<path d="M414.703 141.04L414.149 136.231C414.057 135.769 413.964 135.491 413.78 135.306C413.595 135.214 413.318 135.121 412.857 135.214C412.488 135.306 411.934 135.306 411.38 135.399C410.827 135.491 410.273 135.491 409.812 135.491C408.704 135.491 407.966 135.214 407.412 134.659C407.043 134.197 406.858 133.179 406.858 131.607V81.5722C406.858 80.9248 406.674 80.5549 406.489 80.3699C406.212 80.185 405.751 80.0925 405.197 80.0925H402.337C400.491 80.185 396.892 81.2023 396.707 86.289V133.919C396.707 137.711 397.446 140.208 399.014 141.78C400.583 143.353 402.89 144.092 406.12 144.092C409.35 144.092 408.612 144 409.996 143.908C411.473 143.723 412.857 143.445 413.964 142.983C414.518 142.705 414.887 142.428 414.979 142.243C414.979 142.15 414.979 141.78 414.887 141.225" fill="white"/>
<path d="M436.758 141.04L436.205 136.231C436.112 135.769 436.02 135.491 435.836 135.306C435.651 135.214 435.282 135.121 434.913 135.214C434.544 135.306 433.99 135.306 433.436 135.399C432.882 135.491 432.329 135.491 431.867 135.491C430.76 135.491 430.022 135.214 429.468 134.659C429.099 134.197 428.914 133.179 428.914 131.607V81.5722C428.914 80.9248 428.73 80.5549 428.545 80.3699C428.361 80.185 427.899 80.0925 427.253 80.0925H424.485C422.639 80.185 418.855 81.2023 418.855 86.7514V134.012C418.855 137.803 419.594 140.301 421.162 141.873C422.731 143.445 425.038 144.185 428.268 144.185C431.498 144.185 430.76 144.092 432.237 144C433.621 143.815 435.005 143.538 436.112 143.075C436.666 142.798 437.035 142.52 437.128 142.335C437.035 142.243 437.035 141.873 436.943 141.318" fill="white"/>
<path d="M263.265 141.04L262.711 136.231C262.619 135.769 262.526 135.491 262.342 135.306C262.157 135.214 261.788 135.121 261.327 135.214C260.958 135.306 260.404 135.306 259.85 135.399C259.297 135.491 258.743 135.491 258.281 135.491C257.174 135.491 256.436 135.214 255.974 134.659C255.513 134.197 255.328 133.179 255.328 131.607V81.5722C255.328 80.9248 255.236 80.5549 254.959 80.3699C254.682 80.185 254.313 80.0925 253.667 80.0925H250.806C248.961 80.185 245.177 81.2023 245.177 86.8439V134.104C245.177 137.896 245.915 140.393 247.484 141.965C249.053 143.538 251.36 144.277 254.59 144.277C257.82 144.277 257.082 144.185 258.466 144.092C259.85 143.908 261.235 143.63 262.342 143.168C262.896 142.89 263.265 142.613 263.357 142.428C263.542 142.243 263.542 141.873 263.449 141.318" fill="white"/>
</g>
<defs>
<clipPath id="clip0_1_7357">
<rect width="476" height="144" fill="white" transform="translate(0.625)"/>
</clipPath>
</defs>
</svg>
