<?xml version="1.0" encoding="UTF-8"?>
<svg id="Capa_1" xmlns="http://www.w3.org/2000/svg" version="1.1" viewBox="0 0 1920 404">
  <!-- Generator: Adobe Illustrator 29.1.0, SVG Export Plug-In . SVG Version: 2.1.0 Build 142)  -->
  <defs>
    <style>
      .st0 {
        fill: #fff;
      }
    </style>
  </defs>
  <g id="Capa_11" data-name="Capa_1">
    <g id="CbgxR0.tif">
      <g>
        <path class="st0" d="M0,2.1c3.9,0,7.9.2,11.8.2,52.8,0,105.6-.2,158.4,0,20.9,0,41.5,2.8,61.2,10.1,28.5,10.6,51.7,27.8,66.6,55,8.3,15.3,13.4,31.5,14.5,48.9.5,8.3,1.3,16.7.9,25-.9,22.4-4.2,44.4-14.3,64.7-8.9,17.8-22.1,31.8-39.7,41.7-17.4,9.7-36.1,14.6-55.6,17.1-31.2,4-62.5,1.2-93.7,2h-7.3v130.7H0V2.1ZM102.8,187.1c21.6-1.1,42.9-1.3,64-3.4,13-1.3,23.8-8.6,31-20,6.8-10.8,8.3-22.9,8.2-35.5,0-10.6-4.3-19.2-11.1-26.8-12.4-13.7-28.5-18.8-46.3-19.3-11.5-.3-23,0-34.4,0s-7.4,0-11.3,0v105.2-.2Z"/>
        <path class="st0" d="M937,0c3.8.8,7.6,1.7,11.5,2.2,19,2.4,37.1,7.9,54.8,15.3,17.5,7.3,33.8,16.9,49.1,28.1,6.2,4.6,11.8,9.9,18.1,15.1-23,20.5-45.1,40.3-67,59.7-7.5-5.3-14.8-11-22.7-15.7-12.4-7.4-26.1-11.6-40.4-13.4-8.2-1-16.5-2-24.8-2-26.5,0-49.7,9.7-70.9,24.9-16.2,11.6-28.5,26.4-36.6,44.6-4.4,9.7-6.7,19.9-8.1,30.6-2.3,17.4.5,34,6.3,50.2,6.9,19.3,19,34.9,34.8,47.7,16.8,13.6,35.6,22.8,56.6,27.8,22.5,5.3,44.2,2.4,65.4-6.2,14.7-5.9,27.3-14.8,38.8-26.4,24.6,16.1,49.2,32.2,74,48.4-.3.8-.4,1.5-.8,1.9-28.5,30.7-62.6,52.2-103.1,63.8-22.8,6.5-45.8,8-69.1,6.7-18-1-35.4-6.3-52.3-12.8-22.9-8.8-44-20.7-63.2-35.7-22.5-17.6-41.2-38.7-55.6-63.5-12.4-21.4-20.5-44.4-23.6-68.8-3.8-30.6-1.5-60.8,10.9-89.6,8.4-19.4,19.2-37.1,33-53.1,29.8-34.8,66.7-58.5,110.3-71.7,11.2-3.4,23.1-4.5,34.6-6.8.7-.1,1.3-.8,1.9-1.2h38.1Z"/>
        <path class="st0" d="M1320.6,0c3.8.8,7.6,1.7,11.5,2.2,19.3,2.6,37.8,8.1,55.7,15.6,19.4,8.2,37.1,19.3,53.7,32.1,4,3.1,7.7,6.7,12.1,10.6-6.2,5.7-12,11.3-18,16.7-8.2,7.4-16.6,14.5-24.8,21.8-7.4,6.6-14.6,13.2-21.9,19.8-1.7,1.6-3.1,1.8-5.1,0-17.1-16.3-37.9-24.7-61-27.7-8.1-1-16.2-1.7-24.3-2-14.8-.5-28.7,3.6-42.2,9.1-17.2,7-32.3,17.1-44.9,30.6-15.4,16.6-25.1,36-27.8,58.7-2.6,21.4.8,41.8,10,61,10.6,22.2,27.7,38.5,48.8,50.9,14.1,8.3,29.2,14,45.2,16.7,21,3.6,41.4,0,60.9-8.3,13.9-6,25.8-14.6,37-25.5,8.3,5.5,16.8,10.9,25.2,16.4,15.1,9.9,30,20,45.3,29.7,3.3,2.1,3.5,3.4,1,6-15.1,15.8-31.9,29.4-50.7,40.5-17.1,10.1-35.4,17.3-54.5,22.6-21.7,6-44.1,7.5-66.2,5.5-28.7-2.6-55.4-12.5-80.7-26.3-15.3-8.4-29.5-18.3-42.8-29.6-15.8-13.4-29.4-28.7-40.6-46-14.8-22.9-25.3-47.6-28.8-74.8-1.4-10.7-3.2-21.6-2.9-32.3.6-23.8,6-46.6,16-68.4,12.5-27,30.4-49.8,52.5-69.3,28.3-24.9,60.8-42.3,97.6-51.1,8.2-1.9,16.6-2.8,24.9-4.3.7-.1,1.3-.8,1.9-1.2,12.5.3,25.2.3,37.9.3Z"/>
        <path class="st0" d="M1920,397.2h-113.2c-5.9-15.9-11.9-31.9-17.9-47.9-1.5-4.1-3.4-8.1-4.5-12.3-1-3.8-3.2-4.4-6.7-4.4-38.7.1-77.5,0-116.2,0s-23,.1-34.4,0c-3.1,0-4.4,1-5.4,3.9-7.2,20.3-14.6,40.4-21.9,60.6h-114.7c4-10.3,7.8-20.1,11.6-29.9,11.3-29.1,22.7-58.3,34.1-87.4,10.8-27.5,21.7-55.1,32.5-82.6s21.5-55.1,32.3-82.7c12.8-32.6,25.5-65.1,38.3-97.6,1.1-2.8,2.6-5.6,3.2-8.5,1.1-5.6,4.5-6.3,9.5-6.3,35,.2,69.9.2,104.9,0,4,0,5.7,1.5,7,4.8,11.8,28.4,23.6,56.9,35.4,85.3,10.3,25,20.6,50.1,31,75.1,10.5,25.3,21.2,50.6,31.7,75.9,11.4,27.5,22.7,55,34.2,82.5,9.6,23.1,19.4,46.2,29,69.4.2.4.2,1,.3,2.1h-.1ZM1750.5,246.5c-16.2-43.3-32.2-86.4-48.8-130.7-16,44.2-31.6,87.2-47.3,130.7h96.1Z"/>
        <path class="st0" d="M412.3,397.3c6.3-11.9,12.1-23.1,18.1-34.2,7.4-13.6,14.9-27.2,22.4-40.8,14.4-26.2,28.7-52.3,43-78.5,7.6-13.9,15-28,22.6-41.9,13.6-25,27.4-50,41.1-75,7.3-13.3,14.4-26.7,21.7-40.1,14-25.8,28.5-51.3,42-77.4,3.3-6.4,6.9-7.4,13.2-7.4,30,.3,60,0,91,0-3.9,7.5-7.5,14.4-11.2,21.2-5.2,9.6-10.7,19.2-15.9,28.8-15.2,28-30.4,56-45.7,84-16.6,30.5-33.3,61-49.9,91.5-9.5,17.5-18.9,35.1-28.4,52.5-13.8,25.3-27.7,50.6-41.6,75.9-7,12.7-13.7,25.6-20.7,38.3-.7,1.3-2.6,2.7-4,2.7-32.2.2-64.4.1-97.7.1v.2Z"/>
        <path class="st0" d="M312.4,2.6h274.5c-43.9,79.7-87.5,158.9-131.6,239.1-47.8-80.1-95.2-159.2-142.9-239.1h0Z"/>
      </g>
    </g>
  </g>
</svg>