<?xml version="1.0" encoding="UTF-8"?><svg id="uuid-e0f0fdc5-eda2-410e-9aa2-9a83d19853c9" xmlns="http://www.w3.org/2000/svg" viewBox="0 0 350 200"><defs><style>.uuid-6b6eb978-27dd-4633-8e93-7bcfa51a9225{fill:none;}.uuid-08166f0d-0788-4910-85b8-43ca9356d3b3{fill:#fff;}</style></defs><g id="uuid-e90c0df8-16f9-4d25-a370-3bd30ffecc13"><g id="uuid-f6dae689-3a8e-4f75-b55f-7ecdd5936fa1"><path class="uuid-08166f0d-0788-4910-85b8-43ca9356d3b3" d="M65,77.12c.45,0,.91.02,1.35.02,6.05,0,12.1-.02,18.15,0,2.39,0,4.75.32,7.01,1.16,3.27,1.21,5.92,3.19,7.63,6.3.95,1.75,1.54,3.61,1.66,5.6.06.95.15,1.91.1,2.86-.1,2.57-.48,5.09-1.64,7.41-1.02,2.04-2.53,3.64-4.55,4.78-1.99,1.11-4.14,1.67-6.37,1.96-3.57.46-7.16.14-10.74.23h-.84v14.98h-11.78v-45.3ZM76.78,98.32c2.47-.13,4.92-.15,7.33-.39,1.49-.15,2.73-.99,3.55-2.29.78-1.24.95-2.62.94-4.07,0-1.21-.49-2.2-1.27-3.07-1.42-1.57-3.27-2.15-5.3-2.21-1.32-.03-2.64,0-3.94,0s-.85,0-1.29,0v12.05-.02h-.01Z"/><path class="uuid-08166f0d-0788-4910-85b8-43ca9356d3b3" d="M172.36,76.88c.44.09.87.19,1.32.25,2.18.27,4.25.91,6.28,1.75,2.01.84,3.87,1.94,5.63,3.22.71.53,1.35,1.13,2.07,1.73-2.64,2.35-5.17,4.62-7.68,6.84-.86-.61-1.7-1.26-2.6-1.8-1.42-.85-2.99-1.33-4.63-1.54-.94-.11-1.89-.23-2.84-.23-3.04,0-5.69,1.11-8.12,2.85-1.86,1.33-3.27,3.02-4.19,5.11-.5,1.11-.77,2.28-.93,3.51-.26,1.99.06,3.9.72,5.75.79,2.21,2.18,4,3.99,5.47,1.92,1.56,4.08,2.61,6.49,3.19,2.58.61,5.06.27,7.49-.71,1.68-.68,3.13-1.7,4.45-3.02,2.82,1.84,5.64,3.69,8.48,5.55-.03.09-.05.17-.09.22-3.27,3.52-7.17,5.98-11.81,7.31-2.61.74-5.25.92-7.92.77-2.06-.11-4.06-.72-5.99-1.47-2.62-1.01-5.04-2.37-7.24-4.09-2.58-2.02-4.72-4.43-6.37-7.28-1.42-2.45-2.35-5.09-2.7-7.88-.44-3.51-.17-6.97,1.25-10.27.96-2.22,2.2-4.25,3.78-6.08,3.41-3.99,7.64-6.7,12.64-8.22,1.28-.39,2.65-.52,3.96-.78.08-.01.15-.09.22-.14h4.37Z"/><path class="uuid-08166f0d-0788-4910-85b8-43ca9356d3b3" d="M216.31,76.88c.44.09.87.19,1.32.25,2.21.3,4.33.93,6.38,1.79,2.22.94,4.25,2.21,6.15,3.68.46.36.88.77,1.39,1.21-.71.65-1.37,1.29-2.06,1.91-.94.85-1.9,1.66-2.84,2.5-.85.76-1.67,1.51-2.51,2.27-.19.18-.36.21-.58,0-1.96-1.87-4.34-2.83-6.99-3.17-.93-.11-1.86-.19-2.78-.23-1.7-.06-3.29.41-4.84,1.04-1.97.8-3.7,1.96-5.14,3.51-1.76,1.9-2.88,4.12-3.19,6.73-.3,2.45.09,4.79,1.15,6.99,1.21,2.54,3.17,4.41,5.59,5.83,1.62.95,3.35,1.6,5.18,1.91,2.41.41,4.74,0,6.98-.95,1.59-.69,2.96-1.67,4.24-2.92.95.63,1.92,1.25,2.89,1.88,1.73,1.13,3.44,2.29,5.19,3.4.38.24.4.39.11.69-1.73,1.81-3.66,3.37-5.81,4.64-1.96,1.16-4.06,1.98-6.24,2.59-2.49.69-5.05.86-7.59.63-3.29-.3-6.35-1.43-9.25-3.01-1.75-.96-3.38-2.1-4.9-3.39-1.81-1.54-3.37-3.29-4.65-5.27-1.7-2.62-2.9-5.45-3.3-8.57-.16-1.23-.37-2.47-.33-3.7.07-2.73.69-5.34,1.83-7.84,1.43-3.09,3.48-5.71,6.02-7.94,3.24-2.85,6.97-4.85,11.18-5.85.94-.22,1.9-.32,2.85-.49.08-.01.15-.09.22-.14,1.43.03,2.89.03,4.34.03h0Z"/><path class="uuid-08166f0d-0788-4910-85b8-43ca9356d3b3" d="M284.99,122.39h-12.97c-.68-1.82-1.36-3.66-2.05-5.49-.17-.47-.39-.93-.52-1.41-.11-.44-.37-.5-.77-.5-4.43.01-8.88,0-13.31,0s-2.64.01-3.94,0c-.36,0-.5.11-.62.45-.82,2.33-1.67,4.63-2.51,6.94h-13.14c.46-1.18.89-2.3,1.33-3.43,1.29-3.33,2.6-6.68,3.91-10.01,1.24-3.15,2.49-6.31,3.72-9.46s2.46-6.31,3.7-9.48c1.47-3.74,2.92-7.46,4.39-11.18.13-.32.3-.64.37-.97.13-.64.52-.72,1.09-.72,4.01.02,8.01.02,12.02,0,.46,0,.65.17.8.55,1.35,3.25,2.7,6.52,4.06,9.77,1.18,2.86,2.36,5.74,3.55,8.6,1.2,2.9,2.43,5.8,3.63,8.7,1.31,3.15,2.6,6.3,3.92,9.45,1.1,2.65,2.22,5.29,3.32,7.95.02.05.02.11.03.24h-.01ZM265.57,105.13c-1.86-4.96-3.69-9.9-5.59-14.98-1.83,5.06-3.62,9.99-5.42,14.98h11.01Z"/><path class="uuid-08166f0d-0788-4910-85b8-43ca9356d3b3" d="M112.24,122.4c.72-1.36,1.39-2.65,2.07-3.92.85-1.56,1.71-3.12,2.57-4.67,1.65-3,3.29-5.99,4.93-8.99.87-1.59,1.72-3.21,2.59-4.8,1.56-2.86,3.14-5.73,4.71-8.59.84-1.52,1.65-3.06,2.49-4.59,1.6-2.96,3.27-5.88,4.81-8.87.38-.73.79-.85,1.51-.85,3.44.03,6.87,0,10.43,0-.45.86-.86,1.65-1.28,2.43-.6,1.1-1.23,2.2-1.82,3.3-1.74,3.21-3.48,6.42-5.24,9.62-1.9,3.49-3.82,6.99-5.72,10.48-1.09,2.01-2.17,4.02-3.25,6.02-1.58,2.9-3.17,5.8-4.77,8.7-.8,1.46-1.57,2.93-2.37,4.39-.08.15-.3.31-.46.31-3.69.02-7.38.01-11.19.01v.02h0Z"/><path class="uuid-08166f0d-0788-4910-85b8-43ca9356d3b3" d="M100.79,77.18h31.45c-5.03,9.13-10.03,18.21-15.08,27.4-5.48-9.18-10.91-18.24-16.37-27.4h0Z"/></g></g><rect class="uuid-6b6eb978-27dd-4633-8e93-7bcfa51a9225" width="350" height="200"/></svg>