<?xml version="1.0" encoding="UTF-8"?><svg id="uuid-c10e5c2f-116b-4b57-81b4-6e09132b12c6" xmlns="http://www.w3.org/2000/svg" viewBox="0 0 350 200"><defs><style>.uuid-a97ba8c5-c62d-4765-a5a9-2bf01123feb8{fill:none;}.uuid-13c1e1e5-cb95-4be3-99c6-467f72f2aadb{fill:#fff;}</style></defs><rect class="uuid-a97ba8c5-c62d-4765-a5a9-2bf01123feb8" width="350" height="200"/><path class="uuid-13c1e1e5-cb95-4be3-99c6-467f72f2aadb" d="M47.03,91.79c-.2.25-.51.27-2.69.27-.92,0-1.88-.06-2.84-.08-.04-.85-.1-1.79-.1-2.73v-2.77h2.12c2.47,0,2.69.04,2.88.49l.53,1.55h.28c-.02-.85-.04-1.63-.04-2.47,0-.75.02-1.53.04-2.3h-.28l-.53,1.45c-.18.45-.41.49-2.88.49h-2.12v-2.51c0-.86.06-1.61.1-2.32.75-.02,1.69-.04,2.88-.04,2.34,0,2.51,0,2.71.57l.53,1.53h.28c-.02-.47-.06-1.16-.06-1.47s.04-1.04.06-1.55c-1.79.08-3.71.16-5.65.16-1.55,0-3.1-.08-4.79-.16v.28l1.71.57c.45.14.51.28.51,2.2v7.38c0,1.57-.08,1.65-.65,1.83l-1.57.53v.28c1.47-.08,3.42-.16,5.22-.16,1.14,0,4.28.08,5.34.16v-1.55c0-.59.08-1.2.12-1.79h-.29c-.37,1.2-.59,1.86-.84,2.16Z"/><path class="uuid-13c1e1e5-cb95-4be3-99c6-467f72f2aadb" d="M34.3,119.55v-.08c3.87-.37,7.58-2.39,7.58-5.81,0-4.94-4.45-6.88-8.86-6.88-2.35,0-5.48.33-7.13.33s-3.75-.16-6.02-.33v.58l3.46,1.15c.91.29,1.03.58,1.03,4.45v14.92c0,3.17-.17,3.33-1.32,3.71l-3.17,1.08v.57c1.85-.16,3.5-.33,5.44-.33,2.55,0,5.77.33,8.9.33,5.93,0,8.9-3.21,8.9-7,0-4.86-4.74-6.39-8.82-6.68ZM27.83,113.16c0-1.85.04-3.05.12-4.94,1.4-.09,2.27-.09,3.58-.09,3.5,0,6.39,1.44,6.39,5.48,0,4.7-4.2,5.15-6.92,5.15h-3.17v-5.6ZM31.09,131.87c-1.03,0-2.02-.08-3.13-.12-.08-1.28-.12-2.51-.12-3.79v-7.83h2.93c4.62,0,8.41,1.48,8.41,5.97,0,4.87-4.08,5.77-8.08,5.77Z"/><path class="uuid-13c1e1e5-cb95-4be3-99c6-467f72f2aadb" d="M78.29,79.89v.28l1.12.34c.55.19.86.35.9.71.16,1.41.18,4.65.18,7.16s-1.28,3.77-3.43,3.77c-3.24,0-3.83-1.71-3.83-4.32,0-3.14,0-4.89.06-6.1.04-.71.2-.8,1.32-1.22l.94-.34v-.28c-1.08.08-2.14.16-3.22.16-.96,0-1.92-.08-2.91-.16v.28l1.47.57c.57.23.63.63.63,2.34v5.73c0,3.12,2.06,4.4,5.01,4.4s4.97-1.47,5.02-5.42c.04-3.63,0-5.3.04-6.44.02-.42.31-.61.84-.84l.9-.34v-.28c-.82.08-1.61.16-2.39.16-.9,0-1.78-.08-2.65-.16Z"/><path class="uuid-13c1e1e5-cb95-4be3-99c6-467f72f2aadb" d="M104.3,129.4c-.74,1.65-1.03,1.98-3.09,1.98h-8v-18.09c0-4.2.12-4.49,1.03-4.78l3.75-1.15v-.58c-2.51.17-4.53.33-6.63.33s-4.12-.16-6.1-.33v.58l3.46,1.15c.91.29,1.03.58,1.03,4.45v14.92c0,3.17-.16,3.33-1.32,3.71l-3.17,1.08v.57c2.84-.16,5.69-.33,8.49-.33,2.47,0,7.99.17,11.99.33l.33-6.63h-.49l-1.28,2.8Z"/><path class="uuid-13c1e1e5-cb95-4be3-99c6-467f72f2aadb" d="M65.06,106.28c-8.32,0-13.47,5.77-13.47,13.97,0,6.67,4.24,13.47,12.81,13.47s13.1-6.47,13.1-14.63c0-7.5-4.86-12.81-12.44-12.81ZM64.81,132.37c-6.01,0-9.02-5.61-9.02-14.09,0-5.85,3.09-10.63,8.82-10.63,6.8,0,8.69,6.55,8.69,13.43,0,5.6-2.23,11.29-8.49,11.29Z"/><path class="uuid-13c1e1e5-cb95-4be3-99c6-467f72f2aadb" d="M28.46,92.43c-.51,0-1.47-.12-2.08-.47l-.69-2.63h-.29l-.35,3.32c1.16.45,2.04.57,3.02.57,4.02,0,5.34-2.04,5.34-3.81,0-4.22-6.38-3.41-6.38-6.61,0-1.37,1.18-2.37,2.47-2.37.69,0,1.37.12,2.06.39l.8,2.26h.22l.12-2.79c-.86-.39-2.16-.66-3.02-.66-2.2,0-4.49,1.21-4.49,3.67,0,3.83,6.38,3.59,6.38,6.48,0,1.9-1.49,2.63-3.12,2.63Z"/><path class="uuid-13c1e1e5-cb95-4be3-99c6-467f72f2aadb" d="M286.49,62.18l4.18,1.09s6.66-2.01,12.86.77c0,0-5.11-5.89-17.05-1.86Z"/><path class="uuid-13c1e1e5-cb95-4be3-99c6-467f72f2aadb" d="M291.45,66.99l3.56,1.39s4.81-1.08,8.37.62c0,0-.31-4.65-11.93-2.02Z"/><path class="uuid-13c1e1e5-cb95-4be3-99c6-467f72f2aadb" d="M286.17,133.31h3.41s19.53-8.99,6.36-21.23c0,0,7.75,12.71-9.76,21.23Z"/><path class="uuid-13c1e1e5-cb95-4be3-99c6-467f72f2aadb" d="M59.73,93.22c1.36,0,3.06-.33,3.83-.57-.02-.37-.04-.71-.04-.92v-3.14c0-.43.06-.63.43-.81l1.28-.61v-.28c-.89.04-1.79.16-2.71.16-.98,0-1.96-.12-2.93-.16v.28l1.22.47c.92.35,1,.47,1,.8v2.9c0,.14-.02.45-.04.75-.71.24-1.49.34-2.34.34-3.04,0-5.12-2.43-5.12-5.93,0-4.08,2.43-6.05,5.3-6.05.8,0,2.02.19,2.22.45.3.38.69,1.51.98,2.38h.29c-.02-.59-.04-1.18-.04-1.77,0-.51.02-1.04.04-1.57-.88-.19-1.77-.29-2.89-.29-3.61,0-7.97,2.37-7.97,7.04,0,3.83,2.85,6.54,7.5,6.54Z"/><path class="uuid-13c1e1e5-cb95-4be3-99c6-467f72f2aadb" d="M93.7,92.98v-.28l-1.63-.55c-.53-.16-.59-.63-.59-3.28v-2.35h1.57c1.26,1.65,3.08,4.26,4.38,6.46.51-.04,1.02-.08,1.51-.08s.96.04,1.43.08v-.28c-1.14-.2-1.25-.35-2.43-2.12l-2.81-4.2c1.87-.3,3.34-1.28,3.34-3.34s-1.75-3.14-4.44-3.14c-1.45,0-2.61.16-3.67.16s-2.06-.08-2.81-.16v.28l1.71.57c.45.14.51.28.51,2.2v7.38c0,1.57-.08,1.65-.65,1.83l-1.57.53v.28c.98-.08,2.16-.16,3.2-.16.71,0,2.08.08,2.96.16ZM91.48,80.75c.61,0,1.22-.02,1.88-.02,1.92,0,3.16.77,3.16,2.57,0,2.24-1.75,2.55-3.65,2.55h-1.39v-5.1Z"/><path class="uuid-13c1e1e5-cb95-4be3-99c6-467f72f2aadb" d="M301.98,71.94s-3.41,6.35,6.36,15.96c0,0-6.2-10.85-6.36-15.96Z"/><path class="uuid-13c1e1e5-cb95-4be3-99c6-467f72f2aadb" d="M264.48,94.73s-3.1,12.4-5.27,16.12c0,0,6.04-4.03,5.27-16.12Z"/><path class="uuid-13c1e1e5-cb95-4be3-99c6-467f72f2aadb" d="M273.93,87.91c-24.49,5.27-15.19,16.58-15.19,16.58-3.1-10.69,15.19-16.58,15.19-16.58Z"/><path class="uuid-13c1e1e5-cb95-4be3-99c6-467f72f2aadb" d="M259.68,107.43s-3.25,1.16-7.09,3.18c-1.71-2.51-10.16-16.75,9.42-26.88,0,0,8.13-4.55,16.38-3.2,2.66,4.32,5.62,7.29,7.92,9.18-.73,4.74-3.42,11.91-12.21,18.97,0,0-5.12-1.71-7.44-4.18,0,0,1.4,4.34,7.44,6.04,0,0,11.15-6.58,13.87-19.55,1.37.98,2.25,1.42,2.25,1.42,7.28-2.17,7.59-8.83,7.59-8.83-2.32,5.27-7.75,7.28-7.75,7.28-.64-.35-1.25-.76-1.84-1.21.31-1.94.43-4.02.29-6.23,0,0-2.38-4.03-8.69-5.21-2.54-5.41-3.7-10.29-3.7-10.29l-4.34-1.55c4.96-14.1,28.82-7.13,28.82-7.13-4.18-5.11-15.81-3.72-15.81-3.72-16.58,2.02-15.81,11.31-15.81,11.31,1.71,1.86,4.65,2.79,4.65,2.79.89,3.13,2.02,5.87,3.27,8.28-3.97-.12-9.11.85-15.67,3.96,0,0-24.06,10.12-9.08,28.98-8.45,4.53-19.28,13.08-5.33,22.62,0,0-12.86-12.4,12.86-26.04ZM286.33,84.19s.34,1.5.14,3.95c-2-1.95-3.68-4.36-5.08-6.84,1.71.61,3.38,1.54,4.93,2.88Z"/><path class="uuid-13c1e1e5-cb95-4be3-99c6-467f72f2aadb" d="M208.06,128.37l-5.69-8.49c3.79-.61,6.76-2.59,6.76-6.76s-3.55-6.35-8.98-6.35c-2.93,0-5.28.33-7.42.33s-4.16-.16-5.69-.33v.58l3.46,1.15c.91.29,1.03.58,1.03,4.45v14.92c0,3.17-.16,3.33-1.32,3.71l-3.17,1.08v.57c1.98-.16,4.37-.33,6.47-.33,1.44,0,4.2.17,5.98.33v-.57l-3.3-1.12c-1.07-.33-1.2-1.27-1.2-6.63v-4.74h3.17c2.56,3.34,6.22,8.61,8.86,13.06,1.03-.08,2.06-.16,3.05-.16s1.94.08,2.89.16v-.57c-2.31-.42-2.51-.7-4.9-4.29ZM197.8,118.81h-2.8v-10.3c1.24,0,2.47-.04,3.79-.04,3.87,0,6.39,1.57,6.39,5.19,0,4.54-3.54,5.15-7.38,5.15Z"/><path class="uuid-13c1e1e5-cb95-4be3-99c6-467f72f2aadb" d="M262.15,133.47h3.41s2.63-8.99,15.5-14.88c0,0-9.92.77-18.91,14.88Z"/><path class="uuid-13c1e1e5-cb95-4be3-99c6-467f72f2aadb" d="M329.1,87.91c-5.42-9.15-20.92-1.86-20.92-1.86,27.28-3.87,15.34,17.51,15.34,17.51-8.37,19.06-40.14,44.17-40.14,44.17,19.68-10.54,35.02-29.6,35.02-29.6,16.58-19.99,10.69-30.22,10.69-30.22Z"/><path class="uuid-13c1e1e5-cb95-4be3-99c6-467f72f2aadb" d="M281.52,110.07c2.95-8.68,11.16-7.28,11.16-7.28,7.28,2.48,1.09,10.85,1.09,10.85,8.37-8.21-.16-12.71-.16-12.71-10.85-1.86-13.64,8.06-13.64,8.06-2.17,8.37,6.66,8.83,6.66,8.83-6.97-2.79-5.12-7.75-5.12-7.75Z"/><path class="uuid-13c1e1e5-cb95-4be3-99c6-467f72f2aadb" d="M156.52,106.77c-1.24.17-2.47.33-3.75.33-1.56,0-3.13-.16-4.69-.33v.58c1.81.58,3.09,1.03,3.09,1.48s-.17.91-.41,1.65c-1.44,4.57-3.75,10.51-6.26,16.52-1.93-4.37-7.21-17.18-7.21-18.05,0-.46.37-.66,2.27-1.2l1.44-.41v-.58c-1.73.17-3.5.33-5.23.33-1.9,0-3.83-.16-5.73-.33v.58l1.15.41c1.32.46,1.61.58,2.27,2.1,2.6,5.98,6.8,16.36,9.48,23.86h.95c3.79-10.3,7.05-18.42,9.64-24.07.66-1.4,1.24-1.86,3.01-2.31v-.58Z"/><path class="uuid-13c1e1e5-cb95-4be3-99c6-467f72f2aadb" d="M111.98,106.77v.58l3.46,1.15c.78.29.82.58.91,4.45.04,2.47.12,4.99.12,7.46s-.08,4.99-.12,7.46c-.04,3.17-.16,3.33-1.2,3.71l-3.17,1.08v.57c1.85-.16,4.24-.33,6.3-.33,1.81,0,4.2.17,6.14.33v-.57l-3.17-1.08c-1.03-.37-1.15-.53-1.2-3.71-.04-2.47-.12-4.99-.12-7.46s.08-4.99.12-7.46c.08-3.87.13-4.16.91-4.45l3.46-1.15v-.58c-2.06.17-4.08.33-6.14.33-2.31,0-4.33-.16-6.3-.33Z"/><path class="uuid-13c1e1e5-cb95-4be3-99c6-467f72f2aadb" d="M123.07,82.81c0-1.37,1.18-2.37,2.47-2.37.69,0,1.36.12,2.06.39l.8,2.26h.22l.12-2.79c-.86-.39-2.16-.66-3.02-.66-2.2,0-4.48,1.21-4.48,3.67,0,3.83,6.38,3.59,6.38,6.48,0,1.9-1.49,2.63-3.12,2.63-.51,0-1.47-.12-2.08-.47l-.69-2.63h-.28l-.35,3.32c1.16.45,2.04.57,3.02.57,4.02,0,5.34-2.04,5.34-3.81,0-4.22-6.38-3.41-6.38-6.61Z"/><path class="uuid-13c1e1e5-cb95-4be3-99c6-467f72f2aadb" d="M120.81,99.44l-5.42,5.67h1.71l6.22-4.1s2.41-1.55,1.07-2.87c-1.32-1.29-3.58,1.31-3.58,1.31Z"/><path class="uuid-13c1e1e5-cb95-4be3-99c6-467f72f2aadb" d="M116.58,85.99c0-3.71-2.41-6.34-6.16-6.34-4.12,0-6.67,2.86-6.67,6.91,0,3.3,2.1,6.66,6.34,6.66s6.48-3.2,6.48-7.23ZM110.3,92.55c-2.98,0-4.47-2.77-4.47-6.97,0-2.89,1.53-5.26,4.36-5.26,3.36,0,4.3,3.24,4.3,6.65,0,2.77-1.1,5.58-4.2,5.58Z"/><path class="uuid-13c1e1e5-cb95-4be3-99c6-467f72f2aadb" d="M170.22,105.95h-.91c-2.97,7.42-7.42,16.89-11,25.34-.99.53-2.14.99-3.13,1.36v.57c1.53-.16,3.05-.33,4.58-.33,1.65,0,3.26.17,4.86.33v-.57l-3.54-1.28c.58-2.31,1.24-4.74,2.35-6.84,1.73-.04,3.42-.08,5.15-.08s3.5.04,5.23.08c.58,1.24,1.9,5.11,2.39,6.84-1.23.49-3.01,1.03-4.04,1.28v.57c1.85-.16,3.67-.33,5.52-.33,2.18,0,4.33.17,6.51.33v-.57l-3.46-1.2c-3.5-8.36-7.21-16.93-10.51-25.51ZM164,122.85l4.74-10.92,4.53,10.92h-9.27Z"/></svg>