<?xml version="1.0" encoding="UTF-8"?><svg id="uuid-507dd67a-7cd5-4a05-88fb-5ed4d4b92005" xmlns="http://www.w3.org/2000/svg" viewBox="0 0 350 200"><defs><style>.uuid-61bd24f1-8d23-400b-98f7-859e5a719894{fill:none;}.uuid-1231ec93-868a-4f5f-a88f-65d792effb20{fill:#fff;}</style></defs><rect class="uuid-61bd24f1-8d23-400b-98f7-859e5a719894" width="350" height="200"/><path class="uuid-1231ec93-868a-4f5f-a88f-65d792effb20" d="M84.25,94.63c-.14.18-.36.19-1.91.19-.65,0-1.33-.04-2.01-.06-.03-.61-.07-1.27-.07-1.94v-1.97h1.5c1.75,0,1.91.03,2.04.35l.38,1.1h.2c-.01-.61-.03-1.16-.03-1.75,0-.54.01-1.08.03-1.63h-.2l-.38,1.03c-.13.32-.29.35-2.04.35h-1.5v-1.78c0-.61.04-1.14.07-1.65.54-.02,1.2-.03,2.04-.03,1.66,0,1.78,0,1.92.4l.37,1.08h.2c-.01-.33-.04-.82-.04-1.04s.03-.74.04-1.1c-1.27.06-2.63.12-4,.12-1.1,0-2.2-.06-3.4-.12v.2l1.21.4c.32.1.36.2.36,1.56v5.24c0,1.11-.06,1.17-.46,1.3l-1.11.38v.2c1.04-.06,2.43-.12,3.7-.12.81,0,3.04.06,3.79.12v-1.1c0-.42.06-.85.09-1.27h-.2c-.26.85-.42,1.32-.59,1.53Z"/><path class="uuid-1231ec93-868a-4f5f-a88f-65d792effb20" d="M75.23,114.31v-.06c2.75-.26,5.38-1.7,5.38-4.12,0-3.51-3.15-4.88-6.28-4.88-1.66,0-3.89.23-5.05.23s-2.66-.12-4.27-.23v.41l2.45.82c.64.21.73.41.73,3.16v10.58c0,2.25-.12,2.36-.94,2.63l-2.25.76v.41c1.32-.12,2.48-.23,3.86-.23,1.81,0,4.09.23,6.31.23,4.21,0,6.31-2.28,6.31-4.97,0-3.45-3.36-4.53-6.25-4.74ZM70.64,109.78c0-1.31.03-2.16.09-3.51.99-.06,1.61-.06,2.54-.06,2.48,0,4.53,1.02,4.53,3.89,0,3.33-2.98,3.65-4.91,3.65h-2.25v-3.97ZM72.95,123.05c-.73,0-1.43-.06-2.22-.09-.06-.91-.09-1.78-.09-2.69v-5.55h2.08c3.27,0,5.96,1.05,5.96,4.24,0,3.45-2.89,4.09-5.73,4.09Z"/><path class="uuid-1231ec93-868a-4f5f-a88f-65d792effb20" d="M106.42,86.19v.2l.8.24c.39.13.61.25.64.51.12,1,.13,3.3.13,5.08s-.91,2.68-2.43,2.68c-2.3,0-2.72-1.21-2.72-3.07,0-2.23,0-3.47.04-4.32.03-.51.14-.56.94-.87l.67-.24v-.2c-.77.06-1.52.12-2.28.12-.68,0-1.36-.06-2.07-.12v.2l1.04.4c.41.16.45.45.45,1.66v4.06c0,2.21,1.46,3.12,3.56,3.12s3.53-1.04,3.56-3.84c.03-2.57,0-3.76.03-4.57.02-.3.22-.43.59-.59l.64-.24v-.2c-.58.06-1.14.12-1.69.12-.64,0-1.26-.06-1.88-.12Z"/><path class="uuid-1231ec93-868a-4f5f-a88f-65d792effb20" d="M124.86,121.29c-.53,1.17-.73,1.4-2.19,1.4h-5.67v-12.83c0-2.98.09-3.18.73-3.39l2.66-.82v-.41c-1.78.12-3.21.23-4.7.23s-2.92-.12-4.33-.23v.41l2.45.82c.64.21.73.41.73,3.16v10.58c0,2.25-.12,2.36-.93,2.63l-2.25.76v.41c2.02-.12,4.03-.23,6.02-.23,1.75,0,5.67.12,8.5.23l.23-4.7h-.35l-.91,1.99Z"/><path class="uuid-1231ec93-868a-4f5f-a88f-65d792effb20" d="M97.04,104.9c-5.9,0-9.55,4.09-9.55,9.91,0,4.73,3.01,9.56,9.09,9.56s9.29-4.59,9.29-10.38c0-5.32-3.45-9.09-8.82-9.09ZM96.86,123.4c-4.26,0-6.4-3.98-6.4-9.99,0-4.15,2.19-7.54,6.25-7.54,4.82,0,6.16,4.65,6.16,9.53,0,3.97-1.58,8.01-6.02,8.01Z"/><path class="uuid-1231ec93-868a-4f5f-a88f-65d792effb20" d="M71.08,95.08c-.36,0-1.04-.09-1.47-.33l-.49-1.86h-.2l-.25,2.36c.82.32,1.45.4,2.14.4,2.85,0,3.79-1.45,3.79-2.7,0-2.99-4.53-2.42-4.53-4.68,0-.97.84-1.68,1.75-1.68.49,0,.97.09,1.46.28l.56,1.61h.16l.09-1.98c-.61-.28-1.53-.46-2.14-.46-1.56,0-3.18.86-3.18,2.6,0,2.72,4.53,2.54,4.53,4.59,0,1.35-1.06,1.86-2.21,1.86Z"/><path class="uuid-1231ec93-868a-4f5f-a88f-65d792effb20" d="M254.06,73.63l2.97.77s4.72-1.43,9.12.55c0,0-3.63-4.18-12.09-1.32Z"/><path class="uuid-1231ec93-868a-4f5f-a88f-65d792effb20" d="M257.58,77.04l2.53.99s3.41-.77,5.93.44c0,0-.22-3.3-8.46-1.43Z"/><path class="uuid-1231ec93-868a-4f5f-a88f-65d792effb20" d="M253.84,124.07h2.42s13.85-6.37,4.51-15.06c0,0,5.5,9.01-6.92,15.06Z"/><path class="uuid-1231ec93-868a-4f5f-a88f-65d792effb20" d="M93.26,95.64c.97,0,2.17-.23,2.72-.4-.01-.26-.03-.51-.03-.65v-2.23c0-.3.04-.45.3-.58l.91-.44v-.2c-.63.03-1.27.12-1.92.12-.69,0-1.39-.09-2.08-.12v.2l.87.33c.65.25.71.33.71.56v2.05c0,.1-.01.32-.03.54-.51.17-1.05.24-1.66.24-2.16,0-3.63-1.72-3.63-4.21,0-2.89,1.72-4.29,3.76-4.29.56,0,1.43.13,1.58.32.22.27.49,1.07.69,1.69h.2c-.01-.42-.03-.84-.03-1.26,0-.36.01-.74.03-1.11-.62-.13-1.26-.21-2.05-.21-2.56,0-5.65,1.68-5.65,4.99,0,2.72,2.02,4.64,5.32,4.64Z"/><path class="uuid-1231ec93-868a-4f5f-a88f-65d792effb20" d="M117.35,95.47v-.2l-1.16-.39c-.38-.12-.42-.45-.42-2.33v-1.66h1.11c.9,1.17,2.18,3.02,3.11,4.58.36-.03.72-.06,1.07-.06s.68.03,1.01.06v-.2c-.81-.14-.88-.25-1.72-1.5l-2-2.98c1.33-.21,2.37-.91,2.37-2.37s-1.24-2.22-3.15-2.22c-1.03,0-1.85.12-2.6.12s-1.46-.06-1.99-.12v.2l1.21.4c.32.1.36.2.36,1.56v5.24c0,1.11-.06,1.17-.46,1.3l-1.11.38v.2c.69-.06,1.53-.12,2.27-.12.51,0,1.47.06,2.1.12ZM115.77,86.79c.43,0,.87-.01,1.33-.01,1.36,0,2.24.55,2.24,1.82,0,1.59-1.24,1.81-2.59,1.81h-.98v-3.61Z"/><path class="uuid-1231ec93-868a-4f5f-a88f-65d792effb20" d="M265.05,80.55s-2.42,4.51,4.51,11.32c0,0-4.4-7.69-4.51-11.32Z"/><path class="uuid-1231ec93-868a-4f5f-a88f-65d792effb20" d="M238.45,96.71s-2.2,8.79-3.74,11.43c0,0,4.29-2.86,3.74-11.43Z"/><path class="uuid-1231ec93-868a-4f5f-a88f-65d792effb20" d="M245.16,91.87c-17.36,3.74-10.77,11.76-10.77,11.76-2.2-7.58,10.77-11.76,10.77-11.76Z"/><path class="uuid-1231ec93-868a-4f5f-a88f-65d792effb20" d="M235.05,105.72s-2.3.82-5.03,2.25c-1.21-1.78-7.2-11.88,6.68-19.07,0,0,5.76-3.22,11.61-2.27,1.89,3.06,3.99,5.17,5.61,6.51-.51,3.36-2.43,8.44-8.66,13.45,0,0-3.63-1.21-5.28-2.97,0,0,.99,3.08,5.28,4.28,0,0,7.9-4.67,9.84-13.86.97.7,1.59,1.01,1.59,1.01,5.17-1.54,5.38-6.26,5.38-6.26-1.65,3.74-5.5,5.16-5.5,5.16-.45-.25-.89-.54-1.31-.86.22-1.38.3-2.85.21-4.42,0,0-1.69-2.86-6.16-3.69-1.8-3.84-2.63-7.3-2.63-7.3l-3.08-1.1c3.52-10,20.44-5.06,20.44-5.06-2.97-3.63-11.21-2.64-11.21-2.64-11.76,1.43-11.21,8.02-11.21,8.02,1.21,1.32,3.3,1.98,3.3,1.98.63,2.22,1.43,4.17,2.32,5.87-2.81-.08-6.46.61-11.11,2.81,0,0-17.06,7.17-6.44,20.55-5.99,3.21-13.68,9.27-3.78,16.04,0,0-9.12-8.79,9.12-18.46ZM253.95,89.24s.24,1.06.1,2.8c-1.41-1.38-2.61-3.09-3.6-4.85,1.21.44,2.39,1.1,3.5,2.04Z"/><path class="uuid-1231ec93-868a-4f5f-a88f-65d792effb20" d="M198.44,120.56l-4.03-6.02c2.69-.44,4.79-1.84,4.79-4.79s-2.51-4.5-6.37-4.5c-2.07,0-3.74.23-5.26.23s-2.95-.12-4.03-.23v.41l2.45.82c.64.21.73.41.73,3.16v10.58c0,2.25-.12,2.36-.94,2.63l-2.25.76v.41c1.4-.12,3.1-.23,4.59-.23,1.02,0,2.98.12,4.24.23v-.41l-2.34-.79c-.76-.23-.85-.9-.85-4.7v-3.36h2.25c1.81,2.37,4.41,6.11,6.28,9.26.73-.06,1.46-.12,2.16-.12s1.37.06,2.05.12v-.41c-1.64-.29-1.78-.5-3.48-3.04ZM191.17,113.78h-1.99v-7.31c.88,0,1.75-.03,2.69-.03,2.75,0,4.53,1.11,4.53,3.68,0,3.22-2.51,3.65-5.23,3.65Z"/><path class="uuid-1231ec93-868a-4f5f-a88f-65d792effb20" d="M236.8,124.18h2.42s1.87-6.37,10.99-10.55c0,0-7.03.55-13.41,10.55Z"/><path class="uuid-1231ec93-868a-4f5f-a88f-65d792effb20" d="M284.28,91.87c-3.85-6.49-14.84-1.32-14.84-1.32,19.34-2.75,10.88,12.42,10.88,12.42-5.93,13.52-28.46,31.32-28.46,31.32,13.96-7.48,24.84-20.99,24.84-20.99,11.76-14.18,7.58-21.43,7.58-21.43Z"/><path class="uuid-1231ec93-868a-4f5f-a88f-65d792effb20" d="M250.54,107.59c2.09-6.15,7.91-5.17,7.91-5.17,5.17,1.76.77,7.69.77,7.69,5.93-5.82-.11-9.01-.11-9.01-7.69-1.32-9.67,5.71-9.67,5.71-1.54,5.93,4.72,6.26,4.72,6.26-4.94-1.98-3.63-5.5-3.63-5.5Z"/><path class="uuid-1231ec93-868a-4f5f-a88f-65d792effb20" d="M161.89,105.25c-.88.12-1.75.23-2.66.23-1.11,0-2.22-.12-3.33-.23v.41c1.28.41,2.19.73,2.19,1.05s-.12.64-.29,1.17c-1.02,3.24-2.66,7.45-4.44,11.72-1.37-3.1-5.11-12.19-5.11-12.8,0-.32.26-.47,1.61-.85l1.02-.29v-.41c-1.23.12-2.48.23-3.71.23-1.34,0-2.72-.12-4.06-.23v.41l.82.29c.94.32,1.14.41,1.61,1.49,1.84,4.24,4.82,11.6,6.72,16.92h.67c2.69-7.31,5-13.06,6.84-17.07.47-.99.88-1.32,2.13-1.64v-.41Z"/><path class="uuid-1231ec93-868a-4f5f-a88f-65d792effb20" d="M130.31,105.25v.41l2.45.82c.55.21.58.41.64,3.16.03,1.75.09,3.54.09,5.29s-.06,3.54-.09,5.29c-.03,2.25-.12,2.36-.85,2.63l-2.25.76v.41c1.31-.12,3.01-.23,4.47-.23,1.29,0,2.98.12,4.35.23v-.41l-2.25-.76c-.73-.26-.82-.38-.85-2.63-.03-1.75-.09-3.54-.09-5.29s.06-3.54.09-5.29c.06-2.75.09-2.95.64-3.16l2.45-.82v-.41c-1.46.12-2.89.23-4.35.23-1.64,0-3.07-.12-4.47-.23Z"/><path class="uuid-1231ec93-868a-4f5f-a88f-65d792effb20" d="M138.17,88.26c0-.97.84-1.68,1.75-1.68.49,0,.97.09,1.46.28l.56,1.61h.16l.09-1.98c-.61-.28-1.53-.46-2.14-.46-1.56,0-3.18.86-3.18,2.6,0,2.72,4.52,2.54,4.52,4.59,0,1.35-1.05,1.86-2.21,1.86-.36,0-1.04-.09-1.48-.33l-.49-1.86h-.2l-.25,2.36c.83.32,1.45.4,2.14.4,2.85,0,3.79-1.45,3.79-2.7,0-2.99-4.52-2.42-4.52-4.68Z"/><path class="uuid-1231ec93-868a-4f5f-a88f-65d792effb20" d="M136.57,100.05l-3.84,4.02h1.21l4.41-2.91s1.71-1.1.76-2.04c-.94-.91-2.54.93-2.54.93Z"/><path class="uuid-1231ec93-868a-4f5f-a88f-65d792effb20" d="M133.57,90.51c0-2.63-1.71-4.5-4.37-4.5-2.92,0-4.73,2.03-4.73,4.9,0,2.34,1.49,4.73,4.5,4.73s4.6-2.27,4.6-5.13ZM129.12,95.16c-2.11,0-3.17-1.96-3.17-4.94,0-2.05,1.08-3.73,3.09-3.73,2.39,0,3.05,2.3,3.05,4.71,0,1.97-.78,3.96-2.98,3.96Z"/><path class="uuid-1231ec93-868a-4f5f-a88f-65d792effb20" d="M171.61,104.67h-.64c-2.1,5.26-5.26,11.98-7.8,17.97-.7.38-1.52.7-2.22.96v.41c1.08-.12,2.16-.23,3.24-.23,1.17,0,2.31.12,3.45.23v-.41l-2.51-.91c.41-1.64.88-3.36,1.67-4.85,1.23-.03,2.43-.06,3.65-.06s2.48.03,3.71.06c.41.88,1.35,3.62,1.7,4.85-.87.35-2.13.73-2.86.91v.41c1.32-.12,2.6-.23,3.92-.23,1.55,0,3.07.12,4.62.23v-.41l-2.45-.85c-2.49-5.93-5.11-12.01-7.45-18.09ZM167.2,116.65l3.36-7.74,3.22,7.74h-6.58Z"/></svg>