<svg width="37" height="36" viewBox="0 0 37 36" fill="none" xmlns="http://www.w3.org/2000/svg">
<path d="M36.8335 9.055L37 0.550014C34.1912 0.126668 31.242 0.0101285 28.3713 0.124289L27.9694 8.62927C28.4712 9.34515 33.7179 9.05737 34.8619 9.07878C35.5468 9.09067 36.1628 9.5045 36.8335 9.055ZM25.239 2.47886C22.3612 2.18394 19.4882 2.31475 16.6009 2.23389C12.396 2.11497 6.12186 0.423962 4.70437 5.95125L4.17399 17.1438H1.09403L1.21295 17.8525L5.47733 22.3476L10.0961 17.9667C10.3101 17.0011 7.73914 17.5314 7.16834 17.3459L6.78067 16.787L7.26823 6.61956C8.0293 3.64663 10.2364 4.57656 12.3365 4.60272C14.6411 4.62889 16.9386 4.78586 19.2075 4.84056C21.222 4.88813 23.246 4.78586 25.2581 4.83104L25.239 2.48123V2.47886ZM35.9178 16.9036C36.0986 16.749 34.4575 14.8605 34.2673 14.6489C33.8891 14.2255 31.9507 12.1897 31.6535 12.0374C31.4703 11.9447 31.3633 11.8805 31.1825 12.0374C30.6236 12.9935 27.0347 15.6264 26.9134 16.3113C26.8302 16.7846 26.9657 16.63 27.2678 16.6705C27.7173 16.7299 29.8863 16.5825 30.0124 17.051L29.7627 26.9687C29.6223 28.2388 29.1229 29.1687 27.8743 29.5802L13.3306 29.2519C12.6956 29.4589 12.9097 31.0357 13.0452 31.6018C13.3473 32.0346 17.8352 31.7801 18.7557 31.8134C21.6882 31.9228 27.6602 32.8433 30.079 31.3116C31.4418 30.4483 32.2029 29.0022 32.3384 27.4135L32.6381 17.2936C32.8831 16.5468 35.2257 17.0463 35.9202 16.9036H35.9178ZM3.87432 25.2492C-1.45318 26.153 -1.18443 34.5699 4.0527 35.1384C12.4982 36.054 11.9369 23.8793 3.87432 25.2492Z" fill="#3BF7E4"/>
</svg>
