<svg width="51" height="36" viewBox="0 0 51 36" fill="none" xmlns="http://www.w3.org/2000/svg">
<path d="M15.8218 9.63202C16.1702 5.02002 19.6668 0.816631 24.3391 0.180261C26.4726 -0.111129 28.3851 0.347727 30.3244 0.320933C39.5551 0.203707 50.782 -1.76569 50.8824 11.1325C50.9159 15.6172 51.2475 23.113 50.5978 27.3164C49.1241 36.8151 37.723 35.0801 30.8535 34.9562C26.9583 34.8858 24.1851 35.6729 20.5176 33.5964C19.1175 32.8026 16.1568 29.4901 16.1065 27.9628L15.8319 19.8039L2.35759 19.9044C-0.663496 19.6532 -0.854406 15.7613 2.21022 15.2756C3.32889 15.0981 4.16287 15.5335 5.17436 15.5101C7.72654 15.4498 10.2888 15.2354 12.8409 15.2421C13.35 15.2421 16.0362 15.9656 16.0027 14.9675C15.9458 13.3029 15.7013 11.233 15.8218 9.63872V9.63202ZM20.5008 19.9747C20.4305 23.0494 19.5362 26.7839 22.0147 29.2289C23.4717 30.6657 26.0272 30.6657 28.0368 30.7227C31.1818 30.8131 34.5612 30.7796 37.6861 30.7494C41.3804 30.7126 45.8585 30.6456 46.3408 25.913C46.736 22.0312 46.3475 16.5986 46.2403 12.5928C46.1867 10.5866 46.8867 9.82294 45.8149 7.55545C43.7986 3.29177 37.3646 4.876 33.4828 4.87935C29.6612 4.87935 21.9511 3.29512 20.6716 8.35594C20.1223 10.533 20.9831 13.0584 20.3501 15.3091C21.7769 15.0177 23.1568 15.49 24.5066 15.5168C27.1559 15.5737 31.7847 14.7632 34.099 15.6039C36.1924 16.3608 36.0718 19.4723 33.3421 19.8809C31.5 20.1589 20.9295 19.4891 20.5042 19.9714L20.5008 19.9747Z" fill="#3BF7E4"/>
</svg>
