<svg width="37" height="35" viewBox="0 0 37 35" fill="none" xmlns="http://www.w3.org/2000/svg">
<g clip-path="url(#clip0_1_3524)">
<path d="M34.5643 16.3838L31.7727 14.5236L29.225 16.3838C28.9495 12.4659 26.4602 8.53816 22.9908 6.71449C21.6938 6.03184 19.2704 5.72464 18.4463 5.18827C18.3244 5.10781 16.5324 3.15736 16.469 3.02571C16.2057 2.4552 17.8977 0.338965 18.4682 0.168301C20.0749 -0.309559 24.1465 1.26055 25.6532 2.10656C30.8877 5.04442 33.9694 10.4837 34.5619 16.3814L34.5643 16.3838Z" fill="#3BF7E4"/>
<path d="M16.3576 0.12207C16.1674 0.865679 14.7143 1.8214 14.6509 2.43579C14.5144 3.74259 16.4721 4.22533 16.3551 5.46142C12.1787 5.51994 8.13398 8.3749 6.43709 12.1734C5.95191 13.2583 5.66178 15.5623 5.29607 16.1304C4.93037 16.6984 3.14083 17.6371 2.64103 18.3198C2.01932 17.3811 0.112758 16.7131 0.0786254 15.5501C0.0591209 14.9235 0.614999 12.8609 0.834424 12.1515C2.87264 5.55651 9.30912 0.126946 16.3576 0.12207Z" fill="#3BF7E4"/>
<path d="M34.2673 18.1368C34.2673 26.7139 26.6289 34.2768 18.0566 34.3499L19.9583 31.8412L18.0591 29.0106C22.5768 28.9155 26.997 25.629 28.5062 21.3721C28.8231 20.4749 28.8548 19.2242 29.2547 18.4806C29.6545 17.737 31.1368 17.1128 31.6488 16.2571L34.2697 18.1368H34.2673Z" fill="#3BF7E4"/>
<path d="M16.3074 29.3056L18.2749 32.0094L15.9441 34.5426C11.4751 34.2963 6.29913 35.0472 1.9155 34.5913C1.09144 34.506 0.34783 34.3499 0.147909 33.4454C-0.0739544 32.4409 -0.203172 29.6445 0.996354 29.3007H16.3098L16.3074 29.3056Z" fill="#3BF7E4"/>
<path d="M3.85372 27.7965C1.52294 25.1122 0.508705 21.5648 0.0917969 18.0881C0.445316 17.7395 1.68629 19.4997 2.03737 19.6631C3.39049 20.2921 4.43642 18.4855 5.42871 17.8443C5.37264 20.8334 6.84278 23.6128 8.82249 25.7436L11.5019 27.7989H3.85372V27.7965Z" fill="#3BF7E4"/>
<path d="M24.6113 34.3524L28.2318 32.2678C30.3335 30.8879 31.1136 28.3816 34.0686 29.3861C34.5269 29.5421 36.9991 31.2877 36.9991 31.8046C36.9991 32.2825 34.1588 34.3548 33.9564 34.3548H24.6113V34.3524Z" fill="#3BF7E4"/>
</g>
<defs>
<clipPath id="clip0_1_3524">
<rect width="37" height="34.6619" fill="white" transform="translate(0 0.0830078)"/>
</clipPath>
</defs>
</svg>
