<?xml version="1.0" encoding="UTF-8"?>
<svg id="Capa_1" xmlns="http://www.w3.org/2000/svg" version="1.1" viewBox="0 0 37 36">
  <!-- Generator: Adobe Illustrator 30.1.0, SVG Export Plug-In . SVG Version: 2.1.1 Build 136)  -->
  <defs>
    <style>
      .st0 {
        fill: #3bf7e4;
      }
    </style>
  </defs>
  <path class="st0" d="M6.7,4.3c2.2,0,3.9,1.8,3.9,3.9s-1.8,3.9-3.9,3.9-3.9-1.8-3.9-3.9,1.8-3.9,3.9-3.9M6.7,14.7c3.6,0,6.5-2.9,6.5-6.5S10.3,1.7,6.7,1.7.2,4.6.2,8.2s2.9,6.5,6.5,6.5M34.2,10.8h-6.5v-6.5h6.5v6.5ZM35.5,1.7h-9.1c-.7,0-1.3.6-1.3,1.3v9.1c0,.7.6,1.3,1.3,1.3h9.1c.7,0,1.3-.6,1.3-1.3V3c0-.7-.6-1.3-1.3-1.3M14.2,31.7l4.3-7.8,4.3,7.8h-8.6ZM17.4,20.6l-6.5,11.8c-.5.9.2,1.9,1.1,1.9h13.1c1,0,1.6-1.1,1.1-1.9l-6.5-11.8c-.5-.8-1.8-.8-2.3,0M6.7,17.2c0-.7-.6-1.3-1.3-1.3s-1.3.6-1.3,1.4c0,4.4,2,8.6,5.5,11.3.6.4,1.4.3,1.8-.2.4-.6.3-1.4-.2-1.8-2.9-2.2-4.5-5.6-4.5-9.3h0M30.2,16.2c.4,4.3-1.4,8-4.5,10.4-.6.4-.7,1.3-.2,1.8.4.6,1.3.7,1.8.2,3.8-2.9,5.9-7.6,5.5-12.7,0-.7-.7-1.2-1.4-1.2-.7,0-1.2.7-1.2,1.4M13.9,5.1c.2.7.9,1.1,1.6.9,2-.6,4.4-.5,6.5.2.7.2,1.4-.2,1.6-.9.2-.7-.2-1.4-.9-1.6-2.6-.8-5.4-.9-8-.2-.7.2-1.1.9-.9,1.6"/>
</svg>