<?xml version="1.0" encoding="UTF-8"?>
<svg id="Capa_1" xmlns="http://www.w3.org/2000/svg" version="1.1" viewBox="0 0 37 36">
  <!-- Generator: Adobe Illustrator 30.1.0, SVG Export Plug-In . SVG Version: 2.1.1 Build 136)  -->
  <defs>
    <style>
      .st0 {
        fill: #3bf7e4;
      }
    </style>
  </defs>
  <path class="st0" d="M22.4,10.1c0,2.2-1.8,3.9-3.9,3.9s-3.9-1.8-3.9-3.9,1.8-3.9,3.9-3.9,3.9,1.8,3.9,3.9M29.6,4.4c0-2.2-1.8-3.9-3.9-3.9s-3.9,1.8-3.9,3.9,1.8,3.9,3.9,3.9,3.9-1.8,3.9-3.9M15.3,4.4c0-2.2-1.8-3.9-3.9-3.9s-3.9,1.8-3.9,3.9,1.8,3.9,3.9,3.9,3.9-1.8,3.9-3.9M21.5,13.7c-.8.7-1.9,1.1-3,1.1s-2.2-.4-3-1.1c-2.4,1.1-4.1,3.6-4.1,6.5v2.4c0,.4.3.8.6.9,1.7.6,6.5,1.9,13,0,.4-.1.7-.5.7-.9v-2.3c0-2.9-1.7-5.3-4.1-6.5M28.7,8c-.8.7-1.9,1.1-3,1.1s-2.2-.4-3-1.1c.3.6.5,1.3.5,2.1,0,1.1-.4,2.2-1.1,3,2.1,1.1,3.7,3.1,4.2,5.6,1.7,0,3.7-.4,5.8-1,.4-.1.7-.5.7-.9v-2.3c0-2.9-1.7-5.3-4.1-6.5M14.3,8.1c-.8.7-1.8,1.1-2.9,1.1s-2.2-.4-3-1.1c-2.4,1.1-4.1,3.6-4.1,6.5v2.4c0,.4.3.8.6.9,1,.3,3,.9,5.9,1,.5-2.4,2-4.5,4.2-5.6-.7-.8-1.1-1.9-1.1-3,0-.7.2-1.4.5-2.1M29.6,4.4c0-2.2-1.8-3.9-3.9-3.9s-3.9,1.8-3.9,3.9,1.8,3.9,3.9,3.9,3.9-1.8,3.9-3.9M15.3,4.4c0-2.2-1.8-3.9-3.9-3.9s-3.9,1.8-3.9,3.9,1.8,3.9,3.9,3.9,3.9-1.8,3.9-3.9M21.5,13.7c-.8.7-1.9,1.1-3,1.1s-2.2-.4-3-1.1c-2.4,1.1-4.1,3.6-4.1,6.5v2.4c0,.4.3.8.6.9,1.7.6,6.5,1.9,13,0,.4-.1.7-.5.7-.9v-2.3c0-2.9-1.7-5.3-4.1-6.5M28.7,8c-.8.7-1.9,1.1-3,1.1s-2.2-.4-3-1.1c.3.6.5,1.3.5,2.1,0,1.1-.4,2.2-1.1,3,2.1,1.1,3.7,3.1,4.2,5.6,1.7,0,3.7-.4,5.8-1,.4-.1.7-.5.7-.9v-2.3c0-2.9-1.7-5.3-4.1-6.5M14.3,8.1c-.8.7-1.8,1.1-2.9,1.1s-2.2-.4-3-1.1c-2.4,1.1-4.1,3.6-4.1,6.5v2.4c0,.4.3.8.6.9,1,.3,3,.9,5.9,1,.5-2.4,2-4.5,4.2-5.6-.7-.8-1.1-1.9-1.1-3,0-.7.2-1.4.5-2.1M34.2,16.8h0c0,.6-.2,1-.5,1.5-.3.4-.7.7-1.2.9,0,0,0,0-.1,0v2.4l-2.2.2c-.4,0-.7.3-.8.7-.3,1.1-.7,2.2-1.3,3.1-.2.3-.2.8,0,1.1l1.5,1.7-2.4,2.4-1.8-1.5c-.3-.3-.7-.3-1.1,0-1,.6-2,1-3.1,1.2-.4,0-.7.4-.7.8l-.2,2.4h-3.5l-.2-2.5c0-.4-.3-.7-.7-.8-1-.3-2-.7-2.9-1.3-.3-.2-.8-.2-1.1,0l-1.9,1.7-2.4-2.4,1.7-2c.3-.3.3-.7,0-1.1-.5-.9-.9-1.9-1.2-2.9,0-.4-.4-.7-.8-.7l-2.6-.2v-2.3c0,0-.2,0-.2,0-.9-.3-1.6-1.2-1.6-2.2h0c0,0,0,.1,0,.3v5.2c0,.5.4.9.9.9l2.8.2c.2.7.5,1.4.9,2.1l-1.8,2.2c-.3.4-.3.9,0,1.3l3.7,3.7c.3.3.9.4,1.3,0l2.1-1.8c.7.4,1.4.7,2.2.9l.2,2.7c0,.5.4.9.9.9h5.2c.5,0,.9-.4.9-.9l.2-2.6c.8-.2,1.6-.6,2.4-.9l2,1.7c.4.3.9.3,1.3,0l3.7-3.7c.3-.3.4-.9,0-1.3l-1.6-1.9c.4-.8.8-1.6,1-2.4l2.5-.2c.5,0,.9-.4.9-.9v-5.2c0-.1,0-.3,0-.4M22.8,25.4c-1.2.9-2.7,1.4-4.3,1.4s-2.9-.5-4.1-1.3c-.8-.1-1.5-.3-2.1-.5.1.2.3.3.4.4,1.5,1.5,3.6,2.4,5.8,2.4s4.2-.8,5.8-2.4c.2-.2.3-.4.5-.6-.7.2-1.3.3-2,.5"/>
</svg>