<?xml version="1.0" encoding="UTF-8"?>
<svg id="Capa_1" xmlns="http://www.w3.org/2000/svg" version="1.1" viewBox="0 0 37 36">
  <!-- Generator: Adobe Illustrator 30.1.0, SVG Export Plug-In . SVG Version: 2.1.1 Build 136)  -->
  <defs>
    <style>
      .st0 {
        fill: #3bf7e4;
      }
    </style>
  </defs>
  <path class="st0" d="M31.1,13.9c0,4.7-3.8,8.5-8.5,8.5s-8.5-3.8-8.5-8.5,3.8-8.5,8.5-8.5,8.5,3.8,8.5,8.5M16.9,5.4c-.8-2.6-3.1-4.4-6-4.5-3.5,0-6.4,2.9-6.3,6.5.1,3.4,2.9,6.1,6.3,6.1s1,0,1.5-.2c.2-3.3,1.9-6.2,4.5-7.9M12.9,34.9c-4-3.8-4.5-7.2-4.4-8.9h3.4l-5.9-5.8L.2,26.1h3.4c2.2,8.7,9.3,8.9,9.3,8.9s0,0,0,0M29.5,21.3h0c-1.8,1.7-4.3,2.8-7,2.8s-5.3-1.1-7.1-2.9c-1.2.7-2.3,1.7-3.3,2.8l3.9,3.8h-5.7c.3,1.5,1.3,3.6,3.7,6l1.4,1.3h21.3c0-5.9-2.9-11.1-7.2-13.8M6.3,18.2l4.4,4.3c.2,0,.3,0,.4,0,.9-.9,1.9-1.8,2.9-2.5,0-.2,0-.3,0-.4-.9-1.4-1.5-3-1.7-4.7-.1-.1-.2-.2-.4-.3-.4,0-.8,0-1.1,0-2,0-3.7-.8-5.1-2-.1,0-.2,0-.4,0C2.3,14.7.2,18.5.2,22.8h.9c0,0,.1,0,.2,0l4.6-4.5c.2,0,.3,0,.4,0M12.5,34.5c-3.4-3.5-4-6.6-4-8.2,0,0,.1-.1.2-.2h2.7c0-.2,0-.2.1-.4l-5.3-5.2h-.3L.6,25.7c0,.2,0,.2.1.4h2.7c0,0,.1.1.2.2,1.8,7,6.9,8.4,8.7,8.6.3,0,.4-.1.2-.4"/>
</svg>