<svg width="30" height="35" viewBox="0 0 30 35" fill="none" xmlns="http://www.w3.org/2000/svg">
<path d="M16.6078 8.05763C16.6898 8.17963 18.8938 8.68763 19.4238 8.92363C19.8198 9.09763 21.8178 10.4176 21.9618 10.3676C23.3958 9.86163 22.5898 9.08163 22.5518 7.98163C22.3418 2.10163 31.4778 3.20763 29.7938 9.03563C29.5198 9.98363 28.2278 11.2876 27.2278 11.4456C25.7558 11.6776 24.4198 10.6576 23.5798 12.1836C26.6358 16.0776 24.9858 21.0496 24.7458 25.4816C24.6558 27.1496 25.0818 33.2556 24.5318 34.2236C23.9818 35.1916 22.5758 34.8456 22.3778 33.6396C21.7938 30.0736 22.6818 24.9496 22.9618 21.3116C23.1598 18.7576 23.5638 15.7416 21.6718 13.6916C21.4638 13.6756 19.4878 15.2896 19.4098 15.5876C19.2878 16.0516 19.7038 16.9656 19.6838 17.6396C19.5638 21.5016 14.9278 23.4956 12.0138 20.9176C10.3318 19.4296 10.1838 17.5196 10.7338 15.4436L8.51576 13.6616C6.95576 14.7436 7.13576 17.0136 6.70776 18.5916C6.13976 20.6896 4.81376 22.8516 4.25576 24.9936C7.60376 24.6256 6.26576 27.4636 6.82976 29.4856C8.32776 29.6196 9.97576 29.5676 10.9138 30.9756C11.6738 32.1156 11.8798 35.0776 9.93776 34.7496C8.58976 34.5216 9.29576 32.3616 8.84576 32.0496C5.25976 32.2776 3.81976 30.7576 4.25576 27.1856C1.91176 27.2116 1.43976 26.1516 2.06176 24.0976C2.91376 21.2976 3.92376 19.1556 4.69976 16.1876C5.07976 14.7356 5.63776 13.3196 6.62576 12.1596L5.35176 11.1336C1.71176 12.7536 -1.63224 8.50963 0.86576 5.38763C3.60376 1.96763 9.05976 5.58363 7.05976 9.54763L8.23976 10.3856C9.94976 9.08563 12.0178 8.15763 14.2018 8.07163L14.1678 7.30963C9.92576 5.64563 11.3318 -0.52437 16.0758 0.13163C19.1698 0.55963 20.1358 4.52563 17.7918 6.58963C17.4038 6.93163 16.1158 7.32563 16.6078 8.05763ZM15.3258 2.36163C13.4798 2.46363 13.5798 5.19363 15.2958 5.19963C17.3298 5.20563 17.1838 2.25763 15.3258 2.36163ZM3.60376 6.32163C1.70176 6.48563 1.92976 9.30963 3.72176 9.20963C5.69976 9.09963 5.34576 6.17163 3.60376 6.32163ZM27.2838 6.73763C26.4038 5.85763 24.8378 6.47963 24.8398 7.77763C24.8398 10.4896 29.2138 8.66763 27.2838 6.73763ZM14.1998 10.2636C12.6698 10.4596 11.2938 11.1156 10.0218 11.9536C10.0718 12.0716 11.8338 13.4776 12.0258 13.5496C12.6178 13.7736 13.4978 13.0476 14.1098 12.8596L14.1998 10.2656V10.2636ZM16.5918 10.4616C16.7238 11.6656 16.0298 13.1996 17.5878 13.5636C18.3618 13.7436 19.3098 12.4176 19.9718 11.9556C19.9758 11.6136 17.1678 10.2516 16.5918 10.4616ZM14.7538 15.0796C11.2338 15.5636 12.7998 21.1976 16.1338 19.4576C18.5078 18.2176 17.1758 14.7456 14.7538 15.0796Z" fill="#3BF7E4"/>
</svg>
