<svg width="41" height="36" viewBox="0 0 41 36" fill="none" xmlns="http://www.w3.org/2000/svg">
<g clip-path="url(#clip0_1_3554)">
<path d="M6.36258 0.168968C1.76418 0.935735 1.65622 8.36765 6.77461 8.89205C13.4706 9.57729 13.2216 -0.976776 6.36258 0.168968ZM32.7566 0.168968C28.1582 0.935735 28.0502 8.36765 33.1686 8.89205C39.8646 9.57729 39.6156 -0.976776 32.7566 0.168968ZM4.60431 11.1725C1.21775 11.7432 0.213025 15.1011 0.0455698 18.0536C-0.121885 21.0061 0.0698069 22.6388 2.86807 24.2472C3.14348 26.8362 2.61688 29.8173 2.90112 32.3556C3.25145 35.4865 6.57631 35.7002 9.11678 35.2728C12.7655 34.6603 11.492 29.6675 11.6947 27.0785C10.3947 24.8884 6.99935 23.4804 7.31443 20.4971C7.56562 18.1065 13.2503 13.9465 13.2525 13.4354C12.7281 12.3006 10.9742 11.3598 9.77778 11.1747C8.66068 11.0007 5.70819 10.9874 4.60431 11.1747V11.1725ZM27.788 13.7328C27.81 13.7703 28.2419 13.9047 28.4204 14.0787C30.0112 15.6123 33.5872 18.7168 33.7062 20.9202C33.8428 23.4694 30.6435 25.003 29.3436 26.9001C29.218 32.1925 28.2639 36.0991 35.1274 35.3279C39.9263 34.7881 37.4894 27.4773 38.1305 24.2494C40.8869 22.7159 41.1381 20.7902 40.953 17.8355C40.5718 11.774 37.2316 10.56 31.6108 11.124C30.6876 11.2166 27.1556 12.6488 27.7902 13.735L27.788 13.7328ZM17.1987 18.8204C17.668 16.8175 16.7624 13.6425 14.3299 15.4008C13.735 15.8304 9.79982 19.8824 9.62134 20.3693C9.44287 20.8563 9.43847 21.1934 9.59931 21.6913C9.7249 22.0813 13.6887 26.1399 14.2286 26.5211C16.9365 28.4446 17.5534 25.4216 17.2009 23.2183H23.7999C23.3306 25.2211 24.2362 28.3961 26.6687 26.6379C27.2636 26.2082 31.1988 22.1562 31.3773 21.6693C31.5557 21.1824 31.5601 20.8452 31.3993 20.3473C31.2737 19.9573 27.3099 15.8987 26.77 15.5175C24.0621 13.594 23.4452 16.617 23.7977 18.8204H17.1987Z" fill="#3BF7E4"/>
</g>
<defs>
<clipPath id="clip0_1_3554">
<rect width="41" height="35.355" fill="white" transform="translate(0 0.0830078)"/>
</clipPath>
</defs>
</svg>
