<svg width="37" height="36" viewBox="0 0 37 36" fill="none" xmlns="http://www.w3.org/2000/svg">
<path d="M18.6198 0.0830078L18.0681 0.400037L13.6672 12.8865L0.122318 13.2484L0 13.7427L10.427 21.2016L10.457 20.0758L3.47733 14.4966L14.6108 14.2045L18.6223 3.81246L22.1271 14.2195L33.2755 14.4941L24.6234 21.6235L27.564 32.1279L20.3522 27.2876C19.7182 26.9406 19.2689 27.2776 18.8794 27.7818L29.7982 35.3581L26.1087 21.8706L37.0025 13.2509L23.0857 12.8865L18.6198 0.0830078ZM21.85 24.1822L14.8879 23.8177L12.6612 17.4722C12.3217 17.4996 12.2668 17.8341 12.1544 18.0813C11.3506 19.8511 10.8838 22.0728 10.1449 23.8976L3.22521 24.1822L8.45244 28.331L6.70503 35.1084L12.4989 31.4239L18.3727 35.3581L16.488 28.6406L21.85 24.1822Z" fill="#3BF7E4"/>
</svg>
