<svg width="45" height="44" viewBox="0 0 45 44" fill="none" xmlns="http://www.w3.org/2000/svg">
<g id="Icon">
<path id="Text" d="M5.34402 20.9212L5.34401 20.9212L5.34306 20.924C4.47266 23.4975 4.03369 25.9874 4.03369 28.3915V35.5374C4.03369 36.3658 4.70526 37.0374 5.53369 37.0374H14.7309C15.5593 37.0374 16.2309 36.3658 16.2309 35.5374L16.2309 28.3117L16.2308 28.3075C16.2054 25.2764 16.6886 22.5199 17.6727 20.0315C18.5778 17.7775 19.6728 15.6054 20.9579 13.5149C21.3813 12.8261 21.199 11.9129 20.5145 11.4567L15.4228 8.06385L15.4228 8.06385C14.8741 7.69817 14.1366 7.72759 13.6287 8.17735C11.9242 9.68639 10.3745 11.4882 8.9778 13.579L8.97711 13.5801C7.45041 15.878 6.23918 18.3253 5.34402 20.9212ZM25.0557 20.9212L25.0547 20.924C24.1843 23.4975 23.7454 25.9874 23.7454 28.3915V35.5374C23.7454 36.3658 24.417 37.0374 25.2454 37.0374H34.4425C35.271 37.0374 35.9425 36.3658 35.9425 35.5374L35.9426 28.3117L35.9425 28.3075C35.9171 25.2765 36.4003 22.5201 37.3843 20.0318C38.2894 17.7777 39.3844 15.6055 40.6696 13.5149C41.093 12.8261 40.9107 11.9129 40.2261 11.4567L35.1345 8.06385L35.1345 8.06385C34.5858 7.69817 33.8483 7.72759 33.3403 8.17735L33.6718 8.5517L33.3403 8.17735C31.6359 9.68639 30.0861 11.4882 28.6895 13.579L28.6888 13.5801C27.1621 15.878 25.9509 18.3253 25.0557 20.9212Z" fill="url(#paint0_linear_1_6644)" stroke="#3BF7E4"/>
</g>
<defs>
<linearGradient id="paint0_linear_1_6644" x1="22.6513" y1="8.0668" x2="22.6513" y2="36.5374" gradientUnits="userSpaceOnUse">
<stop stop-color="#3BF7E4"/>
<stop offset="1" stop-color="#191919"/>
</linearGradient>
</defs>
</svg>
